<svg width="32" height="32" viewBox="0 0 32 32" fill="none" xmlns="http://www.w3.org/2000/svg">
<circle cx="16" cy="16" r="16" fill="#1877F2"/>
<g clip-path="url(#clip0_277_9119)">
<path d="M11 16C11 16.1658 11.0658 16.3247 11.1831 16.4419C11.3003 16.5592 11.4592 16.625 11.625 16.625H15.2708C15.2985 16.625 15.325 16.636 15.3445 16.6555C15.364 16.675 15.375 16.7015 15.375 16.7292V20.375C15.375 20.5408 15.4408 20.6997 15.5581 20.8169C15.6753 20.9342 15.8342 21 16 21C16.1658 21 16.3247 20.9342 16.4419 20.8169C16.5592 20.6997 16.625 20.5408 16.625 20.375V16.7292C16.625 16.7015 16.636 16.675 16.6555 16.6555C16.675 16.636 16.7015 16.625 16.7292 16.625H20.375C20.5408 16.625 20.6997 16.5592 20.8169 16.4419C20.9342 16.3247 21 16.1658 21 16C21 15.8342 20.9342 15.6753 20.8169 15.5581C20.6997 15.4408 20.5408 15.375 20.375 15.375H16.7292C16.7015 15.375 16.675 15.364 16.6555 15.3445C16.636 15.325 16.625 15.2985 16.625 15.2708V11.625C16.625 11.4592 16.5592 11.3003 16.4419 11.1831C16.3247 11.0658 16.1658 11 16 11C15.8342 11 15.6753 11.0658 15.5581 11.1831C15.4408 11.3003 15.375 11.4592 15.375 11.625V15.2708C15.375 15.2985 15.364 15.325 15.3445 15.3445C15.325 15.364 15.2985 15.375 15.2708 15.375H11.625C11.4592 15.375 11.3003 15.4408 11.1831 15.5581C11.0658 15.6753 11 15.8342 11 16V16Z" fill="white"/>
</g>
<defs>
<clipPath id="clip0_277_9119">
<rect width="10" height="10" fill="white" transform="translate(11 11)"/>
</clipPath>
</defs>
</svg>
