<svg width="14" height="14" viewBox="0 0 14 14" fill="none" xmlns="http://www.w3.org/2000/svg">
<path d="M0.542236 12.8333C0.542236 13.1554 0.803141 13.4166 1.12557 13.4166C1.448 13.4166 1.7089 13.1554 1.7089 12.8333C1.7089 10.7748 2.89394 8.9524 4.7411 8.09061C5.38037 8.50603 6.14087 8.74992 6.95833 8.74992C7.77889 8.74992 8.54231 8.50439 9.18307 8.08605C9.73451 8.34635 10.2455 8.69658 10.6708 9.12162C11.6626 10.1137 12.2089 11.4319 12.2089 12.8333C12.2089 13.1554 12.4698 13.4166 12.7922 13.4166C13.1147 13.4166 13.3756 13.1554 13.3756 12.8333C13.3756 11.1203 12.7079 9.50928 11.4957 8.29675C11.0901 7.8909 10.6186 7.54291 10.1128 7.25602C10.6928 6.55081 11.0417 5.64875 11.0417 4.66658C11.0417 2.415 9.20963 0.583252 6.95833 0.583252C4.70703 0.583252 2.875 2.415 2.875 4.66658C2.875 5.64637 3.22246 6.54622 3.79985 7.25068C1.79738 8.37811 0.542236 10.4846 0.542236 12.8333ZM6.95833 1.74992C8.56649 1.74992 9.875 3.05843 9.875 4.66658C9.875 6.27474 8.56649 7.58325 6.95833 7.58325C5.35018 7.58325 4.04167 6.27474 4.04167 4.66658C4.04167 3.05843 5.35018 1.74992 6.95833 1.74992Z" fill="#AAAAAA"/>
</svg>
