<svg width="40" height="40" viewBox="0 0 40 40" fill="none" xmlns="http://www.w3.org/2000/svg">
<g clip-path="url(#clip0_3866_101)">
<path d="M37.1144 10.6953C37.1002 10.8307 37.0791 10.9651 37.0511 11.0982C36.9268 11.685 37.2012 12.2837 37.7272 12.572C38.5664 13.0171 39.179 13.7955 39.4147 14.7159C39.6552 15.6394 39.5038 16.6212 38.9964 17.4292C38.6819 17.9426 38.7376 18.6005 39.1339 19.0535C39.7663 19.7652 40.0742 20.7073 39.9848 21.6547C39.8932 22.6085 39.4153 23.4836 38.6624 24.076C38.1893 24.4499 38.0121 25.0867 38.2243 25.6514C38.5771 26.5378 38.5453 27.5312 38.1371 28.3937C37.7285 29.264 36.9818 29.9298 36.0706 30.2364C35.5008 30.435 35.1209 30.9751 35.1272 31.5789C35.1461 32.5326 34.7756 33.4533 34.1007 34.1279C33.4262 34.8028 32.5055 35.1733 31.5514 35.1544C30.948 35.1484 30.4078 35.528 30.2092 36.0977C29.9026 37.0093 29.2369 37.7556 28.3665 38.1642C27.5041 38.5725 26.5106 38.6043 25.6242 38.2514C25.0595 38.0392 24.4228 38.2165 24.0488 38.6896C23.4564 39.4425 22.5813 39.9203 21.6276 40.0119C20.6801 40.1016 19.738 39.7935 19.0263 39.1611C18.5733 38.7648 17.9155 38.7091 17.4021 39.0235C16.5941 39.531 15.6123 39.6824 14.6887 39.4419C13.7683 39.2061 12.9899 38.5936 12.5448 37.7544C12.2543 37.229 11.6537 36.9564 11.067 37.0839C10.9338 37.1119 10.7994 37.133 10.6641 37.1472L37.1144 10.6953Z" fill="#E64C3C"/>
<path d="M29.3346 2.91555L2.88434 29.3662C2.89819 29.2308 2.91865 29.0964 2.94635 28.9633C3.07068 28.3765 2.7962 27.7778 2.27022 27.4895C1.43104 27.0444 0.81849 26.266 0.58304 25.3456C0.34224 24.422 0.493645 23.4403 1.00106 22.6322C1.31552 22.1188 1.2598 21.461 0.863502 21.008C0.232384 20.296 -0.0748335 19.3539 0.0155061 18.4067C0.107105 17.4527 0.584929 16.5779 1.33786 15.9855C1.8116 15.6119 1.98913 14.9748 1.77729 14.4101C1.42474 13.5234 1.45622 12.5303 1.86479 11.6678C2.27305 10.7974 3.01969 10.1317 3.93096 9.82511C4.49975 9.62554 4.87811 9.08539 4.87181 8.48261C4.85292 7.52885 5.22341 6.60814 5.89828 5.93358C6.57284 5.25871 7.49323 4.88822 8.44731 4.90711C9.05324 4.91466 9.5956 4.53347 9.79359 3.9609C10.1011 3.0509 10.7669 2.30583 11.6366 1.89789C12.4987 1.489 13.4918 1.45658 14.3789 1.80849C14.9433 2.02065 15.5804 1.84375 15.9543 1.37064C16.5464 0.61708 17.4215 0.138626 18.3752 0.0470273C19.323 -0.0426827 20.2651 0.265164 20.9765 0.897542C21.4298 1.29384 22.0876 1.34955 22.6007 1.0351C23.4091 0.527684 24.3908 0.376279 25.3144 0.61708C26.2344 0.852529 27.0129 1.46508 27.4583 2.30426C27.7472 2.82898 28.3459 3.10252 28.9317 2.97756C29.0649 2.94986 29.1996 2.9294 29.3346 2.91555Z" fill="#E64C3C"/>
<path d="M13.9209 33.8884C19.6299 36.3896 26.2883 35.1346 30.6957 30.7275C35.1029 26.3203 36.3575 19.6617 33.8567 13.9526L13.9209 33.8884Z" fill="#C03A2B"/>
<path d="M6.14135 26.1088C3.64049 20.3994 4.89517 13.7411 9.30261 9.33394C13.7097 4.92681 20.3681 3.67182 26.0771 6.173L6.14135 26.1088Z" fill="#C03A2B"/>
<path d="M8.27615 23.9743C6.77248 19.5218 7.9236 14.6016 11.2467 11.2783C14.57 7.95523 19.4899 6.80411 23.9427 8.30809L8.27615 23.9743Z" fill="#D1D4D1"/>
<path d="M16.0566 31.7531C20.5091 33.2571 25.4293 32.106 28.7523 28.7826C32.0757 25.4596 33.2268 20.5394 31.7228 16.0869L16.0566 31.7531Z" fill="#D1D4D1"/>
<path d="M6.87213 37.7365C6.60269 37.7362 6.35842 37.5782 6.24731 37.333L3.81507 31.9844C3.69703 31.7237 3.75306 31.4168 3.95545 31.2147C4.15785 31.0124 4.46476 30.9566 4.72539 31.0747L10.0731 33.5082C10.3025 33.6064 10.4605 33.8211 10.4863 34.0688C10.5125 34.3168 10.402 34.5595 10.198 34.703C9.99404 34.8463 9.72838 34.868 9.50394 34.7597L5.82552 33.0848L7.49727 36.7642C7.59391 36.977 7.57628 37.224 7.44974 37.4208C7.32352 37.6172 7.10601 37.7362 6.87213 37.7365Z" fill="#1F2331"/>
<path d="M6.26372 36.3962C5.98766 36.3943 5.73962 36.2275 5.63386 35.9728C5.52778 35.7179 5.58444 35.4245 5.77771 35.2274L7.96632 33.0373C8.23608 32.7766 8.66511 32.7804 8.93015 33.0458C9.19551 33.3108 9.19928 33.7398 8.93865 34.0096L6.75067 36.1976C6.6213 36.326 6.44597 36.3978 6.26372 36.3962Z" fill="#1F2331"/>
<path d="M11.7343 32.8744C11.552 32.8744 11.377 32.802 11.2483 32.6729L9.31115 30.7358L9.30265 30.7276L9.2951 30.7194L7.84431 29.2693C7.5862 29.0112 7.44141 28.6615 7.44141 28.2966C7.44141 27.9318 7.5862 27.5818 7.84431 27.324L8.33064 26.8377C9.13614 26.0319 10.4424 26.0315 11.2486 26.8374C12.0544 27.6432 12.0544 28.9495 11.2489 29.7553L10.7619 30.2416L12.2212 31.7006C12.4176 31.8973 12.4765 32.1932 12.3701 32.4504C12.2634 32.7072 12.0125 32.8747 11.7343 32.8744ZM9.7896 27.6092C9.60704 27.6092 9.43202 27.6816 9.30265 27.8106L8.81664 28.297L9.78897 29.2693L10.2759 28.783C10.4723 28.5862 10.5312 28.2907 10.4248 28.0338C10.3184 27.777 10.0679 27.6092 9.7896 27.6092Z" fill="#1F2331"/>
<path d="M15.6238 28.9842C15.4415 28.9842 15.2665 28.9118 15.1374 28.7827L11.7338 25.3791C11.1968 24.8421 11.1968 23.9714 11.7338 23.4344L12.2208 22.9481C13.03 22.1665 14.3168 22.1776 15.1126 22.9733C15.9083 23.769 15.9193 25.0558 15.1374 25.8651L14.6514 26.3514L16.1098 27.8104C16.3065 28.0071 16.3654 28.3027 16.259 28.5599C16.1526 28.8167 15.9017 28.9842 15.6238 28.9842ZM13.6791 23.719C13.4968 23.719 13.3218 23.7917 13.1931 23.9205L12.7068 24.4068L13.6791 25.3791L14.1654 24.8928C14.3618 24.6964 14.4207 24.4005 14.3143 24.1436C14.2079 23.8868 13.957 23.719 13.6791 23.719Z" fill="#1F2331"/>
<path d="M19.5144 25.0943C19.3318 25.0943 19.1571 25.0219 19.0281 24.8929L15.6244 21.4892C15.0874 20.9522 15.0874 20.0816 15.6244 19.5446L16.1104 19.0586C16.8791 18.2883 18.1136 18.2477 18.9314 18.9654C19.7492 19.6831 19.8688 20.9126 19.205 21.7744H21.4581C21.838 21.7744 22.1459 22.0823 22.1459 22.4622C22.1459 22.8418 21.838 23.1497 21.4581 23.1497H19.2295L20.0004 23.9205C20.1971 24.1173 20.256 24.4132 20.1496 24.67C20.0432 24.9269 19.7923 25.0943 19.5144 25.0943ZM17.5691 19.8301C17.3868 19.8298 17.2118 19.9022 17.0828 20.0306L16.5968 20.5169L17.5697 21.4899L18.0557 21.0029C18.2521 20.8062 18.3104 20.5106 18.204 20.2541C18.0976 19.9972 17.847 19.8301 17.5691 19.8301Z" fill="#1F2331"/>
<path d="M23.4027 20.6336C22.8556 20.6345 22.3306 20.4177 21.9441 20.0305L19.9994 18.0852C19.1942 17.2797 19.1942 15.974 19.9994 15.1685C20.8156 14.3885 22.1008 14.3885 22.917 15.1685L24.8617 17.1122C25.6653 17.919 25.6653 19.2234 24.8617 20.0299C24.4751 20.4173 23.9498 20.6345 23.4027 20.6336ZM21.458 15.9391C21.1798 15.9394 20.9292 16.1068 20.8228 16.3637C20.7164 16.6205 20.7753 16.9164 20.9717 17.1129L22.9164 19.0585C23.1849 19.3267 23.6202 19.3267 23.8887 19.0585C24.0178 18.9294 24.0905 18.7544 24.0905 18.5718C24.0905 18.3893 24.0178 18.2142 23.8887 18.0852L21.9441 16.1408C21.8156 16.0111 21.6403 15.9384 21.458 15.9391Z" fill="#1F2331"/>
<path d="M28.2663 16.3423C28.1414 16.342 28.0192 16.3083 27.9122 16.2444L23.0506 13.3268C22.84 13.2006 22.7125 12.9714 22.7169 12.7256C22.721 12.4801 22.8557 12.2553 23.0707 12.136C23.2854 12.0167 23.5473 12.0211 23.7582 12.1477L26.2609 13.6501L24.7591 11.1464C24.5637 10.8209 24.6691 10.3982 24.9949 10.2027C25.3204 10.0072 25.7431 10.1127 25.9386 10.4381L28.8556 15.3011C28.9828 15.5135 28.9859 15.778 28.8641 15.9933C28.742 16.2089 28.5138 16.342 28.2663 16.3423Z" fill="#1F2331"/>
<path d="M31.1831 13.4254C31.0005 13.4254 30.8258 13.3527 30.6968 13.2239L26.8068 9.33334C26.5383 9.06484 26.5383 8.62951 26.8068 8.36101L28.7515 6.41572C29.0213 6.15508 29.4503 6.15886 29.7153 6.4239C29.9807 6.68925 29.9845 7.11797 29.7238 7.38805L28.2655 8.84639L31.1878 11.7687L32.6663 10.3208C32.9377 10.0548 33.373 10.0592 33.639 10.3305C33.9046 10.6019 33.9002 11.0375 33.6289 11.3032L31.6644 13.2287C31.5357 13.3546 31.3628 13.4254 31.1831 13.4254Z" fill="#1F2331"/>
<path d="M29.2381 11.4801C28.9601 11.4801 28.7096 11.3123 28.6032 11.0555C28.4968 10.7986 28.5553 10.503 28.7521 10.3063L30.2114 8.84766C30.3839 8.66919 30.6394 8.59742 30.8799 8.66037C31.1204 8.72333 31.308 8.91093 31.371 9.15142C31.4339 9.3919 31.3622 9.6475 31.1837 9.81999L29.7244 11.2786C29.5953 11.4074 29.4206 11.4801 29.2381 11.4801Z" fill="#1F2331"/>
<path d="M35.0718 9.53479C34.8896 9.53479 34.7145 9.46208 34.5858 9.33334L30.6965 5.44402C30.428 5.17552 30.428 4.74019 30.6965 4.47169L31.1828 3.98568C32.2568 2.91168 33.9978 2.91168 35.0718 3.98568L36.0441 4.95769C37.1178 6.03201 37.1178 7.77302 36.0441 8.84702L35.5581 9.33334C35.4291 9.46208 35.2544 9.53479 35.0718 9.53479ZM32.1548 4.95769L35.0718 7.87469C35.6088 7.33769 35.6088 6.46734 35.0718 5.93002L34.0995 4.95769C33.5552 4.43895 32.6994 4.43895 32.1548 4.95769Z" fill="#1F2331"/>
</g>
<defs>
<clipPath id="clip0_3866_101">
<rect width="40" height="40" fill="white"/>
</clipPath>
</defs>
</svg>
