<svg width="17" height="17" viewBox="0 0 17 17" fill="none" xmlns="http://www.w3.org/2000/svg">
<g clip-path="url(#clip0_6354_28256)">
<path d="M4.95833 0H2.83333C2.08189 0 1.36122 0.298511 0.829864 0.829864C0.298511 1.36122 0 2.08189 0 2.83333L0 4.95833C0 5.70978 0.298511 6.43045 0.829864 6.9618C1.36122 7.49316 2.08189 7.79167 2.83333 7.79167H4.95833C5.70978 7.79167 6.43045 7.49316 6.9618 6.9618C7.49316 6.43045 7.79167 5.70978 7.79167 4.95833V2.83333C7.79167 2.08189 7.49316 1.36122 6.9618 0.829864C6.43045 0.298511 5.70978 0 4.95833 0V0ZM6.375 4.95833C6.375 5.33406 6.22574 5.69439 5.96007 5.96007C5.69439 6.22574 5.33406 6.375 4.95833 6.375H2.83333C2.45761 6.375 2.09728 6.22574 1.8316 5.96007C1.56592 5.69439 1.41667 5.33406 1.41667 4.95833V2.83333C1.41667 2.45761 1.56592 2.09728 1.8316 1.8316C2.09728 1.56592 2.45761 1.41667 2.83333 1.41667H4.95833C5.33406 1.41667 5.69439 1.56592 5.96007 1.8316C6.22574 2.09728 6.375 2.45761 6.375 2.83333V4.95833Z" fill="white"/>
<path d="M4.95834 9.20837H2.83334C2.08189 9.20837 1.36122 9.50689 0.829865 10.0382C0.298511 10.5696 0 11.2903 0 12.0417L0 14.1667C0 14.9182 0.298511 15.6388 0.829865 16.1702C1.36122 16.7015 2.08189 17 2.83334 17H4.95834C5.70978 17 6.43045 16.7015 6.96181 16.1702C7.49316 15.6388 7.79167 14.9182 7.79167 14.1667V12.0417C7.79167 11.2903 7.49316 10.5696 6.96181 10.0382C6.43045 9.50689 5.70978 9.20837 4.95834 9.20837ZM6.375 14.1667C6.375 14.5424 6.22575 14.9028 5.96007 15.1684C5.69439 15.4341 5.33406 15.5834 4.95834 15.5834H2.83334C2.45761 15.5834 2.09728 15.4341 1.8316 15.1684C1.56592 14.9028 1.41667 14.5424 1.41667 14.1667V12.0417C1.41667 11.666 1.56592 11.3057 1.8316 11.04C2.09728 10.7743 2.45761 10.625 2.83334 10.625H4.95834C5.33406 10.625 5.69439 10.7743 5.96007 11.04C6.22575 11.3057 6.375 11.666 6.375 12.0417V14.1667Z" fill="white"/>
<path d="M14.1667 9.20837H12.0416C11.2902 9.20837 10.5695 9.50689 10.0382 10.0382C9.50682 10.5696 9.20831 11.2903 9.20831 12.0417V14.1667C9.20831 14.9182 9.50682 15.6388 10.0382 16.1702C10.5695 16.7015 11.2902 17 12.0416 17H14.1667C14.9181 17 15.6388 16.7015 16.1701 16.1702C16.7015 15.6388 17 14.9182 17 14.1667V12.0417C17 11.2903 16.7015 10.5696 16.1701 10.0382C15.6388 9.50689 14.9181 9.20837 14.1667 9.20837ZM15.5833 14.1667C15.5833 14.5424 15.4341 14.9028 15.1684 15.1684C14.9027 15.4341 14.5424 15.5834 14.1667 15.5834H12.0416C11.6659 15.5834 11.3056 15.4341 11.0399 15.1684C10.7742 14.9028 10.625 14.5424 10.625 14.1667V12.0417C10.625 11.666 10.7742 11.3057 11.0399 11.04C11.3056 10.7743 11.6659 10.625 12.0416 10.625H14.1667C14.5424 10.625 14.9027 10.7743 15.1684 11.04C15.4341 11.3057 15.5833 11.666 15.5833 12.0417V14.1667Z" fill="white"/>
<path d="M9.91665 4.95837H12.0416V7.08337C12.0416 7.27124 12.1163 7.4514 12.2491 7.58424C12.382 7.71708 12.5621 7.79171 12.75 7.79171C12.9378 7.79171 13.118 7.71708 13.2508 7.58424C13.3837 7.4514 13.4583 7.27124 13.4583 7.08337V4.95837H15.5833C15.7712 4.95837 15.9513 4.88375 16.0842 4.75091C16.217 4.61807 16.2916 4.4379 16.2916 4.25004C16.2916 4.06218 16.217 3.88201 16.0842 3.74917C15.9513 3.61634 15.7712 3.54171 15.5833 3.54171H13.4583V1.41671C13.4583 1.22885 13.3837 1.04868 13.2508 0.91584C13.118 0.783002 12.9378 0.708374 12.75 0.708374C12.5621 0.708374 12.382 0.783002 12.2491 0.91584C12.1163 1.04868 12.0416 1.22885 12.0416 1.41671V3.54171H9.91665C9.72878 3.54171 9.54862 3.61634 9.41578 3.74917C9.28294 3.88201 9.20831 4.06218 9.20831 4.25004C9.20831 4.4379 9.28294 4.61807 9.41578 4.75091C9.54862 4.88375 9.72878 4.95837 9.91665 4.95837Z" fill="white"/>
</g>
<defs>
<clipPath id="clip0_6354_28256">
<rect width="17" height="17" fill="white"/>
</clipPath>
</defs>
</svg>
