<svg width="14" height="14" viewBox="0 0 14 14" fill="none" xmlns="http://www.w3.org/2000/svg">
<g clip-path="url(#clip0_277_9530)">
<path d="M11.375 7C11.3752 7.1908 11.3348 7.37946 11.2563 7.55338C11.1779 7.7273 11.0632 7.88249 10.92 8.00858L4.41467 13.7317C4.1991 13.9126 3.92131 14.0019 3.64071 13.9807C3.3601 13.9594 3.09895 13.8292 2.9131 13.6179C2.72725 13.4066 2.63144 13.131 2.64617 12.8499C2.6609 12.5689 2.78499 12.3048 2.99191 12.1141L8.68058 7.10966C8.6962 7.09598 8.70871 7.07911 8.71728 7.0602C8.72585 7.04129 8.73029 7.02076 8.73029 7C8.73029 6.97923 8.72585 6.95871 8.71728 6.9398C8.70871 6.92088 8.6962 6.90402 8.68058 6.89033L2.99192 1.88591C2.88191 1.79361 2.79147 1.68025 2.72591 1.55249C2.66035 1.42474 2.62098 1.28516 2.61013 1.14197C2.59928 0.998786 2.61716 0.854875 2.66273 0.718698C2.70829 0.58252 2.78062 0.456825 2.87546 0.348999C2.9703 0.241175 3.08573 0.153396 3.21498 0.0908225C3.34423 0.028249 3.48468 -0.00785706 3.62808 -0.015372C3.77148 -0.0228879 3.91494 -0.001661 4.05002 0.0470594C4.1851 0.0957788 4.30908 0.171009 4.41467 0.26833L10.9177 5.98966C11.0612 6.11598 11.1762 6.2714 11.2551 6.4456C11.3339 6.6198 11.3748 6.80878 11.375 7Z" fill="#6F7897"/>
</g>
<defs>
<clipPath id="clip0_277_9530">
<rect width="14" height="14" fill="white" transform="translate(14 14) rotate(-180)"/>
</clipPath>
</defs>
</svg>
