<svg width="12" height="12" viewBox="0 0 12 12" fill="none" xmlns="http://www.w3.org/2000/svg">
<g clip-path="url(#clip0_7257_31785)">
<path d="M11.25 4.75H10.319C10.2264 4.4301 10.0985 4.12152 9.9375 3.83L10.596 3.172C10.6657 3.10235 10.721 3.01965 10.7587 2.92862C10.7964 2.8376 10.8158 2.74003 10.8158 2.6415C10.8158 2.54297 10.7964 2.4454 10.7587 2.35438C10.721 2.26335 10.6657 2.18065 10.596 2.111L9.8885 1.4045C9.74785 1.2639 9.55712 1.18491 9.35825 1.18491C9.15938 1.18491 8.96865 1.2639 8.828 1.4045L8.169 2.063C7.87788 1.9019 7.56962 1.77393 7.25 1.6815V0.75C7.25 0.551088 7.17098 0.360322 7.03033 0.21967C6.88968 0.0790176 6.69891 0 6.5 0L5.5 0C5.30109 0 5.11032 0.0790176 4.96967 0.21967C4.82902 0.360322 4.75 0.551088 4.75 0.75V1.6815C4.43029 1.77415 4.12189 1.9021 3.8305 2.063L3.1715 1.4045C3.03085 1.2639 2.84012 1.18491 2.64125 1.18491C2.44238 1.18491 2.25165 1.2639 2.111 1.4045L1.4035 2.1115C1.3338 2.18115 1.27852 2.26385 1.2408 2.35488C1.20308 2.4459 1.18366 2.54347 1.18366 2.642C1.18366 2.74053 1.20308 2.8381 1.2408 2.92912C1.27852 3.02015 1.3338 3.10285 1.4035 3.1725L2.0625 3.831C1.90129 4.12207 1.77332 4.43034 1.681 4.75H0.75C0.551088 4.75 0.360322 4.82902 0.21967 4.96967C0.0790176 5.11032 0 5.30109 0 5.5L0 6.5C0 6.69891 0.0790176 6.88968 0.21967 7.03033C0.360322 7.17098 0.551088 7.25 0.75 7.25H1.681C1.77329 7.56983 1.90126 7.87827 2.0625 8.1695L1.403 8.829C1.2624 8.96965 1.18341 9.16038 1.18341 9.35925C1.18341 9.55812 1.2624 9.74885 1.403 9.8895L2.11 10.5965C2.25341 10.732 2.44322 10.8075 2.6405 10.8075C2.83778 10.8075 3.02759 10.732 3.171 10.5965L3.83 9.938C4.12154 10.0991 4.43011 10.2272 4.75 10.32V11.25C4.75 11.4489 4.82902 11.6397 4.96967 11.7803C5.11032 11.921 5.30109 12 5.5 12H6.5C6.69891 12 6.88968 11.921 7.03033 11.7803C7.17098 11.6397 7.25 11.4489 7.25 11.25V10.32C7.56971 10.2274 7.87812 10.0994 8.1695 9.9385L8.8285 10.597C8.96914 10.7376 9.15988 10.8166 9.35875 10.8166C9.55762 10.8166 9.74835 10.7376 9.889 10.597L10.596 9.89C10.7366 9.74935 10.8156 9.55862 10.8156 9.35975C10.8156 9.16088 10.7366 8.97015 10.596 8.8295L9.9375 8.171C10.0987 7.87956 10.2266 7.57096 10.319 7.251H11.25C11.3486 7.251 11.4462 7.23157 11.5372 7.19381C11.6283 7.15606 11.711 7.10073 11.7807 7.03098C11.8503 6.96123 11.9056 6.87843 11.9432 6.78732C11.9808 6.69621 12.0001 6.59858 12 6.5V5.5C12 5.30109 11.921 5.11032 11.7803 4.96967C11.6397 4.82902 11.4489 4.75 11.25 4.75ZM6 8.5C5.50555 8.5 5.0222 8.35338 4.61107 8.07867C4.19995 7.80397 3.87952 7.41352 3.6903 6.95671C3.50108 6.49989 3.45157 5.99723 3.54804 5.51227C3.6445 5.02732 3.8826 4.58186 4.23223 4.23223C4.58186 3.8826 5.02732 3.6445 5.51227 3.54804C5.99723 3.45157 6.49989 3.50108 6.95671 3.6903C7.41352 3.87952 7.80397 4.19995 8.07867 4.61107C8.35338 5.0222 8.5 5.50555 8.5 6C8.49921 6.6628 8.23556 7.29822 7.76689 7.76689C7.29822 8.23556 6.6628 8.49921 6 8.5Z" fill="#1877F2"/>
</g>
<defs>
<clipPath id="clip0_7257_31785">
<rect width="12" height="12" fill="white"/>
</clipPath>
</defs>
</svg>
