<svg width="24" height="24" viewBox="0 0 24 24" fill="none" xmlns="http://www.w3.org/2000/svg">
<path fill-rule="evenodd" clip-rule="evenodd" d="M8.00002 5C8.40372 5 8.76782 5.24274 8.92309 5.61538L13.9231 17.6154C14.1355 18.1252 13.8944 18.7107 13.3846 18.9231C12.8748 19.1355 12.2894 18.8944 12.0769 18.3846L10.6667 15H5.33335L3.92309 18.3846C3.71068 18.8944 3.1252 19.1355 2.6154 18.9231C2.1056 18.7107 1.86452 18.1252 2.07694 17.6154L7.07694 5.61538C7.23221 5.24274 7.59632 5 8.00002 5ZM8.00002 8.6L9.83335 13L6.16668 13L8.00002 8.6ZM18.1718 13.3438L15.3438 16.8018C15.0078 17.2124 14.8398 17.6791 14.8398 18.2018C14.8398 18.4164 14.9191 18.6031 15.0778 18.7618C15.2364 18.9204 15.4231 18.9998 15.6378 18.9998H20.2018C20.4164 18.9998 20.6031 18.9204 20.7618 18.7618C20.9204 18.6031 20.9998 18.4164 20.9998 18.2018C20.9998 17.9871 20.9204 17.8051 20.7618 17.6558C20.6031 17.4971 20.4164 17.4178 20.2018 17.4178H17.6818C17.6724 17.4178 17.6678 17.4131 17.6678 17.4038V17.3758L20.4958 13.9178C20.8318 13.5071 20.9998 13.0404 20.9998 12.5178C20.9998 12.3031 20.9204 12.1164 20.7618 11.9578C20.6031 11.7991 20.4164 11.7198 20.2018 11.7198H15.6378C15.4231 11.7198 15.2364 11.7991 15.0778 11.9578C14.9191 12.1164 14.8398 12.3031 14.8398 12.5178C14.8398 12.7324 14.9191 12.9191 15.0778 13.0778C15.2364 13.2271 15.4231 13.3018 15.6378 13.3018H18.1578C18.1671 13.3018 18.1718 13.3064 18.1718 13.3158V13.3438Z" fill="#A5A5A9"/>
</svg>
