<svg width="20" height="20" viewBox="0 0 20 20" fill="none" xmlns="http://www.w3.org/2000/svg">
<g clip-path="url(#clip0_9880_597)">
<path d="M9.47593 20C9.19427 19.9996 8.91611 19.9376 8.66093 19.8183C8.18762 19.582 7.81494 19.1835 7.61075 18.6954C7.40656 18.2073 7.38445 17.6622 7.54843 17.1592L8.42927 13.3333H6.1751C5.73131 13.3335 5.29366 13.2297 4.89722 13.0302C4.50078 12.8307 4.15659 12.5412 3.89224 12.1847C3.62789 11.8282 3.45073 11.4148 3.37496 10.9775C3.29919 10.5402 3.32693 10.0913 3.45594 9.66667L5.86677 2C6.04364 1.41842 6.40366 0.909541 6.89319 0.549151C7.38271 0.188762 7.97557 -0.00385068 8.58344 3.32324e-06H11.6451C12.0526 -6.1396e-05 12.4539 0.0986079 12.8149 0.287565C13.1759 0.476522 13.4857 0.750139 13.7179 1.08499C13.95 1.41985 14.0976 1.80597 14.1479 2.2103C14.1982 2.61464 14.1498 3.02514 14.0068 3.40667L13.0709 5.83334H13.8209C14.3322 5.83313 14.8341 5.97097 15.2736 6.2323C15.7131 6.49362 16.0739 6.86875 16.3179 7.31808C16.5618 7.76742 16.68 8.27429 16.6599 8.7852C16.6397 9.29611 16.482 9.79211 16.2034 10.2208C16.2034 10.2208 11.2409 18.9817 11.2243 19.0067C11.0377 19.3039 10.7803 19.5502 10.4752 19.7235C10.1701 19.8969 9.82676 19.9919 9.47593 20ZM8.58344 2.5C8.51012 2.4998 8.4387 2.5233 8.37983 2.567C8.32096 2.61071 8.27779 2.67227 8.25677 2.7425L5.84677 10.4092C5.83297 10.4584 5.8309 10.5103 5.84074 10.5605C5.85058 10.6107 5.87206 10.6579 5.90344 10.6983C5.93481 10.7407 5.9758 10.7751 6.02302 10.7985C6.07025 10.822 6.12237 10.8339 6.1751 10.8333H10.0001C10.1881 10.8334 10.3736 10.8759 10.5429 10.9576C10.7122 11.0393 10.8609 11.1581 10.9779 11.3053C11.0949 11.4524 11.1772 11.624 11.2187 11.8073C11.2602 11.9907 11.2598 12.181 11.2176 12.3642L10.5984 15.05C10.5984 15.05 14.0859 8.89334 14.1051 8.86584C14.1399 8.81462 14.1601 8.75487 14.1636 8.69302C14.167 8.63118 14.1535 8.56956 14.1245 8.51481C14.0956 8.46005 14.0522 8.41423 13.9992 8.38225C13.9461 8.35028 13.8854 8.33337 13.8234 8.33334H11.2501C11.0472 8.33336 10.8473 8.28399 10.6677 8.18948C10.4882 8.09496 10.3343 7.95816 10.2195 7.79088C10.1046 7.62359 10.0322 7.43086 10.0085 7.22934C9.9848 7.02781 10.0105 6.82354 10.0834 6.63417L11.6668 2.51917L8.58344 2.5Z" fill="#FFC542"/>
</g>
<defs>
<clipPath id="clip0_9880_597">
<rect width="20" height="20" fill="white"/>
</clipPath>
</defs>
</svg>
