<svg width="27" height="27" viewBox="0 0 27 27" fill="none" xmlns="http://www.w3.org/2000/svg">
<path d="M9.75 26H17.25C23.5 26 26 23.5 26 17.25V9.75C26 3.5 23.5 1 17.25 1H9.75C3.5 1 1 3.5 1 9.75V17.25C1 23.5 3.5 26 9.75 26Z" stroke="white" stroke-width="1.5" stroke-linecap="round" stroke-linejoin="round"/>
<path d="M17.9629 21.625V16.75" stroke="white" stroke-width="1.5" stroke-miterlimit="10" stroke-linecap="round" stroke-linejoin="round"/>
<path d="M17.9629 7.81262V5.37512" stroke="white" stroke-width="1.5" stroke-miterlimit="10" stroke-linecap="round" stroke-linejoin="round"/>
<path d="M17.9628 14.3125C19.7577 14.3125 21.2128 12.8574 21.2128 11.0625C21.2128 9.26758 19.7577 7.8125 17.9628 7.8125C16.1678 7.8125 14.7128 9.26758 14.7128 11.0625C14.7128 12.8574 16.1678 14.3125 17.9628 14.3125Z" stroke="white" stroke-width="1.5" stroke-miterlimit="10" stroke-linecap="round" stroke-linejoin="round"/>
<path d="M9.03833 21.625V19.1875" stroke="white" stroke-width="1.5" stroke-miterlimit="10" stroke-linecap="round" stroke-linejoin="round"/>
<path d="M9.03833 10.2501V5.37512" stroke="white" stroke-width="1.5" stroke-miterlimit="10" stroke-linecap="round" stroke-linejoin="round"/>
<path d="M9.03821 19.1875C10.8331 19.1875 12.2882 17.7324 12.2882 15.9375C12.2882 14.1426 10.8331 12.6875 9.03821 12.6875C7.24328 12.6875 5.78821 14.1426 5.78821 15.9375C5.78821 17.7324 7.24328 19.1875 9.03821 19.1875Z" stroke="white" stroke-width="1.5" stroke-miterlimit="10" stroke-linecap="round" stroke-linejoin="round"/>
</svg>
