<svg width="27" height="27" viewBox="0 0 27 27" fill="none" xmlns="http://www.w3.org/2000/svg">
<path d="M9.75 26H17.25C23.5 26 26 23.5 26 17.25V9.75C26 3.5 23.5 1 17.25 1H9.75C3.5 1 1 3.5 1 9.75V17.25C1 23.5 3.5 26 9.75 26Z" stroke="#757B8C" stroke-width="1.5" stroke-linecap="round" stroke-linejoin="round"/>
<path d="M17.9629 21.625V16.75" stroke="#757B8C" stroke-width="1.5" stroke-miterlimit="10" stroke-linecap="round" stroke-linejoin="round"/>
<path d="M17.9629 7.81262V5.37512" stroke="#757B8C" stroke-width="1.5" stroke-miterlimit="10" stroke-linecap="round" stroke-linejoin="round"/>
<path d="M17.9629 14.3125C19.7578 14.3125 21.2129 12.8574 21.2129 11.0625C21.2129 9.26758 19.7578 7.8125 17.9629 7.8125C16.168 7.8125 14.7129 9.26758 14.7129 11.0625C14.7129 12.8574 16.168 14.3125 17.9629 14.3125Z" stroke="#757B8C" stroke-width="1.5" stroke-miterlimit="10" stroke-linecap="round" stroke-linejoin="round"/>
<path d="M9.03809 21.625V19.1875" stroke="#757B8C" stroke-width="1.5" stroke-miterlimit="10" stroke-linecap="round" stroke-linejoin="round"/>
<path d="M9.03809 10.2501V5.37512" stroke="#757B8C" stroke-width="1.5" stroke-miterlimit="10" stroke-linecap="round" stroke-linejoin="round"/>
<path d="M9.03809 19.1875C10.833 19.1875 12.2881 17.7324 12.2881 15.9375C12.2881 14.1426 10.833 12.6875 9.03809 12.6875C7.24316 12.6875 5.78809 14.1426 5.78809 15.9375C5.78809 17.7324 7.24316 19.1875 9.03809 19.1875Z" stroke="#757B8C" stroke-width="1.5" stroke-miterlimit="10" stroke-linecap="round" stroke-linejoin="round"/>
</svg>
