<svg width="20" height="20" viewBox="0 0 20 20" fill="none" xmlns="http://www.w3.org/2000/svg">
<path d="M16.9231 2.38464H3.07692C1.92987 2.38464 1 3.31451 1 4.46157V16.9231C1 18.0702 1.92987 19 3.07692 19H16.9231C18.0701 19 19 18.0702 19 16.9231V4.46157C19 3.31451 18.0701 2.38464 16.9231 2.38464Z" stroke="#EE5555" stroke-width="1.38462" stroke-linejoin="round"/>
<path d="M11.7308 10C12.3043 10 12.7692 9.53508 12.7692 8.96156C12.7692 8.38803 12.3043 7.9231 11.7308 7.9231C11.1572 7.9231 10.6923 8.38803 10.6923 8.96156C10.6923 9.53508 11.1572 10 11.7308 10Z" fill="#EE5555"/>
<path d="M15.1923 10C15.7658 10 16.2308 9.53508 16.2308 8.96156C16.2308 8.38803 15.7658 7.9231 15.1923 7.9231C14.6188 7.9231 14.1538 8.38803 14.1538 8.96156C14.1538 9.53508 14.6188 10 15.1923 10Z" fill="#EE5555"/>
<path d="M11.7308 13.4616C12.3043 13.4616 12.7692 12.9966 12.7692 12.4231C12.7692 11.8496 12.3043 11.3846 11.7308 11.3846C11.1572 11.3846 10.6923 11.8496 10.6923 12.4231C10.6923 12.9966 11.1572 13.4616 11.7308 13.4616Z" fill="#EE5555"/>
<path d="M15.1923 13.4616C15.7658 13.4616 16.2308 12.9966 16.2308 12.4231C16.2308 11.8496 15.7658 11.3846 15.1923 11.3846C14.6188 11.3846 14.1538 11.8496 14.1538 12.4231C14.1538 12.9966 14.6188 13.4616 15.1923 13.4616Z" fill="#EE5555"/>
<path d="M4.80769 13.4616C5.38122 13.4616 5.84615 12.9966 5.84615 12.4231C5.84615 11.8496 5.38122 11.3846 4.80769 11.3846C4.23416 11.3846 3.76923 11.8496 3.76923 12.4231C3.76923 12.9966 4.23416 13.4616 4.80769 13.4616Z" fill="#EE5555"/>
<path d="M8.26923 13.4616C8.84276 13.4616 9.30769 12.9966 9.30769 12.4231C9.30769 11.8496 8.84276 11.3846 8.26923 11.3846C7.69571 11.3846 7.23077 11.8496 7.23077 12.4231C7.23077 12.9966 7.69571 13.4616 8.26923 13.4616Z" fill="#EE5555"/>
<path d="M4.80769 16.9231C5.38122 16.9231 5.84615 16.4581 5.84615 15.8846C5.84615 15.3111 5.38122 14.8461 4.80769 14.8461C4.23416 14.8461 3.76923 15.3111 3.76923 15.8846C3.76923 16.4581 4.23416 16.9231 4.80769 16.9231Z" fill="#EE5555"/>
<path d="M8.26923 16.9231C8.84276 16.9231 9.30769 16.4581 9.30769 15.8846C9.30769 15.3111 8.84276 14.8461 8.26923 14.8461C7.69571 14.8461 7.23077 15.3111 7.23077 15.8846C7.23077 16.4581 7.69571 16.9231 8.26923 16.9231Z" fill="#EE5555"/>
<path d="M11.7308 16.9231C12.3043 16.9231 12.7692 16.4581 12.7692 15.8846C12.7692 15.3111 12.3043 14.8461 11.7308 14.8461C11.1572 14.8461 10.6923 15.3111 10.6923 15.8846C10.6923 16.4581 11.1572 16.9231 11.7308 16.9231Z" fill="#EE5555"/>
<path d="M15.5385 1V2.38462M4.46154 1V2.38462V1Z" stroke="#EE5555" stroke-width="1.38462" stroke-linecap="round" stroke-linejoin="round"/>
<path d="M19 5.84613H1" stroke="#EE5555" stroke-width="1.38462" stroke-linejoin="round"/>
</svg>
