<svg width="24" height="24" viewBox="0 0 24 24" fill="none" xmlns="http://www.w3.org/2000/svg">
<path d="M16.4503 15.563C15.6744 16.239 14.7063 17.0803 12.9457 17.0803H11.8959C10.6233 17.0803 9.46624 16.627 8.63825 15.804C7.82942 15.0003 7.38393 13.9001 7.38393 12.7058V11.2941C7.38393 10.0998 7.82942 8.99956 8.63825 8.19587C9.46624 7.37292 10.6233 6.91956 11.8959 6.91956H12.9457C14.7063 6.91956 15.6735 7.76088 16.4503 8.43689C17.256 9.13799 17.9521 9.74322 19.8062 9.74322C20.089 9.74328 20.3714 9.72111 20.6506 9.67692C20.6506 9.67154 20.6469 9.66661 20.6446 9.66124C20.5335 9.39052 20.4031 9.12781 20.2544 8.87502L19.0147 6.76724C18.4557 5.81716 17.6518 5.02819 16.6838 4.47962C15.7158 3.93105 14.6177 3.6422 13.4999 3.64209H11.02C9.90218 3.6422 8.80409 3.93105 7.83605 4.47962C6.86802 5.02819 6.06414 5.81716 5.50519 6.76724L4.26548 8.87502C3.70663 9.82513 3.41241 10.9029 3.41241 11.9999C3.41241 13.097 3.70663 14.1748 4.26548 15.1249L5.50519 17.2327C6.06416 18.1827 6.86806 18.9716 7.8361 19.5201C8.80414 20.0686 9.90222 20.3573 11.02 20.3574H13.4999C14.6176 20.3573 15.7157 20.0686 16.6838 19.5201C17.6518 18.9716 18.4557 18.1827 19.0147 17.2327L20.2544 15.1249C20.4031 14.8721 20.5335 14.6094 20.6446 14.3387C20.6446 14.3333 20.6488 14.3284 20.6506 14.323C20.3714 14.2788 20.089 14.2566 19.8062 14.2567C17.9521 14.2567 17.256 14.8619 16.4503 15.563Z" fill="white"/>
<path d="M12.9458 8.19812H11.896C9.95971 8.19812 8.68713 9.55552 8.68713 11.2933V12.7049C8.68713 14.4426 9.95971 15.8 11.896 15.8H12.9458C15.7675 15.8 15.5475 12.9777 19.8062 12.9777C20.2099 12.9774 20.6128 13.0135 21.0098 13.0857C21.139 12.3676 21.139 11.6328 21.0098 10.9147C20.6129 10.9872 20.21 11.0235 19.8062 11.0231C15.5462 11.0227 15.7675 8.19812 12.9458 8.19812Z" fill="white"/>
<path d="M23.4573 14.1174C22.7314 13.5967 21.8945 13.2444 21.0098 13.087C21.0098 13.0942 21.0075 13.1014 21.0062 13.1081C20.9302 13.5245 20.8111 13.9322 20.6506 14.3248C21.3816 14.4358 22.0751 14.7159 22.674 15.142C22.674 15.1482 22.6704 15.1545 22.6681 15.1612C22.3287 16.2431 21.8157 17.2649 21.1486 18.1883C20.4891 19.1031 19.6883 19.9114 18.775 20.5841C16.5643 22.2164 13.8049 22.9645 11.054 22.6775C8.3031 22.3905 5.76562 21.0897 3.95394 19.0378C2.14226 16.9859 1.19136 14.3357 1.29324 11.6224C1.39512 8.90914 2.5422 6.33486 4.50285 4.41939C5.83482 3.11309 7.48809 2.16672 9.30237 1.67203C11.1166 1.17734 13.0304 1.15112 14.858 1.59591C16.6856 2.0407 18.3652 2.94141 19.7338 4.21071C21.1024 5.48001 22.1136 7.07484 22.6695 8.84057C22.6717 8.84729 22.6736 8.85356 22.6754 8.85984C22.0761 9.28591 21.382 9.56586 20.6506 9.67652C20.811 10.0695 20.9303 10.4775 21.0066 10.8941C21.0066 10.9009 21.0066 10.9076 21.0098 10.9139C21.8947 10.7569 22.7316 10.4046 23.4573 9.88349C24.1552 9.37681 24.0201 8.80429 23.9137 8.46561C22.376 3.56239 17.7252 0 12.2264 0C5.47417 0 0 5.37271 0 11.9998C0 18.6268 5.47417 24 12.2264 24C17.7252 24 22.376 20.4376 23.9114 15.5357C24.0201 15.1971 24.1552 14.6245 23.4573 14.1174Z" fill="white"/>
</svg>
