<svg width="150" height="150" viewBox="0 0 150 150" fill="none" xmlns="http://www.w3.org/2000/svg">
<g filter="url(#filter0_f_1098_3884)">
<path d="M132 75C132 106.48 106.48 132 75 132C43.5198 132 18 106.48 18 75C18 43.5198 43.5198 18 75 18C106.48 18 132 43.5198 132 75ZM23.7 75C23.7 103.332 46.6678 126.3 75 126.3C103.332 126.3 126.3 103.332 126.3 75C126.3 46.6678 103.332 23.7 75 23.7C46.6678 23.7 23.7 46.6678 23.7 75Z" fill="#3C4254"/>
<path d="M38.1212 31.5379C48.0963 23.0737 60.6795 18.2984 73.7587 18.0135C86.8379 17.7286 99.617 21.9514 109.951 29.9732L106.456 34.4759C97.1553 27.2563 85.6541 23.4558 73.8828 23.7122C62.1115 23.9686 50.7867 28.2663 41.8091 35.8841L38.1212 31.5379Z" fill="#A461D8"/>
<path d="M21.0497 93.3948C17.1855 82.0613 16.9886 69.7988 20.4869 58.3471C23.9852 46.8954 31.001 36.8363 40.5389 29.597L43.985 34.1373C35.4009 40.6527 29.0867 49.7059 25.9382 60.0124C22.7897 70.3189 22.967 81.3552 26.4448 91.5553L21.0497 93.3948Z" fill="#0062FF"/>
<path d="M109.721 29.7953C116.95 35.3478 122.742 42.5529 126.611 50.8063C130.48 59.0596 132.313 68.1205 131.956 77.2288C131.6 86.337 129.064 95.2269 124.562 103.153C120.06 111.079 113.723 117.809 106.082 122.78L102.974 118.002C109.851 113.528 115.554 107.471 119.606 100.337C123.658 93.2042 125.94 85.2033 126.261 77.0059C126.582 68.8085 124.932 60.6537 121.45 53.2256C117.968 45.7976 112.755 39.313 106.249 34.3158L109.721 29.7953Z" fill="#FC5A5A"/>
</g>
<path d="M132 75C132 106.48 106.48 132 75 132C43.5198 132 18 106.48 18 75C18 43.5198 43.5198 18 75 18C106.48 18 132 43.5198 132 75ZM23.7 75C23.7 103.332 46.6678 126.3 75 126.3C103.332 126.3 126.3 103.332 126.3 75C126.3 46.6678 103.332 23.7 75 23.7C46.6678 23.7 23.7 46.6678 23.7 75Z" fill="#3C4254"/>
<path d="M38.1212 31.5379C48.0963 23.0737 60.6795 18.2984 73.7587 18.0135C86.8379 17.7286 99.617 21.9514 109.951 29.9732L106.456 34.4759C97.1553 27.2563 85.6541 23.4558 73.8828 23.7122C62.1115 23.9686 50.7867 28.2663 41.8091 35.8841L38.1212 31.5379Z" fill="#A461D8"/>
<path d="M21.0497 93.3948C17.1849 82.0595 16.9885 69.7949 20.4885 58.3417C23.9885 46.8885 31.0071 36.8287 40.548 29.5901L43.9932 34.1311C35.4064 40.6458 29.0897 49.6996 25.9397 60.0075C22.7897 70.3154 22.9664 81.3536 26.4448 91.5553L21.0497 93.3948Z" fill="#0062FF"/>
<path d="M109.723 29.797C116.953 35.3505 122.745 42.5569 126.613 50.8116C130.482 59.0664 132.314 68.1286 131.956 77.2378C131.598 86.347 129.061 95.2376 124.556 103.163C120.052 111.089 113.712 117.819 106.069 122.788L102.963 118.009C109.841 113.537 115.547 107.48 119.601 100.347C123.655 93.2138 125.938 85.2123 126.26 77.014C126.583 68.8157 124.934 60.6597 121.452 53.2305C117.97 45.8012 112.757 39.3154 106.251 34.3173L109.723 29.797Z" fill="#FC5A5A"/>
<path d="M42.4091 63.946H45.3351C45.2911 62.076 46.2151 60.822 47.8651 60.822C49.3611 60.822 50.3071 61.746 50.3071 63.176C50.3071 64.298 49.6691 65.178 48.4151 65.794L45.9511 67.026C44.4771 67.752 42.3871 69.38 42.3871 71.866L42.4091 74H53.2331V71.47H45.2691C45.2691 70.524 46.3251 69.776 47.2051 69.314L49.5811 68.126C52.0231 66.916 53.2331 65.266 53.2331 63.198C53.2331 60.316 51.0331 58.424 47.8651 58.424C44.4991 58.424 42.3431 60.536 42.4091 63.946ZM60.8639 58.6H58.0919C57.9159 60.272 57.2119 60.756 56.0239 60.756H54.9239V63.264H56.1339C56.7719 63.264 57.6739 63.066 57.9599 62.67V74H60.8639V58.6ZM63.2279 74.858V76.992H64.4379C66.5059 76.992 67.7159 75.76 67.7159 73.67V71.074H65.0319V73.428C65.0319 74.33 64.7019 74.858 64.0419 74.858H63.2279ZM76.1224 74.176C79.3564 74.176 81.8424 72.372 81.8424 69.49C81.8424 67.686 80.7864 66.344 79.2244 65.706C80.3684 65.046 81.2044 63.924 81.2044 62.56C81.2044 60.14 79.1144 58.424 76.1224 58.424C73.1304 58.424 71.0404 60.14 71.0404 62.56C71.0404 63.924 71.8764 65.046 72.9984 65.706C71.5024 66.344 70.3804 67.686 70.3804 69.49C70.3804 72.372 72.8884 74.176 76.1224 74.176ZM76.1224 64.562C74.6704 64.562 73.7684 63.836 73.7684 62.67C73.7684 61.504 74.6704 60.778 76.1224 60.778C77.5524 60.778 78.4984 61.504 78.4984 62.67C78.4984 63.836 77.5524 64.562 76.1224 64.562ZM76.1224 71.668C74.3844 71.668 73.2184 70.832 73.2184 69.424C73.2184 68.038 74.3844 67.158 76.1224 67.158C77.8824 67.158 78.9824 68.038 78.9824 69.424C78.9824 70.832 77.8824 71.668 76.1224 71.668ZM85.8125 74H88.6945C88.7165 71.47 89.0465 69.556 90.4985 67.268L94.5025 60.888V58.6H83.1725V61.108H91.2905L88.0125 66.3C86.2525 69.116 85.8125 71.294 85.8125 74ZM101.26 74.176H102.14C105.968 74.176 107.728 71.536 107.728 66.828V65.772C107.728 61.064 105.968 58.424 102.14 58.424H101.26C97.4316 58.424 95.6936 61.064 95.6936 65.772V66.828C95.6936 71.536 97.4316 74.176 101.26 74.176ZM101.392 71.646C99.6536 71.646 98.5976 70.304 98.5976 67.598V65.002C98.5976 62.274 99.6536 60.932 101.392 60.932H102.008C103.746 60.932 104.824 62.274 104.824 65.002V67.598C104.824 70.304 103.746 71.646 102.008 71.646H101.392Z" fill="#DDDEE3"/>
<path d="M59.8 99H61.242L64.896 89.2H63.426L60.514 97.25L57.616 89.2H56.146L59.8 99ZM65.8735 88.99V90.698H67.3855V88.99H65.8735ZM65.9575 99H67.3155V91.944H65.9575V99ZM74.1736 96.704C73.9776 97.502 73.3056 97.95 72.2696 97.95C71.0376 97.95 70.1696 97.04 70.0576 95.71H75.4476C75.4616 95.584 75.4756 95.36 75.4756 95.178C75.4756 93.386 74.3136 91.832 72.1296 91.832C69.9596 91.832 68.7276 93.456 68.7276 95.43C68.7276 97.39 70.0856 99.112 72.2696 99.112C74.0056 99.112 75.2796 98.16 75.5316 96.704H74.1736ZM72.1296 92.924C73.2916 92.924 74.0196 93.638 74.1036 94.716H70.0996C70.3096 93.54 71.0236 92.924 72.1296 92.924ZM78.2932 99H79.5532L81.1492 93.736L82.7592 99H84.0192L86.2032 91.944H84.8312L83.3892 97.194L81.8072 91.944H80.5192L78.9232 97.194L77.4672 91.944H76.1092L78.2932 99ZM89.7628 99.112C91.3588 99.112 92.4088 98.286 92.4088 96.998C92.4088 93.778 88.3768 95.57 88.3768 93.82C88.3768 93.274 88.8668 92.91 89.5948 92.91C90.1968 92.91 90.9808 93.232 91.0788 94.044H92.3528C92.2828 92.714 91.1908 91.832 89.5948 91.832C88.1248 91.832 87.0888 92.644 87.0888 93.862C87.0888 96.872 91.0928 95.15 91.0928 97.026C91.0928 97.544 90.5748 97.978 89.7628 97.978C88.8528 97.978 88.2648 97.516 88.1808 96.704H86.9068C87.0048 98.188 88.1108 99.112 89.7628 99.112Z" fill="#DDDEE3"/>
<defs>
<filter id="filter0_f_1098_3884" x="0" y="0" width="150" height="150" filterUnits="userSpaceOnUse" color-interpolation-filters="sRGB">
<feFlood flood-opacity="0" result="BackgroundImageFix"/>
<feBlend mode="normal" in="SourceGraphic" in2="BackgroundImageFix" result="shape"/>
<feGaussianBlur stdDeviation="9" result="effect1_foregroundBlur_1098_3884"/>
</filter>
</defs>
</svg>
