<svg width="16" height="16" viewBox="0 0 16 16" fill="none" xmlns="http://www.w3.org/2000/svg">
<path d="M15.5826 0.191333C15.3671 0.0368101 15.099 -0.0257677 14.8373 0.0173651C14.5757 0.060498 14.3418 0.205809 14.1873 0.421333L4.83063 13.4667L1.7073 10.3407C1.61445 10.2478 1.50422 10.1741 1.3829 10.1238C1.26157 10.0735 1.13153 10.0476 1.0002 10.0476C0.868865 10.0476 0.738812 10.0734 0.617465 10.1236C0.496117 10.1738 0.385851 10.2475 0.292963 10.3403C0.200074 10.4332 0.126383 10.5434 0.0760951 10.6647C0.0258075 10.7861 -9.10914e-05 10.9161 -0.000122043 11.0474C-0.000152994 11.1788 0.0256843 11.3088 0.0759147 11.4302C0.126145 11.5515 0.199785 11.6618 0.292629 11.7547L4.2493 15.7107C4.35318 15.8106 4.47712 15.8874 4.61292 15.9357C4.74871 15.9841 4.89325 16.0031 5.03693 15.9914C5.18062 15.9797 5.32016 15.9375 5.44631 15.8677C5.57246 15.798 5.68233 15.7021 5.76863 15.5867L15.8126 1.58667C15.9672 1.37113 16.0297 1.10304 15.9866 0.841368C15.9435 0.579695 15.7982 0.345872 15.5826 0.191333Z" fill="#1877F2"/>
</svg>
