<svg width="32" height="32" viewBox="0 0 32 32" fill="none" xmlns="http://www.w3.org/2000/svg">
<path fill-rule="evenodd" clip-rule="evenodd" d="M7.99995 3.19995H24C26.6509 3.19995 28.8 5.34898 28.8 7.99995V24C28.8 26.6509 26.6509 28.8 24 28.8H7.99995C5.34898 28.8 3.19995 26.6509 3.19995 24V7.99995C3.19995 5.34898 5.34898 3.19995 7.99995 3.19995Z" fill="white"/>
<path d="M11.7761 14.8481C11.1473 14.2273 10.1342 14.2338 9.51345 14.8627C8.89267 15.4916 8.89923 16.5046 9.5281 17.1254L13.5936 21.1386C14.2625 21.7989 15.3536 21.7432 15.9518 21.0183L22.5529 13.0183C23.1153 12.3367 23.0187 11.3282 22.3371 10.7658C21.6555 10.2034 20.6471 10.3 20.0847 10.9816L14.5968 17.6324L11.7761 14.8481Z" fill="white"/>
</svg>
