<svg width="90" height="90" viewBox="0 0 90 90" fill="none" xmlns="http://www.w3.org/2000/svg">
<g clip-path="url(#clip0)">
<path d="M45.0001 90.0002C69.853 90.0002 90.0002 69.853 90.0002 45.0001C90.0002 20.1472 69.853 0 45.0001 0C20.1472 0 0 20.1472 0 45.0001C0 69.853 20.1472 90.0002 45.0001 90.0002Z" fill="#F67272"/>
<path d="M90.0002 45.0001C90.0002 69.7502 69.7501 90.0002 45.0001 90.0002C30.6564 90.0002 18.0001 83.5315 9.84375 73.1253C17.4375 79.3128 27.2813 82.9691 37.9687 82.9691C62.7188 82.9691 82.9688 62.7191 82.9688 37.969C82.9688 27.2815 79.3125 17.4377 73.125 9.84399C83.5314 18 90.0002 30.6562 90.0002 45.0001Z" fill="#F35656"/>
<path d="M69.4688 32.0625L40.2189 64.1251C38.25 66.3752 34.8752 66.3752 32.9063 64.1251L20.5313 50.3438C18.8438 48.375 18.8438 45.2813 20.8125 43.3125C22.7813 41.6251 25.875 41.6251 27.8438 43.5937L36.5626 53.4375L62.1563 25.5937C64.1251 23.6249 67.2188 23.3437 69.1876 25.3125C71.1563 27 71.1563 30.375 69.4688 32.0625Z" fill="white"/>
</g>
<defs>
<clipPath id="clip0">
<rect width="90" height="90" fill="white"/>
</clipPath>
</defs>
</svg>
