<svg width="32" height="32" viewBox="0 0 32 32" fill="none" xmlns="http://www.w3.org/2000/svg">
<path fill-rule="evenodd" clip-rule="evenodd" d="M7.99995 3.19995H24C26.6509 3.19995 28.8 5.34898 28.8 7.99995V24C28.8 26.6509 26.6509 28.8 24 28.8H7.99995C5.34898 28.8 3.19995 26.6509 3.19995 24V7.99995C3.19995 5.34898 5.34898 3.19995 7.99995 3.19995Z" fill="#0062FF"/>
<path d="M11.7763 14.8481C11.1474 14.2273 10.1344 14.2338 9.51357 14.8627C8.89279 15.4916 8.89935 16.5046 9.52822 17.1254L13.5938 21.1386C14.2626 21.7989 15.3537 21.7432 15.9519 21.0183L22.553 13.0183C23.1154 12.3367 23.0188 11.3282 22.3372 10.7658C21.6557 10.2034 20.6472 10.3 20.0848 10.9816L14.5969 17.6324L11.7763 14.8481Z" fill="white"/>
</svg>
