<svg width="14" height="14" viewBox="0 0 14 14" fill="none" xmlns="http://www.w3.org/2000/svg">
<g clip-path="url(#clip0_14468_36764)">
<path d="M8.34162 7.10442C8.32804 7.09088 8.31726 7.07478 8.30991 7.05706C8.30256 7.03935 8.29877 7.02035 8.29877 7.00117C8.29877 6.98199 8.30256 6.963 8.30991 6.94528C8.31726 6.92756 8.32804 6.91147 8.34162 6.89792L13.745 1.49509C13.9091 1.33079 14.0012 1.10804 14.001 0.875845C14.0009 0.643651 13.9085 0.421033 13.7442 0.256963C13.5799 0.0928938 13.3571 0.00081269 13.1249 0.000976781C12.8927 0.00114087 12.6701 0.0935367 12.506 0.257838L7.1032 5.65834C7.08965 5.67192 7.07356 5.68269 7.05584 5.69005C7.03813 5.6974 7.01913 5.70118 6.99995 5.70118C6.98077 5.70118 6.96178 5.6974 6.94406 5.69005C6.92634 5.68269 6.91025 5.67192 6.8967 5.65834L1.49387 0.257838C1.41263 0.176561 1.31618 0.112081 1.21002 0.0680792C1.10386 0.0240776 0.990075 0.00141633 0.875158 0.00138925C0.643074 0.00133455 0.420474 0.0934771 0.256327 0.257547C0.0921802 0.421616 -6.73479e-05 0.644173 -0.000122046 0.876257C-0.000176744 1.10834 0.0919658 1.33094 0.256035 1.49509L5.65829 6.89792C5.67187 6.91147 5.68264 6.92756 5.68999 6.94528C5.69734 6.963 5.70113 6.98199 5.70113 7.00117C5.70113 7.02035 5.69734 7.03935 5.68999 7.05706C5.68264 7.07478 5.67187 7.09088 5.65829 7.10442L0.256035 12.5078C0.174796 12.5891 0.110362 12.6856 0.0664101 12.7918C0.0224585 12.898 -0.00014913 13.0118 -0.000122046 13.1267C-6.73479e-05 13.3588 0.0921802 13.5813 0.256327 13.7454C0.337604 13.8266 0.434087 13.8911 0.540266 13.935C0.646445 13.979 0.760242 14.0016 0.875158 14.0015C1.10724 14.0015 1.3298 13.9092 1.49387 13.7451L6.8967 8.34167C6.91025 8.32809 6.92634 8.31732 6.94406 8.30996C6.96178 8.30261 6.98077 8.29883 6.99995 8.29883C7.01913 8.29883 7.03813 8.30261 7.05584 8.30996C7.07356 8.31732 7.08965 8.32809 7.1032 8.34167L12.506 13.7451C12.6701 13.9092 12.8927 14.0015 13.1247 14.0015C13.3568 14.0016 13.5794 13.9094 13.7436 13.7454C13.9077 13.5813 14 13.3588 14 13.1267C14.0001 12.8946 13.9079 12.672 13.7439 12.5078L8.34162 7.10442Z" fill="#6F7897"/>
</g>
<defs>
<clipPath id="clip0_14468_36764">
<rect width="14" height="14" fill="white"/>
</clipPath>
</defs>
</svg>
