<svg width="21" height="21" viewBox="0 0 21 21" fill="none" xmlns="http://www.w3.org/2000/svg">
<g clip-path="url(#clip0_3140_805)">
<rect x="16.6199" y="4.5769" width="12.0431" height="12.0431" transform="rotate(90 16.6199 4.5769)" fill="white"/>
<path d="M4.51507 4.51547C7.87659 1.16132 13.3189 1.16133 16.6804 4.51547L16.802 4.63712C20.0779 8.0467 19.9878 13.461 16.6004 16.7597C13.2129 20.0585 7.79813 20.0049 4.47667 16.6397C1.15521 13.2746 1.17236 7.85952 4.51507 4.51547ZM14.2473 8.16507L13.0308 6.94853L10.5977 9.3816L8.16466 6.94853L6.94813 8.16507L9.38119 10.5981L6.94813 13.0312L8.16466 14.2477L10.5977 11.8147L13.0308 14.2477L14.2473 13.0312L11.8143 10.5981L14.2473 8.16507Z" fill="#B0B0B0"/>
</g>
<defs>
<clipPath id="clip0_3140_805">
<rect width="20.6452" height="20.6452" fill="white" transform="translate(20.921 0.275757) rotate(90)"/>
</clipPath>
</defs>
</svg>
