<svg width="44" height="44" viewBox="0 0 44 44" fill="none" xmlns="http://www.w3.org/2000/svg">
<path d="M33.7331 13.5282C33.4015 13.4336 33.0988 13.2575 32.8526 13.0161C32.6064 12.7747 32.4244 12.4755 32.3233 12.1458C31.7619 10.2429 30.8202 8.47367 29.5553 6.94519C28.2904 5.41672 26.7285 4.16077 24.9641 3.25335C23.1998 2.34593 21.2697 1.80591 19.2906 1.66596C17.3116 1.52601 15.3247 1.78905 13.4502 2.43916C11.5757 3.08926 9.85266 4.11292 8.38523 5.44819C6.9178 6.78345 5.73653 8.40256 4.91291 10.2075C4.0893 12.0125 3.64045 13.9658 3.59354 15.9493C3.54662 17.9327 3.90262 19.9051 4.63998 21.747C4.80937 22.1346 4.84584 22.5674 4.74371 22.9779C4.64158 23.3884 4.40658 23.7536 4.07531 24.0167C2.61548 25.1001 1.47573 26.5581 0.776686 28.2364C0.0776466 29.9146 -0.154675 31.7505 0.104309 33.55C0.508474 35.9826 1.7714 38.1897 3.66388 39.7707C5.55635 41.3517 7.95293 42.2018 10.4186 42.1666H20.1665C20.6527 42.1666 21.119 41.9735 21.4628 41.6297C21.8067 41.2859 21.9998 40.8195 21.9998 40.3333C21.9998 39.8471 21.8067 39.3808 21.4628 39.037C21.119 38.6931 20.6527 38.5 20.1665 38.5H10.4186C8.83516 38.5384 7.29029 38.0083 6.06404 37.0057C4.83778 36.0031 4.01128 34.5944 3.73431 33.0348C3.55867 31.8885 3.70102 30.716 4.14584 29.645C4.59066 28.5739 5.3209 27.6456 6.25698 26.961C7.24023 26.2261 7.9515 25.1854 8.27903 24.0024C8.60656 22.8194 8.53179 21.5611 8.06648 20.4252C7.14642 17.9954 7.09911 15.3216 7.93264 12.8608C8.59851 10.9332 9.79088 9.2306 11.3747 7.94585C12.9585 6.66111 14.8705 5.84558 16.894 5.59165C17.3633 5.53123 17.8361 5.50061 18.3093 5.49999C20.6799 5.49217 22.9893 6.25244 24.8916 7.66697C26.794 9.0815 28.1869 11.0742 28.862 13.3467C29.1255 14.2127 29.6003 14.9995 30.2435 15.6364C30.8868 16.2733 31.6784 16.7402 32.547 16.995C34.6727 17.6237 36.5557 18.8868 37.9438 20.6151C39.3318 22.3435 40.1588 24.4546 40.3139 26.666C40.4691 28.8773 39.945 31.0832 38.8118 32.9885C37.6786 34.8937 35.9905 36.4073 33.9733 37.3267C33.6748 37.4795 33.4252 37.7132 33.2531 38.001C33.081 38.2889 32.9932 38.6193 32.9998 38.9546C32.9962 39.258 33.0689 39.5574 33.2112 39.8254C33.3535 40.0933 33.5608 40.3213 33.8141 40.4883C34.0674 40.6552 34.3586 40.7559 34.6609 40.7811C34.9633 40.8062 35.2671 40.755 35.5445 40.6321C43.1235 36.9893 47.2411 27.4065 40.8245 18.1482C39.0577 15.8435 36.5552 14.2131 33.7331 13.5282Z" fill="white"/>
<path d="M34.2959 30.6295C34.6396 30.2857 34.8327 29.8195 34.8327 29.3333C34.8327 28.8472 34.6396 28.381 34.2959 28.0372L31.3883 25.1295C30.3569 24.0984 28.9582 23.5192 27.4998 23.5192C26.0414 23.5192 24.6427 24.0984 23.6113 25.1295L20.7036 28.0372C20.3696 28.3829 20.1849 28.846 20.189 29.3267C20.1932 29.8074 20.386 30.2672 20.7259 30.6072C21.0659 30.9471 21.5257 31.1399 22.0064 31.1441C22.4871 31.1482 22.9502 30.9634 23.2959 30.6295L25.6664 28.259V42.1667C25.6664 42.6529 25.8596 43.1192 26.2034 43.463C26.5472 43.8068 27.0135 44 27.4998 44C27.986 44 28.4523 43.8068 28.7961 43.463C29.1399 43.1192 29.3331 42.6529 29.3331 42.1667V28.259L31.7036 30.6295C32.0474 30.9732 32.5136 31.1663 32.9998 31.1663C33.4859 31.1663 33.9521 30.9732 34.2959 30.6295Z" fill="white"/>
</svg>
