<svg width="20" height="20" viewBox="0 0 20 20" fill="none" xmlns="http://www.w3.org/2000/svg">
<path d="M15.4167 0H4.58333C3.36816 0.00132347 2.20314 0.484634 1.34389 1.34389C0.484634 2.20314 0.00132347 3.36816 0 4.58333L0 11.25C0.00132347 12.4652 0.484634 13.6302 1.34389 14.4894C2.20314 15.3487 3.36816 15.832 4.58333 15.8333H8.75V17.5H6.66667C6.33515 17.5 6.0172 17.6317 5.78278 17.8661C5.54836 18.1005 5.41667 18.4185 5.41667 18.75C5.41667 19.0815 5.54836 19.3995 5.78278 19.6339C6.0172 19.8683 6.33515 20 6.66667 20H13.3333C13.6649 20 13.9828 19.8683 14.2172 19.6339C14.4516 19.3995 14.5833 19.0815 14.5833 18.75C14.5833 18.4185 14.4516 18.1005 14.2172 17.8661C13.9828 17.6317 13.6649 17.5 13.3333 17.5H11.25V15.8333H15.4167C16.6318 15.832 17.7969 15.3487 18.6561 14.4894C19.5154 13.6302 19.9987 12.4652 20 11.25V4.58333C19.9987 3.36816 19.5154 2.20314 18.6561 1.34389C17.7969 0.484634 16.6318 0.00132347 15.4167 0V0ZM4.58333 2.5H15.4167C15.9692 2.5 16.4991 2.71949 16.8898 3.11019C17.2805 3.5009 17.5 4.0308 17.5 4.58333V10.8333H2.5V4.58333C2.5 4.0308 2.71949 3.5009 3.11019 3.11019C3.5009 2.71949 4.0308 2.5 4.58333 2.5Z" fill="white"/>
</svg>
