<svg width="20" height="20" viewBox="0 0 20 20" fill="none" xmlns="http://www.w3.org/2000/svg">
<path fill-rule="evenodd" clip-rule="evenodd" d="M10.006 0.819989C9.54179 0.82448 9.17044 1.20682 9.17948 1.67094V5.84253H8.34809C7.8846 5.84077 7.50842 6.21695 7.51018 6.68044V13.3527C7.50841 13.8162 7.8846 14.1924 8.34809 14.1906H9.17948V18.3622C9.17948 19.4762 10.8504 19.4762 10.8504 18.3622V14.1906H11.6883C12.1492 14.1888 12.5214 13.8137 12.5197 13.3527V6.68044C12.5214 6.21949 12.1492 5.84438 11.6883 5.84253H10.8504V1.67094C10.8596 1.19978 10.4772 0.814424 10.006 0.819989ZM16.6783 0.819989C16.2173 0.82895 15.8509 1.20996 15.8599 1.67094V10.852H15.0204C14.562 10.8539 14.1908 11.225 14.189 11.6834V18.3622C14.1872 18.8232 14.5594 19.1983 15.0204 19.2001H18.3606C18.8241 19.2019 19.2003 18.8257 19.1985 18.3622V11.6834C19.1967 11.2225 18.8215 10.8503 18.3606 10.852H17.5292V1.67094C17.5385 1.19717 17.152 0.810691 16.6783 0.819989ZM1.66929 0.83303C1.2058 0.831263 0.829618 1.20744 0.831385 1.67094V8.34321C0.829618 8.8067 1.2058 9.18288 1.66929 9.18111H2.50068V18.3622C2.50068 19.4762 4.1716 19.4762 4.1716 18.3622V9.18111H5.00951C5.47045 9.17928 5.84265 8.80415 5.84089 8.34321V1.67094C5.84265 1.20999 5.47045 0.834873 5.00951 0.83303H1.66929ZM2.50068 2.50232H4.1716V7.51182H2.50068V2.50232ZM9.17948 7.51182H10.8504V12.5213H9.17948V7.51182ZM15.8599 12.5213H17.5292V17.5308H15.8599V12.5213Z" fill="white"/>
</svg>
