<svg width="17" height="17" viewBox="0 0 17 17" fill="none" xmlns="http://www.w3.org/2000/svg">
<path d="M10.625 2.65625H3.1875C2.3073 2.65625 1.59375 3.3698 1.59375 4.25V14.875C1.59375 15.7552 2.3073 16.4688 3.1875 16.4688H10.625C11.5052 16.4688 12.2188 15.7552 12.2188 14.875V4.25C12.2188 3.3698 11.5052 2.65625 10.625 2.65625Z" fill="black"/>
<path d="M15.4063 2.125V12.75C15.4051 13.1723 15.2368 13.5769 14.9381 13.8756C14.6395 14.1742 14.2349 14.3425 13.8126 14.3438H13.2813V4.25C13.2813 3.54552 13.0015 2.86989 12.5033 2.37175C12.0052 1.8736 11.3296 1.59375 10.6251 1.59375H4.87695C4.98656 1.28374 5.18937 1.01522 5.45757 0.824998C5.72578 0.634779 6.04626 0.532174 6.37508 0.53125H13.8126C14.2349 0.532511 14.6395 0.700829 14.9381 0.999442C15.2368 1.29805 15.4051 1.7027 15.4063 2.125Z" fill="black"/>
</svg>
