<svg width="32" height="31" viewBox="0 0 32 31" fill="none" xmlns="http://www.w3.org/2000/svg">
<path d="M24.6016 26.7383H12.6484C11.1944 26.7383 10.0117 25.5556 10.0117 24.1016V12.1484C10.0117 10.6944 11.1944 9.51172 12.6484 9.51172H24.6016C26.0556 9.51172 27.2383 10.6944 27.2383 12.1484V24.1016C27.2383 25.5556 26.0556 26.7383 24.6016 26.7383ZM12.6484 11.2695C12.1638 11.2695 11.7695 11.6638 11.7695 12.1484V24.1016C11.7695 24.5862 12.1638 24.9805 12.6484 24.9805H24.6016C25.0862 24.9805 25.4805 24.5862 25.4805 24.1016V12.1484C25.4805 11.6638 25.0862 11.2695 24.6016 11.2695H12.6484ZM8.25391 19.707H7.375C6.89037 19.707 6.49609 19.3128 6.49609 18.8281V6.875C6.49609 6.39037 6.89037 5.99609 7.375 5.99609H19.3281C19.8128 5.99609 20.207 6.39037 20.207 6.875V7.70996H21.9648V6.875C21.9648 5.42096 20.7822 4.23828 19.3281 4.23828H7.375C5.92096 4.23828 4.73828 5.42096 4.73828 6.875V18.8281C4.73828 20.2822 5.92096 21.4648 7.375 21.4648H8.25391V19.707Z" fill="#989CA9"/>
</svg>
