<svg width="57" height="57" viewBox="0 0 57 57" fill="none" xmlns="http://www.w3.org/2000/svg">
<path d="M41.3268 0H6.17432V57H50.8256V9.49881L41.3268 0Z" fill="#E4E4E4"/>
<path d="M42.7968 4.7495H6.17432V0H41.3268L42.7968 4.7495Z" fill="#007934"/>
<path d="M21.5962 42.8615C21.0356 42.8615 20.5977 43.0914 20.2836 43.5507C19.9694 44.0102 19.8122 44.6438 19.8122 45.4512C19.8122 47.1299 20.4507 47.9691 21.7276 47.9691C22.1134 47.9691 22.4873 47.9156 22.8494 47.8082C23.2113 47.7009 23.5751 47.5715 23.9413 47.4204V49.4134C23.2134 49.7354 22.3899 49.8965 21.471 49.8965C20.1542 49.8965 19.1448 49.5147 18.4428 48.7508C17.7408 47.9872 17.3896 46.8832 17.3896 45.4392C17.3896 44.5362 17.5596 43.7429 17.8999 43.0585C18.24 42.3742 18.7292 41.8482 19.3678 41.4803C20.0063 41.1123 20.7571 40.9281 21.6201 40.9281C22.5631 40.9281 23.464 41.133 24.3232 41.5429L23.6011 43.3986C23.279 43.2473 22.9566 43.1202 22.6345 43.0168C22.3123 42.9134 21.9664 42.8615 21.5962 42.8615Z" fill="#A4A9AD"/>
<path d="M31.3459 47.1281C31.3459 47.6691 31.2089 48.1495 30.934 48.5691C30.6597 48.9887 30.2638 49.3149 29.7468 49.5477C29.2296 49.7802 28.6231 49.8966 27.9267 49.8966C27.346 49.8966 26.8587 49.8558 26.465 49.7744C26.0711 49.6928 25.6615 49.5505 25.2358 49.3476V47.2473C25.6854 47.4779 26.1527 47.6582 26.638 47.7872C27.1234 47.9167 27.5688 47.9812 27.9745 47.9812C28.3245 47.9812 28.5812 47.9207 28.7443 47.799C28.9073 47.6778 28.9891 47.5216 28.9891 47.3307C28.9891 47.2114 28.9562 47.107 28.8906 47.0175C28.825 46.9279 28.7195 46.8374 28.5744 46.7461C28.4292 46.6547 28.0423 46.4678 27.4138 46.1852C26.845 45.9267 26.4182 45.6761 26.1337 45.4334C25.8493 45.1907 25.6385 44.9125 25.5013 44.5981C25.3641 44.2838 25.2954 43.9119 25.2954 43.4822C25.2954 42.6788 25.5878 42.0524 26.1727 41.6027C26.7572 41.1532 27.5609 40.9283 28.5832 40.9283C29.4862 40.9283 30.4068 41.1372 31.3457 41.555L30.6236 43.375C29.8082 43.0011 29.1042 42.814 28.5116 42.814C28.2051 42.814 27.9826 42.8678 27.8432 42.9751C27.7039 43.0825 27.6344 43.2158 27.6344 43.375C27.6344 43.5461 27.7229 43.6993 27.8998 43.8343C28.0767 43.9696 28.5571 44.2161 29.3409 44.5743C30.0927 44.9125 30.6148 45.2753 30.9071 45.6632C31.1998 46.051 31.3459 46.5394 31.3459 47.1281Z" fill="#A4A9AD"/>
<path d="M37.5937 41.0537H40.2309L37.3728 49.7772H34.5981L31.752 41.0537H34.4013L35.5887 45.4753C35.8354 46.458 35.9705 47.142 35.9944 47.5279C36.0222 47.2495 36.0777 46.9013 36.1615 46.4836C36.2448 46.0658 36.3185 45.7378 36.3823 45.4992L37.5937 41.0537Z" fill="#A4A9AD"/>
<path d="M41.3267 9.49881H50.8255L41.3267 0V9.49881Z" fill="#D1D3D3"/>
<path d="M31.6272 15.1049H25.3716V18.0035H31.6272V15.1049Z" fill="#007934"/>
<path d="M39.2686 15.1049H33.0132V18.0035H39.2686V15.1049Z" fill="#007934"/>
<path d="M31.6272 19.3005H25.3716V22.1993H31.6272V19.3005Z" fill="#007934"/>
<path d="M39.2686 19.3005H33.0132V22.1993H39.2686V19.3005Z" fill="#007934"/>
<path d="M31.6272 23.4963H25.3716V26.395H31.6272V23.4963Z" fill="#007934"/>
<path d="M39.2686 23.4963H33.0132V26.395H39.2686V23.4963Z" fill="#007934"/>
<path d="M23.9859 23.4963H17.7305V26.395H23.9859V23.4963Z" fill="#007934"/>
<path d="M31.6272 27.6924H25.3716V30.591H31.6272V27.6924Z" fill="#007934"/>
<path d="M39.2686 27.6924H33.0132V30.591H39.2686V27.6924Z" fill="#007934"/>
<path d="M23.9859 27.6924H17.7305V30.591H23.9859V27.6924Z" fill="#007934"/>
<path d="M23.8924 21.8387H22.0049L20.8276 19.951L19.6628 21.8387H17.8164L19.8198 18.7489L17.9362 15.7997H19.7455L20.8359 17.6669L21.8851 15.7997H23.7481L21.8355 18.8771L23.8924 21.8387Z" fill="#007934"/>
</svg>
