<svg width="17" height="22" viewBox="0 0 17 22" fill="none" xmlns="http://www.w3.org/2000/svg">
<path d="M0 20.0536C0 14.0183 0 7.98297 0 1.94721C0.0102402 1.92984 0.028263 1.91288 0.0303111 1.89466C0.124111 0.977001 0.915885 -0.00253821 2.21066 4.9415e-06C4.62121 0.00466739 7.03216 0.00212424 9.44271 0.000428801C9.80849 4.94152e-06 10.1141 0.12801 10.3746 0.398433C12.4529 2.55418 14.5321 4.70866 16.6162 6.85847C16.8747 7.12508 16.9967 7.43831 16.9971 7.80368C16.9996 11.8083 17.0033 15.8129 16.9943 19.8175C16.9926 20.5152 16.7059 21.0934 16.1718 21.535C15.8605 21.7919 15.4947 21.9055 15.1191 22C10.7059 22 6.29282 22 1.87969 22C1.85635 21.9881 1.83382 21.9695 1.80924 21.9657C1.23907 21.8788 0.787268 21.5884 0.432957 21.1222C0.192516 20.806 0.0892947 20.4334 0 20.0536ZM9.57502 2.23756C9.57502 4.06354 9.57502 5.87554 9.57502 7.68373C11.3367 7.68373 13.0845 7.68373 14.8356 7.68373C13.0809 5.86664 11.3355 4.05973 9.57502 2.23756ZM11.1385 13.6657C11.1348 13.6953 11.1315 13.703 11.1336 13.7093C11.6206 15.2924 12.1064 16.876 12.6004 18.457C12.6168 18.5099 12.7147 18.5659 12.7761 18.5684C13.0886 18.5795 13.4024 18.5629 13.7149 18.5778C13.8694 18.585 13.9247 18.521 13.9693 18.3815C14.3465 17.2036 14.7312 16.0282 15.1125 14.8516C15.2387 14.4629 15.362 14.073 15.4922 13.6661C15.1314 13.6661 14.7979 13.6597 14.4653 13.672C14.4096 13.6741 14.3236 13.7466 14.3068 13.8038C14.0549 14.6626 13.8083 15.523 13.5687 16.3851C13.4733 16.7289 13.3975 17.079 13.3209 17.3931C12.9973 16.2033 12.6704 14.9953 12.3358 13.7898C12.3214 13.7381 12.2395 13.6729 12.1879 13.6712C11.841 13.6606 11.494 13.6657 11.1385 13.6657ZM6.91215 17.4333C6.85071 17.6953 6.80524 17.9513 6.72782 18.1967C6.68031 18.348 6.73151 18.4095 6.85439 18.4425C7.10917 18.5112 7.36272 18.6023 7.622 18.6341C8.17415 18.7015 8.72303 18.6803 9.22972 18.3985C10.1632 17.8797 10.2345 16.5975 9.36038 15.9816C9.18834 15.8604 8.99091 15.7761 8.80167 15.6832C8.56943 15.5696 8.32899 15.473 8.09919 15.3539C7.93658 15.27 7.8309 15.1237 7.85507 14.9279C7.88005 14.7274 8.01236 14.5736 8.19873 14.5604C8.50512 14.5388 8.81601 14.5566 9.12281 14.5842C9.2633 14.5969 9.39888 14.671 9.54389 14.7198C9.62458 14.4125 9.70036 14.1234 9.78637 13.7949C9.51235 13.7267 9.26085 13.6377 9.0032 13.6055C8.44982 13.5364 7.90258 13.5593 7.40737 13.8755C6.58774 14.3981 6.52056 15.5056 7.28612 16.105C7.49912 16.2715 7.7584 16.3762 8.00048 16.5004C8.20651 16.6064 8.42402 16.6886 8.62513 16.8026C8.79103 16.8963 8.88155 17.0595 8.85984 17.26C8.83649 17.4778 8.70173 17.6135 8.50553 17.6779C8.41623 17.7072 8.32038 17.7216 8.22658 17.7288C7.767 17.7627 7.33896 17.6381 6.91215 17.4333ZM5.39946 13.7954C5.31836 13.7627 5.25118 13.7326 5.18196 13.7089C4.7744 13.569 4.35127 13.5516 3.93102 13.5872C3.22731 13.647 2.61371 13.9217 2.15823 14.5028C1.69742 15.0902 1.57454 15.7837 1.64294 16.511C1.73019 17.438 2.16724 18.1264 3.02865 18.4773C3.54148 18.6863 4.07888 18.6931 4.61629 18.635C4.85509 18.6091 5.08939 18.5375 5.34499 18.4824C5.28395 18.1594 5.23029 17.8758 5.17664 17.591C4.35168 17.7818 3.55377 17.9131 3.00079 17.0714C2.64525 16.5305 2.67884 15.5743 3.07002 15.0746C3.64634 14.3383 4.39715 14.4468 5.17705 14.6719C5.2475 14.3934 5.31918 14.1107 5.39946 13.7954Z" fill="white"/>
</svg>
