<svg width="24" height="24" viewBox="0 0 24 24" fill="none" xmlns="http://www.w3.org/2000/svg">
<path opacity="0.4" d="M11.9763 3.11361L14.2028 7.58789C14.3668 7.91205 14.6799 8.13717 15.041 8.18719L20.042 8.91556C20.3341 8.95658 20.5992 9.11066 20.7782 9.34578C20.9552 9.5779 21.0312 9.87205 20.9882 10.1612C20.9532 10.4013 20.8402 10.6234 20.6672 10.7935L17.0434 14.3063C16.7783 14.5514 16.6583 14.9146 16.7223 15.2698L17.6145 20.2083C17.7095 20.8046 17.3144 21.3669 16.7223 21.48C16.4783 21.519 16.2282 21.478 16.0082 21.3659L11.5472 19.0417C11.2161 18.8746 10.8251 18.8746 10.494 19.0417L6.03303 21.3659C5.48491 21.657 4.80576 21.4589 4.5007 20.9187C4.38767 20.7036 4.34766 20.4584 4.38467 20.2193L5.27686 15.2798C5.34088 14.9256 5.21985 14.5604 4.95579 14.3153L1.33202 10.8045C0.900924 10.3883 0.887921 9.70296 1.30301 9.27175C1.31201 9.26274 1.32201 9.25274 1.33202 9.24273C1.50405 9.06764 1.7301 8.95658 1.97415 8.92757L6.97523 8.1982C7.33531 8.14717 7.64837 7.92406 7.81341 7.59789L9.95987 3.11361C10.1509 2.72942 10.547 2.4903 10.9771 2.5003H11.1111C11.4842 2.54533 11.8093 2.77644 11.9763 3.11361Z" fill="#DDDEE3"/>
<path d="M10.992 18.9171C10.7983 18.9231 10.6096 18.9752 10.4399 19.0682L6.00072 21.3871C5.45756 21.6464 4.80756 21.4452 4.50303 20.9258C4.39021 20.7136 4.34927 20.4704 4.38721 20.2322L5.27384 15.3032C5.33375 14.9449 5.21394 14.5806 4.95334 14.3284L1.32794 10.8185C0.897602 10.3971 0.889614 9.70556 1.31096 9.27421C1.31695 9.26821 1.32195 9.2632 1.32794 9.2582C1.49967 9.08806 1.72133 8.97597 1.95996 8.94094L6.96523 8.20433C7.32767 8.1583 7.64219 7.93211 7.80194 7.60384L9.97758 3.06312C10.1843 2.69682 10.5806 2.47864 11 2.50166C10.992 2.7989 10.992 18.715 10.992 18.9171Z" fill="#DDDEE3"/>
</svg>
