<svg width="24" height="24" viewBox="0 0 24 24" fill="none" xmlns="http://www.w3.org/2000/svg">
<g clip-path="url(#clip0_3426_15081)">
<path d="M19.0767 8.64083L11.1283 2.8125C10.5075 2.3579 9.77296 2.08409 9.00605 2.02142C8.23915 1.95874 7.46988 2.10965 6.78349 2.45742C6.09711 2.80518 5.52043 3.33622 5.11737 3.99167C4.71432 4.64712 4.50063 5.40137 4.50001 6.17083V17.8333C4.49881 18.6035 4.71138 19.359 5.11405 20.0155C5.51672 20.6721 6.09369 21.2041 6.78075 21.5522C7.4678 21.9003 8.23799 22.0509 9.00556 21.9872C9.77314 21.9236 10.508 21.6482 11.1283 21.1917L19.0767 15.3633C19.6041 14.9763 20.0329 14.4705 20.3285 13.8869C20.6241 13.3033 20.7781 12.6583 20.7781 12.0042C20.7781 11.35 20.6241 10.705 20.3285 10.1214C20.0329 9.53782 19.6041 9.03204 19.0767 8.645V8.64083Z" fill="#DDDEE3"/>
</g>
<defs>
<clipPath id="clip0_3426_15081">
<rect width="20" height="20" fill="white" transform="translate(2 2)"/>
</clipPath>
</defs>
</svg>
