<?xml version="1.0" encoding="utf-8"?>
<!-- Generator: Adobe Illustrator 26.0.2, SVG Export Plug-In . SVG Version: 6.00 Build 0)  -->
<svg version="1.1" id="Layer_1" xmlns="http://www.w3.org/2000/svg" xmlns:xlink="http://www.w3.org/1999/xlink" x="0px" y="0px"
	 viewBox="0 0 31 31" style="enable-background:new 0 0 31 31;" xml:space="preserve">
<style type="text/css">
	.st0{fill:#989CA9;}
</style>
<g id="Layer_2_00000166638067179068661130000003182709316478477228_">
	<path class="st0" d="M2.9,6.8h1.9v19.8c0,1.9,1.5,3.4,3.4,3.4h14.5c1.9,0,3.4-1.5,3.4-3.4V6.8h1.9c0.5,0,1-0.4,1-1s-0.4-1-1-1h-6.8
		V2.9c0-1-0.8-1.9-1.9-1.9h-7.8c-1.1,0-1.9,0.9-1.9,1.9v1.9H2.9c-0.5,0-1,0.4-1,1S2.4,6.8,2.9,6.8L2.9,6.8z M11.6,2.9h7.7v1.9h-7.7
		V2.9z M9.7,6.8h14.5v19.8c0,0.8-0.7,1.5-1.5,1.5l0,0H8.2c-0.8,0-1.4-0.7-1.4-1.5V6.8H9.7z"/>
	<path class="st0" d="M12.3,24.2c0.5,0,1-0.4,1-1V11.6c0-0.5-0.4-1-1-1s-1,0.4-1,1v11.6C11.3,23.8,11.8,24.2,12.3,24.2z"/>
	<path class="st0" d="M18.7,24.2c0.5,0,1-0.4,1-1V11.6c0-0.5-0.4-1-1-1c-0.5,0-1,0.4-1,1v11.6C17.7,23.8,18.2,24.2,18.7,24.2z"/>
</g>
</svg>
