<svg width="24" height="24" viewBox="0 0 24 24" fill="none" xmlns="http://www.w3.org/2000/svg">
<g clip-path="url(#clip0_3426_15068)">
<path d="M20.7371 12.1459L11.9996 17.3892L3.26209 12.1459C3.07257 12.0321 2.84564 11.9984 2.63123 12.052C2.41681 12.1056 2.23247 12.2422 2.11876 12.4317C2.00505 12.6212 1.97128 12.8481 2.02488 13.0626C2.07849 13.277 2.21507 13.4613 2.40459 13.575L11.5713 19.075C11.7009 19.1529 11.8492 19.194 12.0004 19.194C12.1516 19.194 12.3 19.1529 12.4296 19.075L21.5962 13.575C21.7858 13.4613 21.9223 13.277 21.976 13.0626C22.0296 12.8481 21.9958 12.6212 21.8821 12.4317C21.7684 12.2422 21.584 12.1056 21.3696 12.052C21.1552 11.9984 20.9283 12.0321 20.7387 12.1459H20.7371Z" fill="#DDDEE3"/>
<path d="M20.7371 15.9525L11.9996 21.195L3.26209 15.9525C3.16825 15.8962 3.06424 15.8589 2.95599 15.8428C2.84775 15.8267 2.73739 15.8321 2.63123 15.8586C2.52506 15.8852 2.42516 15.9324 2.33723 15.9975C2.2493 16.0627 2.17506 16.1445 2.11876 16.2383C2.06245 16.3322 2.02518 16.4362 2.00908 16.5444C1.99297 16.6527 1.99834 16.763 2.02488 16.8692C2.07849 17.0836 2.21507 17.2679 2.40459 17.3817L11.5712 22.8816C11.7009 22.9595 11.8492 23.0006 12.0004 23.0006C12.1516 23.0006 12.3 22.9595 12.4296 22.8816L21.5962 17.3817C21.7858 17.2679 21.9223 17.0836 21.976 16.8692C22.0296 16.6548 21.9958 16.4278 21.8821 16.2383C21.7684 16.0488 21.584 15.9122 21.3696 15.8586C21.1552 15.805 20.9283 15.8388 20.7387 15.9525H20.7371Z" fill="#DDDEE3"/>
<path d="M2.4039 9.96405L10.7239 14.9566C11.1091 15.1883 11.5502 15.3107 11.9997 15.3107C12.4493 15.3107 12.8904 15.1883 13.2756 14.9566L21.5956 9.96405C21.7188 9.88997 21.8207 9.78526 21.8915 9.66012C21.9623 9.53498 21.9995 9.39366 21.9995 9.24989C21.9995 9.10612 21.9623 8.96479 21.8915 8.83965C21.8207 8.71451 21.7188 8.60981 21.5956 8.53572L13.2756 3.54322C12.8903 3.31174 12.4492 3.18945 11.9997 3.18945C11.5502 3.18945 11.1092 3.31174 10.7239 3.54322L2.4039 8.53572C2.28069 8.60981 2.17875 8.71451 2.10797 8.83965C2.0372 8.96479 2 9.10612 2 9.24989C2 9.39366 2.0372 9.53498 2.10797 9.66012C2.17875 9.78526 2.28069 9.88997 2.4039 9.96405Z" fill="#DDDEE3"/>
</g>
<defs>
<clipPath id="clip0_3426_15068">
<rect width="20" height="20" fill="white" transform="translate(2 3)"/>
</clipPath>
</defs>
</svg>
