<svg width="153" height="153" viewBox="0 0 153 153" fill="none" xmlns="http://www.w3.org/2000/svg">
<g filter="url(#filter0_d_3069:255)">
<rect x="25" y="25" width="103" height="103" rx="10" fill="white"/>
</g>
<g clip-path="url(#clip0_3069:255)">
<path d="M45 104.247C45 86.0816 45 67.9159 45 49.7503C45.362 48.8811 45.615 47.9418 46.1109 47.1566C46.9338 45.8579 48.2852 45.2956 49.7505 45C67.9173 45 86.084 45 104.251 45C104.307 45.0263 104.361 45.0651 104.42 45.0776C107.322 45.6512 108.999 47.6863 109 50.6645C109.003 68.2253 109.003 85.7848 108.993 103.346C108.993 103.902 108.94 104.478 108.792 105.011C108.101 107.491 106.103 108.982 103.473 108.994C100.098 109.008 96.7235 108.998 93.3482 108.998C79.1404 108.998 64.9339 108.996 50.7262 109C49.2821 109 47.9796 108.639 46.8586 107.684C45.7915 106.772 45.2768 105.577 45 104.247ZM47.1292 55.6928C47.1292 55.9495 47.1292 56.1724 47.1292 56.3953C47.1292 71.9974 47.1292 87.5995 47.1292 103.202C47.1292 105.592 48.4029 106.867 50.7938 106.867C68.2717 106.868 85.7496 106.868 103.227 106.867C105.582 106.867 106.871 105.587 106.871 103.245C106.872 87.622 106.871 71.9999 106.871 56.3766C106.871 56.1561 106.871 55.9357 106.871 55.6928C86.9244 55.6928 67.0606 55.6928 47.1292 55.6928ZM47.1454 53.4711C67.0831 53.4711 86.9607 53.4711 106.871 53.4711C106.871 52.5881 106.871 51.7566 106.871 50.9262C106.871 48.3576 105.647 47.129 103.09 47.129C85.6957 47.129 68.3018 47.129 50.9078 47.129C50.6586 47.129 50.4068 47.124 50.1588 47.1441C48.5069 47.2793 47.2632 48.4703 47.1592 50.1184C47.0891 51.2155 47.1454 52.3214 47.1454 53.4711Z" fill="#EE5555"/>
<path d="M77.0025 102.604C65.1969 102.49 55.7509 93.0661 55.6733 81.2788C55.5969 69.6292 65.4223 59.8319 77.0375 59.9396C88.8168 60.0486 98.4155 69.6442 98.3366 81.2838C98.2565 93.1124 88.7704 102.493 77.0025 102.604ZM62.2211 69.0481C59.6085 72.2341 58.1356 75.9374 57.8651 80.2005C60.4601 80.2005 62.9938 80.2055 65.5263 80.183C65.6378 80.1817 65.8381 79.9262 65.8432 79.7847C65.9196 77.2198 66.2702 74.6951 66.8414 72.1953C66.8802 72.0262 66.7412 71.7119 66.5909 71.6192C65.1744 70.7601 63.7365 69.9335 62.2211 69.0481ZM91.7701 69.0431C90.3398 69.8872 88.9783 70.72 87.5844 71.494C87.1848 71.7157 87.0634 71.9073 87.1723 72.3569C87.7434 74.7264 88.0879 77.1309 88.1242 79.5705C88.1317 80.1053 88.3258 80.2205 88.8205 80.2155C91.0449 80.1917 93.2705 80.2055 95.4961 80.2055C95.694 80.2055 95.8919 80.2055 96.1398 80.2055C95.8505 75.9174 94.3864 72.2103 91.7701 69.0431ZM62.2324 93.4894C63.6514 92.6503 65.009 91.8062 66.4093 91.041C66.8551 90.7968 66.9077 90.5789 66.8176 90.123C66.5433 88.7367 66.2928 87.344 66.1049 85.9451C65.9484 84.7754 65.892 83.5932 65.7893 82.3959C63.1479 82.3959 60.5203 82.3959 57.8663 82.3959C58.1544 86.6277 59.621 90.3247 62.2324 93.4894ZM91.7776 93.4781C94.3864 90.3184 95.8518 86.6114 96.1336 82.3759C93.4583 82.3759 90.8457 82.3759 88.2494 82.3759C88.2106 82.441 88.1718 82.4748 88.1705 82.5111C88.0816 85.1812 87.7472 87.8174 87.1423 90.4211C87.111 90.5589 87.2425 90.8181 87.374 90.8958C88.8155 91.7599 90.2709 92.6002 91.7776 93.4781ZM85.0619 72.7226C82.7111 73.1546 80.4191 73.5754 78.1234 73.9987C78.1234 76.0138 78.1234 78.0815 78.1234 80.1704C80.7686 80.1704 83.3599 80.1704 86.0176 80.1704C85.98 77.5943 85.6331 75.1033 85.0619 72.7226ZM67.8371 80.1667C70.6713 80.1667 73.2639 80.1667 75.8928 80.1667C75.8928 78.0577 75.8928 75.9875 75.8928 74.0063C73.5532 73.5754 71.2612 73.1521 68.8127 72.7C68.4946 75.1296 68.1702 77.6118 67.8371 80.1667ZM68.824 89.9076C69.0745 89.8913 69.1584 89.9014 69.2323 89.8788C71.2863 89.2451 73.3766 88.808 75.5308 88.7329C75.9316 88.7191 75.9329 88.4712 75.9316 88.1831C75.9279 86.9558 75.9304 85.7285 75.9304 84.5011C75.9304 83.8023 75.9304 83.1022 75.9304 82.3884C73.2376 82.3884 70.6313 82.3884 67.8383 82.3884C68.1715 84.9357 68.4971 87.4142 68.824 89.9076ZM78.0745 82.3771C78.0745 84.4135 78.0658 86.406 78.0983 88.3973C78.1008 88.5137 78.429 88.6941 78.6256 88.7254C80.0183 88.9508 81.4211 89.1186 82.8101 89.3616C83.5528 89.4906 84.2767 89.7323 85.0407 89.9302C85.6243 87.4066 85.985 84.9345 86.0151 82.3771C83.3649 82.3771 80.7736 82.3771 78.0745 82.3771ZM75.8765 71.6831C75.8765 68.5058 75.8765 65.4024 75.8765 62.2878C73.0072 62.9315 70.4659 67.2472 69.6306 70.4959C71.637 71.1997 73.701 71.5942 75.8765 71.6831ZM78.1259 62.2653C78.1259 65.4488 78.1259 68.5572 78.1259 71.6856C80.3089 71.5892 82.3754 71.2009 84.427 70.4771C83.663 68.1877 82.7061 66.0624 81.1155 64.2741C80.3039 63.3611 79.3758 62.6159 78.1259 62.2653ZM78.1046 100.212C80.7861 99.7901 83.5026 95.4469 84.3718 92.0254C82.3454 91.3416 80.2764 90.9095 78.1046 90.8557C78.1046 94.0267 78.1046 97.1163 78.1046 100.212ZM69.5654 92.0492C70.3745 94.4462 71.374 96.6491 73.0685 98.4613C73.835 99.2816 74.7105 99.9767 75.8815 100.25C75.8815 97.1038 75.8815 93.9991 75.8815 90.8431C73.7023 90.9333 71.6407 91.3341 69.5654 92.0492ZM63.7353 67.4463C65.0378 68.2416 66.249 68.9805 67.5415 69.7695C68.328 67.2685 69.4815 65.1257 70.9707 63.1407C68.2504 63.9585 65.9196 65.4012 63.7353 67.4463ZM90.2596 67.4451C88.0803 65.3987 85.7433 63.9647 83.0242 63.1432C84.5359 65.1282 85.6656 67.2998 86.4772 69.7745C87.7798 68.9717 88.9758 68.2366 90.2596 67.4451ZM67.529 92.7555C66.2352 93.552 65.0153 94.3022 63.7453 95.0837C65.9358 97.1363 68.2917 98.5816 71.1585 99.5083C69.4853 97.4381 68.3468 95.2603 67.529 92.7555ZM86.4697 92.743C85.6581 95.2803 84.4996 97.4457 82.8364 99.5221C85.707 98.5665 88.0803 97.1401 90.2533 95.0837C88.9859 94.3009 87.7785 93.5533 86.4697 92.743Z" fill="#EE5555"/>
<path d="M84.4535 51.3897C78.582 51.3897 72.7118 51.3897 66.8403 51.3897C65.7845 51.3897 65.2484 51.0165 65.2722 50.3039C65.296 49.6088 65.8158 49.2594 66.8353 49.2594C78.5983 49.2594 90.3612 49.2582 102.123 49.2632C102.41 49.2632 102.714 49.2795 102.981 49.3734C103.468 49.5462 103.686 49.937 103.631 50.4542C103.58 50.9489 103.284 51.2507 102.812 51.3534C102.571 51.4047 102.315 51.3884 102.065 51.3884C96.1951 51.3897 90.3237 51.3897 84.4535 51.3897Z" fill="#EE5555"/>
<path d="M51.9434 51.377C51.7355 51.377 51.5264 51.3958 51.321 51.3732C50.7636 51.3144 50.3866 50.9324 50.3629 50.4039C50.3378 49.8228 50.6221 49.4245 51.182 49.3244C51.6253 49.2455 52.095 49.2429 52.5446 49.288C53.1671 49.3507 53.5353 49.8115 53.509 50.3839C53.4827 50.9574 53.0769 51.3407 52.4432 51.382C52.2778 51.3933 52.1113 51.3833 51.9447 51.3833C51.9434 51.382 51.9434 51.3795 51.9434 51.377Z" fill="#EE5555"/>
<path d="M57.7762 50.31C57.7875 50.9149 57.3254 51.3833 56.7242 51.3782C56.1581 51.3745 55.6934 50.9174 55.6809 50.3526C55.6684 49.779 56.1719 49.2667 56.743 49.273C57.3028 49.2793 57.7662 49.7439 57.7762 50.31Z" fill="#EE5555"/>
<path d="M62.0457 50.2924C62.057 50.901 61.5998 51.3769 61.0037 51.3782C60.4263 51.3794 59.9766 50.9411 59.9604 50.36C59.9441 49.7626 60.4188 49.2629 60.9986 49.2642C61.5635 49.2667 62.0344 49.7288 62.0457 50.2924Z" fill="#EE5555"/>
</g>
<defs>
<filter id="filter0_d_3069:255" x="0" y="0" width="153" height="153" filterUnits="userSpaceOnUse" color-interpolation-filters="sRGB">
<feFlood flood-opacity="0" result="BackgroundImageFix"/>
<feColorMatrix in="SourceAlpha" type="matrix" values="0 0 0 0 0 0 0 0 0 0 0 0 0 0 0 0 0 0 127 0" result="hardAlpha"/>
<feOffset/>
<feGaussianBlur stdDeviation="12.5"/>
<feColorMatrix type="matrix" values="0 0 0 0 0.964706 0 0 0 0 0.447059 0 0 0 0 0.447059 0 0 0 0.2 0"/>
<feBlend mode="normal" in2="BackgroundImageFix" result="effect1_dropShadow_3069:255"/>
<feBlend mode="normal" in="SourceGraphic" in2="effect1_dropShadow_3069:255" result="shape"/>
</filter>
<clipPath id="clip0_3069:255">
<rect width="64" height="64" fill="white" transform="translate(45 45)"/>
</clipPath>
</defs>
</svg>
