<svg width="98" height="98" viewBox="0 0 98 98" fill="none" xmlns="http://www.w3.org/2000/svg">
<circle cx="49" cy="49" r="48.5" stroke="#1877F2"/>
<g clip-path="url(#clip0_13634_36678)">
<path d="M60.374 37.287C60.0507 37.0552 59.6486 36.9614 59.2561 37.0261C58.8635 37.0908 58.5128 37.3087 58.281 37.632L44.246 57.2L39.561 52.511C39.4217 52.3717 39.2564 52.2611 39.0744 52.1857C38.8924 52.1103 38.6974 52.0714 38.5004 52.0714C38.3034 52.0713 38.1083 52.1101 37.9263 52.1854C37.7442 52.2608 37.5788 52.3712 37.4395 52.5105C37.3002 52.6498 37.1896 52.8151 37.1142 52.9971C37.0388 53.1791 36.9999 53.3742 36.9999 53.5711C36.9998 53.7681 37.0386 53.9632 37.1139 54.1453C37.1893 54.3273 37.2997 54.4927 37.439 54.632L43.374 60.566C43.5298 60.7159 43.7157 60.831 43.9194 60.9036C44.1231 60.9762 44.3399 61.0047 44.5555 60.9871C44.771 60.9695 44.9803 60.9063 45.1695 60.8016C45.3588 60.6969 45.5236 60.5532 45.653 60.38L60.719 39.38C60.9508 39.0567 61.0447 38.6546 60.98 38.2621C60.9153 37.8695 60.6973 37.5188 60.374 37.287Z" fill="white"/>
</g>
<defs>
<clipPath id="clip0_13634_36678">
<rect width="24" height="24" fill="white" transform="translate(37 37)"/>
</clipPath>
</defs>
</svg>
