<svg width="16" height="16" viewBox="0 0 16 16" fill="none" xmlns="http://www.w3.org/2000/svg">
<g clip-path="url(#clip0_3_3)">
<path d="M15.1113 11.292C14.897 11.292 14.6915 11.3771 14.54 11.5287C14.3885 11.6802 14.3033 11.8857 14.3033 12.1V13.3367C14.303 13.6143 14.1925 13.8804 13.9961 14.0766C13.7998 14.2728 13.5336 14.3832 13.256 14.3833H2.744C2.4664 14.3832 2.20021 14.2728 2.00385 14.0766C1.8075 13.8804 1.69702 13.6143 1.69667 13.3367V12.1C1.69667 11.8857 1.61154 11.6802 1.46001 11.5287C1.30848 11.3771 1.10296 11.292 0.888665 11.292C0.674371 11.292 0.468853 11.3771 0.317323 11.5287C0.165794 11.6802 0.0806656 11.8857 0.0806656 12.1V13.3367C0.080665 14.0433 0.361159 14.7211 0.860535 15.2211C1.35991 15.7211 2.03733 16.0024 2.744 16.0033H13.256C13.9632 16.0033 14.6415 15.7224 15.1416 15.2223C15.6417 14.7222 15.9227 14.0439 15.9227 13.3367V12.1C15.9227 11.9936 15.9017 11.8883 15.8608 11.79C15.82 11.6918 15.7602 11.6025 15.6848 11.5275C15.6094 11.4524 15.52 11.393 15.4216 11.3525C15.3231 11.3121 15.2177 11.2916 15.1113 11.292Z" fill="white"/>
<path d="M8 0C7.65716 0 7.32837 0.136191 7.08595 0.378613C6.84352 0.621035 6.70733 0.94983 6.70733 1.29267V7.33667C6.70733 7.38087 6.68977 7.42326 6.65852 7.45452C6.62726 7.48577 6.58487 7.50333 6.54067 7.50333H4.768C4.64399 7.50338 4.52262 7.53909 4.41834 7.60619C4.31406 7.67329 4.23127 7.76896 4.17984 7.8818C4.12841 7.99464 4.1105 8.11988 4.12826 8.24261C4.14602 8.36534 4.19869 8.48037 4.28 8.574L7.512 12.2913C7.57264 12.3612 7.6476 12.4173 7.73179 12.4557C7.81598 12.4942 7.90745 12.514 8 12.514C8.09255 12.514 8.18402 12.4942 8.26821 12.4557C8.3524 12.4173 8.42736 12.3612 8.488 12.2913L11.72 8.574C11.8013 8.48037 11.854 8.36534 11.8717 8.24261C11.8895 8.11988 11.8716 7.99464 11.8202 7.8818C11.7687 7.76896 11.6859 7.67329 11.5817 7.60619C11.4774 7.53909 11.356 7.50338 11.232 7.50333H9.45933C9.41513 7.50333 9.37274 7.48577 9.34148 7.45452C9.31023 7.42326 9.29267 7.38087 9.29267 7.33667V1.29267C9.29267 0.94983 9.15648 0.621035 8.91405 0.378613C8.67163 0.136191 8.34284 0 8 0Z" fill="white"/>
</g>
<defs>
<clipPath id="clip0_3_3">
<rect width="16" height="16" fill="white"/>
</clipPath>
</defs>
</svg>
