<svg width="13" height="13" viewBox="0 0 13 13" fill="none" xmlns="http://www.w3.org/2000/svg">
<g clip-path="url(#clip0_277_9420)">
<path d="M12.278 9.17475C12.1039 9.17475 11.9369 9.24392 11.8138 9.36703C11.6906 9.49015 11.6215 9.65713 11.6215 9.83125V10.836C11.6212 11.0616 11.5314 11.2778 11.3719 11.4373C11.2123 11.5967 10.9961 11.6863 10.7705 11.6865H2.22951C2.00396 11.6863 1.78768 11.5967 1.62814 11.4373C1.4686 11.2778 1.37884 11.0616 1.37855 10.836V9.83125C1.37855 9.65713 1.30938 9.49015 1.18627 9.36703C1.06315 9.24392 0.896166 9.17475 0.722052 9.17475C0.547937 9.17475 0.380954 9.24392 0.257836 9.36703C0.134719 9.49015 0.0655518 9.65713 0.0655518 9.83125V10.836C0.0655513 11.4102 0.293453 11.9609 0.699196 12.3671C1.10494 12.7734 1.65534 13.002 2.22951 13.0027H10.7705C11.3451 13.0027 11.8962 12.7744 12.3026 12.3681C12.7089 11.9618 12.9372 11.4107 12.9372 10.836V9.83125C12.9372 9.74481 12.9201 9.65922 12.8869 9.57939C12.8538 9.49956 12.8052 9.42707 12.7439 9.36607C12.6827 9.30508 12.61 9.25678 12.53 9.22394C12.4501 9.19111 12.3644 9.17439 12.278 9.17475Z" fill="#1877F2"/>
<path d="M6.49996 0C6.2214 0 5.95426 0.110655 5.75729 0.307623C5.56032 0.504591 5.44967 0.771737 5.44967 1.05029V5.96104C5.44967 5.99696 5.4354 6.0314 5.41 6.0568C5.38461 6.08219 5.35016 6.09646 5.31425 6.09646H3.87396C3.7732 6.0965 3.67459 6.12551 3.58986 6.18003C3.50513 6.23455 3.43786 6.31228 3.39607 6.40396C3.35429 6.49564 3.33974 6.5974 3.35417 6.69712C3.3686 6.79684 3.4114 6.8903 3.47746 6.96638L6.10346 9.98671C6.15273 10.0435 6.21363 10.0891 6.28204 10.1203C6.35045 10.1515 6.42476 10.1677 6.49996 10.1677C6.57515 10.1677 6.64947 10.1515 6.71788 10.1203C6.78629 10.0891 6.84719 10.0435 6.89646 9.98671L9.52246 6.96638C9.58852 6.8903 9.63131 6.79684 9.64574 6.69712C9.66017 6.5974 9.64563 6.49564 9.60384 6.40396C9.56205 6.31228 9.49479 6.23455 9.41006 6.18003C9.32533 6.12551 9.22671 6.0965 9.12596 6.09646H7.68567C7.64975 6.09646 7.61531 6.08219 7.58991 6.0568C7.56452 6.0314 7.55025 5.99696 7.55025 5.96104V1.05029C7.55025 0.771737 7.43959 0.504591 7.24263 0.307623C7.04566 0.110655 6.77851 0 6.49996 0Z" fill="#1877F2"/>
</g>
<defs>
<clipPath id="clip0_277_9420">
<rect width="13" height="13" fill="white"/>
</clipPath>
</defs>
</svg>
