<svg width="13" height="13" viewBox="0 0 13 13" fill="none" xmlns="http://www.w3.org/2000/svg">
<g clip-path="url(#clip0_277_8823)">
<path d="M12.278 9.17475C12.1038 9.17475 11.9369 9.24392 11.8137 9.36703C11.6906 9.49015 11.6215 9.65713 11.6215 9.83125V10.836C11.6212 11.0616 11.5314 11.2778 11.3719 11.4373C11.2123 11.5967 10.996 11.6863 10.7705 11.6865H2.22949C2.00394 11.6863 1.78766 11.5967 1.62813 11.4373C1.46859 11.2778 1.37882 11.0616 1.37854 10.836V9.83125C1.37854 9.65713 1.30937 9.49015 1.18625 9.36703C1.06313 9.24392 0.896151 9.17475 0.722036 9.17475C0.547922 9.17475 0.380939 9.24392 0.257821 9.36703C0.134703 9.49015 0.0655365 9.65713 0.0655365 9.83125V10.836C0.0655361 11.4102 0.293437 11.9609 0.699181 12.3671C1.10492 12.7734 1.65533 13.002 2.22949 13.0027H10.7705C11.3451 13.0027 11.8962 12.7744 12.3026 12.3681C12.7089 11.9618 12.9372 11.4107 12.9372 10.836V9.83125C12.9372 9.74481 12.9201 9.65922 12.8869 9.57939C12.8538 9.49956 12.8052 9.42707 12.7439 9.36607C12.6827 9.30508 12.61 9.25678 12.53 9.22394C12.4501 9.19111 12.3644 9.17439 12.278 9.17475Z" fill="#1877F2"/>
<path d="M6.5 0C6.22145 0 5.9543 0.110655 5.75733 0.307623C5.56037 0.504591 5.44971 0.771737 5.44971 1.05029V5.96104C5.44971 5.99696 5.43544 6.0314 5.41005 6.0568C5.38465 6.08219 5.35021 6.09646 5.31429 6.09646H3.874C3.77325 6.0965 3.67463 6.12551 3.5899 6.18003C3.50517 6.23455 3.43791 6.31228 3.39612 6.40396C3.35433 6.49564 3.33979 6.5974 3.35422 6.69712C3.36865 6.79684 3.41144 6.8903 3.4775 6.96638L6.1035 9.98671C6.15277 10.0435 6.21368 10.0891 6.28208 10.1203C6.35049 10.1515 6.42481 10.1677 6.5 10.1677C6.5752 10.1677 6.64952 10.1515 6.71792 10.1203C6.78633 10.0891 6.84723 10.0435 6.8965 9.98671L9.5225 6.96638C9.58856 6.8903 9.63136 6.79684 9.64579 6.69712C9.66022 6.5974 9.64567 6.49564 9.60389 6.40396C9.5621 6.31228 9.49483 6.23455 9.4101 6.18003C9.32538 6.12551 9.22676 6.0965 9.126 6.09646H7.68571C7.6498 6.09646 7.61535 6.08219 7.58996 6.0568C7.56456 6.0314 7.55029 5.99696 7.55029 5.96104V1.05029C7.55029 0.771737 7.43964 0.504591 7.24267 0.307623C7.0457 0.110655 6.77856 0 6.5 0Z" fill="#1877F2"/>
</g>
<defs>
<clipPath id="clip0_277_8823">
<rect width="13" height="13" fill="white"/>
</clipPath>
</defs>
</svg>
