<svg width="48" height="48" viewBox="0 0 48 48" fill="none" xmlns="http://www.w3.org/2000/svg">
<g clip-path="url(#clip0)">
<path d="M30.8944 35.4237L26.2502 40.0679L26.2502 15.4999C26.2502 14.9032 26.0131 14.3309 25.5912 13.9089C25.1692 13.487 24.5969 13.2499 24.0002 13.2499C23.4034 13.2499 22.8311 13.487 22.4092 13.9089C21.9872 14.3309 21.7502 14.9032 21.7502 15.4999L21.7502 40.0679L17.1059 35.4237C16.8972 35.2138 16.6491 35.0472 16.3758 34.9334C16.1026 34.8195 15.8096 34.7607 15.5136 34.7603C15.2176 34.7599 14.9245 34.8179 14.6509 34.931C14.3774 35.0441 14.1289 35.21 13.9196 35.4193C13.7103 35.6286 13.5443 35.8772 13.4313 36.1507C13.3182 36.4242 13.2602 36.7174 13.2606 37.0134C13.261 37.3094 13.3198 37.6024 13.4336 37.8756C13.5474 38.1488 13.714 38.3969 13.9239 38.6056L22.4091 47.0909C22.6181 47.2999 22.8661 47.4656 23.1391 47.5787C23.4121 47.6918 23.7047 47.75 24.0002 47.75C24.2956 47.75 24.5882 47.6918 24.8612 47.5787C25.1342 47.4656 25.3823 47.2999 25.5912 47.0909L34.0764 38.6056C34.2863 38.3969 34.4529 38.1488 34.5667 37.8756C34.6805 37.6024 34.7393 37.3094 34.7397 37.0134C34.7401 36.7174 34.6821 36.4242 34.5691 36.1507C34.456 35.8772 34.29 35.6286 34.0807 35.4193C33.8714 35.21 33.6229 35.0441 33.3494 34.931C33.0758 34.8179 32.7827 34.7599 32.4867 34.7603C32.1907 34.7607 31.8977 34.8195 31.6245 34.9334C31.3512 35.0472 31.1032 35.2138 30.8944 35.4237Z" fill="#EE5555"/>
<path d="M4.5 26.25C5.09674 26.25 5.66903 26.0129 6.09099 25.591C6.51295 25.169 6.75 24.5967 6.75 24L6.75 6.75L41.25 6.75001L41.25 24C41.25 24.5967 41.4871 25.169 41.909 25.591C42.331 26.0129 42.9033 26.25 43.5 26.25C44.0967 26.25 44.669 26.0129 45.091 25.591C45.5129 25.169 45.75 24.5967 45.75 24L45.75 6.00001C45.75 5.00544 45.3549 4.05162 44.6517 3.34836C43.9484 2.6451 42.9946 2.25001 42 2.25001L6 2.25C5.00544 2.25 4.05161 2.64509 3.34835 3.34835C2.64509 4.05161 2.25 5.00544 2.25 6L2.25 24C2.25 24.5967 2.48705 25.169 2.90901 25.591C3.33097 26.0129 3.90326 26.25 4.5 26.25Z" fill="#EE5555"/>
</g>
<defs>
<clipPath id="clip0">
<rect width="48" height="48" fill="white" transform="translate(48 48) rotate(-180)"/>
</clipPath>
</defs>
</svg>
