<svg width="31" height="26" viewBox="0 0 31 26" fill="none" xmlns="http://www.w3.org/2000/svg">
<path d="M14.5 1C14.5 0.502944 14.903 0.1 15.4 0.1C15.8971 0.1 16.3 0.502944 16.3 1H14.5ZM16.0364 17.2364C15.6849 17.5879 15.1151 17.5879 14.7636 17.2364L9.03606 11.5088C8.68459 11.1574 8.68459 10.5875 9.03606 10.236C9.38754 9.88457 9.95738 9.88457 10.3089 10.236L15.4 15.3272L20.4912 10.236C20.8427 9.88457 21.4125 9.88457 21.764 10.236C22.1155 10.5875 22.1155 11.1574 21.764 11.5088L16.0364 17.2364ZM16.3 1V16.6H14.5L14.5 1H16.3Z" fill="#989CA9"/>
<path d="M1.00002 8.80005V23.2C1.00002 24.1942 1.8059 25 2.80001 25H27.4C28.3941 25 29.2 24.1942 29.2 23.2V8.80005" stroke="#989CA9" stroke-width="1.8" stroke-linecap="round"/>
</svg>
