<svg width="48" height="48" viewBox="0 0 48 48" fill="none" xmlns="http://www.w3.org/2000/svg">
<path d="M17.1056 22.4237L21.7498 27.068V2.49992C21.7498 1.90318 21.9869 1.33088 22.4089 0.908928C22.8308 0.486969 23.4031 0.249916 23.9998 0.249916C24.5966 0.249916 25.1689 0.486969 25.5908 0.908928C26.0128 1.33088 26.2498 1.90318 26.2498 2.49992V27.068L30.8941 22.4237C31.1028 22.2138 31.3509 22.0472 31.6242 21.9334C31.8974 21.8195 32.1904 21.7607 32.4864 21.7603C32.7824 21.7599 33.0755 21.8179 33.3491 21.931C33.6226 22.0441 33.8711 22.21 34.0804 22.4193C34.2897 22.6286 34.4557 22.8772 34.5687 23.1507C34.6818 23.4242 34.7398 23.7174 34.7394 24.0134C34.739 24.3094 34.6802 24.6024 34.5664 24.8756C34.4526 25.1488 34.286 25.3969 34.0761 25.6056L25.5909 34.091C25.3819 34.2999 25.1339 34.4656 24.8609 34.5787C24.5879 34.6918 24.2953 34.75 23.9998 34.75C23.7044 34.75 23.4118 34.6918 23.1388 34.5787C22.8658 34.4656 22.6177 34.2999 22.4088 34.091L13.9236 25.6056C13.7137 25.3969 13.5471 25.1488 13.4333 24.8756C13.3195 24.6024 13.2607 24.3094 13.2603 24.0134C13.2599 23.7174 13.3179 23.4242 13.4309 23.1507C13.544 22.8772 13.71 22.6286 13.9193 22.4193C14.1286 22.21 14.3771 22.0441 14.6506 21.931C14.9242 21.8179 15.2173 21.7599 15.5133 21.7603C15.8093 21.7607 16.1023 21.8195 16.3755 21.9334C16.6488 22.0472 16.8968 22.2138 17.1056 22.4237Z" fill="#F67272"/>
<path d="M43.5 21.75C42.9033 21.75 42.331 21.987 41.909 22.409C41.4871 22.831 41.25 23.4033 41.25 24V41.25H6.75V24C6.75 23.4033 6.51295 22.831 6.09099 22.409C5.66903 21.987 5.09674 21.75 4.5 21.75C3.90326 21.75 3.33097 21.987 2.90901 22.409C2.48705 22.831 2.25 23.4033 2.25 24V42C2.25 42.9945 2.64509 43.9484 3.34835 44.6516C4.05161 45.3549 5.00544 45.75 6 45.75H42C42.9946 45.75 43.9484 45.3549 44.6516 44.6516C45.3549 43.9484 45.75 42.9945 45.75 42V24C45.75 23.4033 45.5129 22.831 45.091 22.409C44.669 21.987 44.0967 21.75 43.5 21.75Z" fill="#F67272"/>
</svg>
