<svg width="24" height="24" viewBox="0 0 24 24" fill="none" xmlns="http://www.w3.org/2000/svg">
<g clip-path="url(#clip0_3426_15086)">
<path d="M6.16634 13.6667C6.62658 13.6667 6.99967 13.2936 6.99967 12.8333C6.99967 12.3731 6.62658 12 6.16634 12C5.7061 12 5.33301 12.3731 5.33301 12.8333C5.33301 13.2936 5.7061 13.6667 6.16634 13.6667Z" fill="#DDDEE3"/>
<path d="M2.83333 10.3334C3.29357 10.3334 3.66667 9.96032 3.66667 9.50008C3.66667 9.03984 3.29357 8.66675 2.83333 8.66675C2.3731 8.66675 2 9.03984 2 9.50008C2 9.96032 2.3731 10.3334 2.83333 10.3334Z" fill="#DDDEE3"/>
<path d="M6.16634 6.99992C6.62658 6.99992 6.99967 6.62682 6.99967 6.16659C6.99967 5.70635 6.62658 5.33325 6.16634 5.33325C5.7061 5.33325 5.33301 5.70635 5.33301 6.16659C5.33301 6.62682 5.7061 6.99992 6.16634 6.99992Z" fill="#DDDEE3"/>
<path d="M2.83333 3.66667C3.29357 3.66667 3.66667 3.29357 3.66667 2.83333C3.66667 2.3731 3.29357 2 2.83333 2C2.3731 2 2 2.3731 2 2.83333C2 3.29357 2.3731 3.66667 2.83333 3.66667Z" fill="#DDDEE3"/>
<path d="M21.1663 13.6667C21.6266 13.6667 21.9997 13.2936 21.9997 12.8333C21.9997 12.3731 21.6266 12 21.1663 12C20.7061 12 20.333 12.3731 20.333 12.8333C20.333 13.2936 20.7061 13.6667 21.1663 13.6667Z" fill="#DDDEE3"/>
<path d="M17.8333 10.3334C18.2936 10.3334 18.6667 9.96032 18.6667 9.50008C18.6667 9.03984 18.2936 8.66675 17.8333 8.66675C17.3731 8.66675 17 9.03984 17 9.50008C17 9.96032 17.3731 10.3334 17.8333 10.3334Z" fill="#DDDEE3"/>
<path d="M21.1663 6.99992C21.6266 6.99992 21.9997 6.62682 21.9997 6.16659C21.9997 5.70635 21.6266 5.33325 21.1663 5.33325C20.7061 5.33325 20.333 5.70635 20.333 6.16659C20.333 6.62682 20.7061 6.99992 21.1663 6.99992Z" fill="#DDDEE3"/>
<path d="M17.8333 3.66667C18.2936 3.66667 18.6667 3.29357 18.6667 2.83333C18.6667 2.3731 18.2936 2 17.8333 2C17.3731 2 17 2.3731 17 2.83333C17 3.29357 17.3731 3.66667 17.8333 3.66667Z" fill="#DDDEE3"/>
<path d="M13.6663 21.9999C14.1266 21.9999 14.4997 21.6268 14.4997 21.1666C14.4997 20.7063 14.1266 20.3333 13.6663 20.3333C13.2061 20.3333 12.833 20.7063 12.833 21.1666C12.833 21.6268 13.2061 21.9999 13.6663 21.9999Z" fill="#DDDEE3"/>
<path d="M10.3333 18.6667C10.7936 18.6667 11.1667 18.2936 11.1667 17.8333C11.1667 17.3731 10.7936 17 10.3333 17C9.8731 17 9.5 17.3731 9.5 17.8333C9.5 18.2936 9.8731 18.6667 10.3333 18.6667Z" fill="#DDDEE3"/>
<path d="M13.6663 15.3334C14.1266 15.3334 14.4997 14.9603 14.4997 14.5001C14.4997 14.0398 14.1266 13.6667 13.6663 13.6667C13.2061 13.6667 12.833 14.0398 12.833 14.5001C12.833 14.9603 13.2061 15.3334 13.6663 15.3334Z" fill="#DDDEE3"/>
<path d="M10.3333 11.9999C10.7936 11.9999 11.1667 11.6268 11.1667 11.1666C11.1667 10.7063 10.7936 10.3333 10.3333 10.3333C9.8731 10.3333 9.5 10.7063 9.5 11.1666C9.5 11.6268 9.8731 11.9999 10.3333 11.9999Z" fill="#DDDEE3"/>
<path d="M14.5003 4.5C14.0583 4.5 13.6344 4.3244 13.3218 4.01184C13.0093 3.69928 12.8337 3.27536 12.8337 2.83333C12.8337 2.61232 12.7459 2.40036 12.5896 2.24408C12.4333 2.0878 12.2213 2 12.0003 2C11.7793 2 11.5674 2.0878 11.4111 2.24408C11.2548 2.40036 11.167 2.61232 11.167 2.83333C11.167 3.27536 10.9914 3.69928 10.6788 4.01184C10.3663 4.3244 9.94236 4.5 9.50033 4.5C9.27931 4.5 9.06735 4.58779 8.91107 4.74407C8.75479 4.90035 8.66699 5.11232 8.66699 5.33333C8.66699 5.55434 8.75479 5.7663 8.91107 5.92258C9.06735 6.07886 9.27931 6.16666 9.50033 6.16666C9.94236 6.16666 10.3663 6.34226 10.6788 6.65482C10.9914 6.96738 11.167 7.3913 11.167 7.83333C11.167 8.05434 11.2548 8.2663 11.4111 8.42258C11.5674 8.57886 11.7793 8.66666 12.0003 8.66666C12.2213 8.66666 12.4333 8.57886 12.5896 8.42258C12.7459 8.2663 12.8337 8.05434 12.8337 7.83333C12.8337 7.3913 13.0093 6.96738 13.3218 6.65482C13.6344 6.34226 14.0583 6.16666 14.5003 6.16666C14.7214 6.16666 14.9333 6.07886 15.0896 5.92258C15.2459 5.7663 15.3337 5.55434 15.3337 5.33333C15.3337 5.11232 15.2459 4.90035 15.0896 4.74407C14.9333 4.58779 14.7214 4.5 14.5003 4.5Z" fill="#DDDEE3"/>
<path d="M7.83334 17.8333C7.39131 17.8333 6.96739 17.6577 6.65483 17.3451C6.34227 17.0325 6.16667 16.6086 6.16667 16.1666C6.16667 15.9456 6.07887 15.7336 5.92259 15.5773C5.76631 15.421 5.55435 15.3333 5.33334 15.3333C5.11232 15.3333 4.90036 15.421 4.74408 15.5773C4.5878 15.7336 4.5 15.9456 4.5 16.1666C4.5 16.6086 4.32441 17.0325 4.01185 17.3451C3.69929 17.6577 3.27536 17.8333 2.83333 17.8333C2.61232 17.8333 2.40036 17.921 2.24408 18.0773C2.0878 18.2336 2 18.4456 2 18.6666C2 18.8876 2.0878 19.0996 2.24408 19.2558C2.40036 19.4121 2.61232 19.4999 2.83333 19.4999C3.27536 19.4999 3.69929 19.6755 4.01185 19.9881C4.32441 20.3006 4.5 20.7246 4.5 21.1666C4.5 21.3876 4.5878 21.5996 4.74408 21.7558C4.90036 21.9121 5.11232 21.9999 5.33334 21.9999C5.55435 21.9999 5.76631 21.9121 5.92259 21.7558C6.07887 21.5996 6.16667 21.3876 6.16667 21.1666C6.16667 20.7246 6.34227 20.3006 6.65483 19.9881C6.96739 19.6755 7.39131 19.4999 7.83334 19.4999C8.05435 19.4999 8.26632 19.4121 8.4226 19.2558C8.57888 19.0996 8.66667 18.8876 8.66667 18.6666C8.66667 18.4456 8.57888 18.2336 8.4226 18.0773C8.26632 17.921 8.05435 17.8333 7.83334 17.8333Z" fill="#DDDEE3"/>
<path d="M21.1664 17.8333C20.7243 17.8333 20.3004 17.6577 19.9878 17.3451C19.6753 17.0325 19.4997 16.6086 19.4997 16.1666C19.4997 15.9456 19.4119 15.7336 19.2556 15.5773C19.0993 15.421 18.8874 15.3333 18.6663 15.3333C18.4453 15.3333 18.2334 15.421 18.0771 15.5773C17.9208 15.7336 17.833 15.9456 17.833 16.1666C17.833 16.6086 17.6574 17.0325 17.3449 17.3451C17.0323 17.6577 16.6084 17.8333 16.1663 17.8333C15.9453 17.8333 15.7334 17.921 15.5771 18.0773C15.4208 18.2336 15.333 18.4456 15.333 18.6666C15.333 18.8876 15.4208 19.0996 15.5771 19.2558C15.7334 19.4121 15.9453 19.4999 16.1663 19.4999C16.6084 19.4999 17.0323 19.6755 17.3449 19.9881C17.6574 20.3006 17.833 20.7246 17.833 21.1666C17.833 21.3876 17.9208 21.5996 18.0771 21.7558C18.2334 21.9121 18.4453 21.9999 18.6663 21.9999C18.8874 21.9999 19.0993 21.9121 19.2556 21.7558C19.4119 21.5996 19.4997 21.3876 19.4997 21.1666C19.4997 20.7246 19.6753 20.3006 19.9878 19.9881C20.3004 19.6755 20.7243 19.4999 21.1664 19.4999C21.3874 19.4999 21.5993 19.4121 21.7556 19.2558C21.9119 19.0996 21.9997 18.8876 21.9997 18.6666C21.9997 18.4456 21.9119 18.2336 21.7556 18.0773C21.5993 17.921 21.3874 17.8333 21.1664 17.8333Z" fill="#DDDEE3"/>
</g>
<defs>
<clipPath id="clip0_3426_15086">
<rect width="20" height="20" fill="white" transform="translate(2 2)"/>
</clipPath>
</defs>
</svg>
