<svg width="25" height="24" viewBox="0 0 25 24" fill="none" xmlns="http://www.w3.org/2000/svg">
<path d="M18.293 4.7061L2.93088 20.106L2 22.3596L4.25354 21.4287L19.6535 6.06658L18.293 4.7061ZM21.3668 1.63288L20.7012 2.29788L22.0617 3.65836L22.7273 2.9928C22.9019 2.81803 23 2.58107 23 2.33401C23 2.08694 22.9019 1.84999 22.7273 1.67522L22.6849 1.63288C22.5984 1.54632 22.4956 1.47766 22.3825 1.43082C22.2695 1.38397 22.1483 1.35986 22.0259 1.35986C21.9035 1.35986 21.7822 1.38397 21.6692 1.43082C21.5561 1.47766 21.4533 1.54632 21.3668 1.63288Z" stroke="#273A53" stroke-width="2.48386" stroke-linecap="round" stroke-linejoin="round"/>
</svg>
