<svg width="22" height="16" viewBox="0 0 22 16" fill="none" xmlns="http://www.w3.org/2000/svg">
<path d="M11 15.4009C9.19586 15.4234 7.41037 15.034 5.7794 14.2624C4.51516 13.6456 3.37992 12.7937 2.4343 11.7522C1.43267 10.6754 0.644014 9.41874 0.11 8.04852L0 7.70092L0.1155 7.35332C0.649897 5.98429 1.43686 4.72791 2.4354 3.64962C3.38068 2.60826 4.51554 1.75637 5.7794 1.13942C7.41038 0.367864 9.19587 -0.0215111 11 0.000916708C12.8041 -0.0214724 14.5896 0.367901 16.2206 1.13942C17.4849 1.75622 18.6201 2.60813 19.5657 3.64962C20.5692 4.72493 21.3581 5.98202 21.89 7.35332L22 7.70092L21.8845 8.04852C20.1588 12.5407 15.8116 15.4772 11 15.4009ZM11 2.20092C7.25546 2.08358 3.81856 4.26352 2.3287 7.70092C3.81832 11.1385 7.25537 13.3186 11 13.2009C14.7445 13.3179 18.1812 11.1381 19.6713 7.70092C18.1834 4.26185 14.7452 2.0811 11 2.20092ZM11 11.0009C9.41306 11.0114 8.0403 9.89801 7.72306 8.34307C7.40582 6.78812 8.2327 5.22594 9.69692 4.61394C11.1611 4.00195 12.8538 4.51107 13.7374 5.82927C14.621 7.14748 14.4489 8.9066 13.3265 10.0285C12.712 10.6503 11.8742 11.0004 11 11.0009Z" fill="#2E3A59"/>
</svg>
