<svg width="512" height="512" viewBox="0 0 512 512" fill="none" xmlns="http://www.w3.org/2000/svg">
<g clip-path="url(#clip0_11779_34892)">
<path d="M496.448 200.939C477.189 169.402 452.896 141.232 424.533 117.547L484.267 57.8133C488.153 53.7898 490.303 48.401 490.254 42.8074C490.206 37.2139 487.962 31.8632 484.007 27.9079C480.051 23.9525 474.701 21.7089 469.107 21.6603C463.514 21.6117 458.125 23.762 454.101 27.648L389.141 92.6933C348.872 68.7749 302.836 56.3086 256 56.64C123.925 56.64 48.6613 147.051 15.552 200.939C5.32326 217.483 -0.0948486 236.549 -0.0948486 256C-0.0948486 275.451 5.32326 294.517 15.552 311.061C34.8108 342.598 59.1038 370.768 87.4667 394.453L27.7333 454.187C25.6958 456.155 24.0706 458.509 22.9525 461.111C21.8344 463.714 21.2459 466.514 21.2213 469.346C21.1967 472.179 21.7365 474.988 22.8091 477.61C23.8818 480.232 25.4659 482.613 27.4689 484.616C29.4719 486.62 31.8539 488.204 34.4756 489.276C37.0974 490.349 39.9066 490.889 42.7392 490.864C45.5718 490.839 48.3712 490.251 50.974 489.133C53.5767 488.015 55.9307 486.39 57.8987 484.352L123.008 419.243C163.227 443.157 209.209 455.645 256 455.36C388.075 455.36 463.339 364.949 496.448 311.061C506.677 294.517 512.095 275.451 512.095 256C512.095 236.549 506.677 217.483 496.448 200.939ZM51.904 288.725C45.8269 278.892 42.608 267.56 42.608 256C42.608 244.44 45.8269 233.108 51.904 223.275C80.3627 177.067 144.683 99.3067 256 99.3067C291.419 99.1082 326.341 107.645 357.675 124.16L314.731 167.104C294.249 153.506 269.694 147.413 245.232 149.859C220.769 152.305 197.906 163.139 180.523 180.523C163.139 197.906 152.305 220.769 149.859 245.232C147.413 269.694 153.506 294.249 167.104 314.731L117.824 364.011C91.6929 342.885 69.3939 317.418 51.904 288.725ZM320 256C320 272.974 313.257 289.253 301.255 301.255C289.253 313.257 272.974 320 256 320C246.496 319.963 237.124 317.775 228.587 313.6L313.6 228.587C317.775 237.124 319.963 246.496 320 256ZM192 256C192 239.026 198.743 222.747 210.745 210.745C222.747 198.743 239.026 192 256 192C265.504 192.037 274.876 194.225 283.413 198.4L198.4 283.413C194.225 274.876 192.037 265.504 192 256ZM460.096 288.725C431.637 334.933 367.317 412.693 256 412.693C220.581 412.892 185.659 404.355 154.325 387.84L197.269 344.896C217.751 358.494 242.306 364.587 266.768 362.141C291.231 359.695 314.094 348.861 331.477 331.477C348.861 314.094 359.695 291.231 362.141 266.768C364.587 242.306 358.494 217.751 344.896 197.269L394.176 147.989C420.307 169.115 442.606 194.582 460.096 223.275C466.173 233.108 469.392 244.44 469.392 256C469.392 267.56 466.173 278.892 460.096 288.725Z" fill="white" fill-opacity="0.6"/>
</g>
<defs>
<clipPath id="clip0_11779_34892">
<rect width="512" height="512" fill="white"/>
</clipPath>
</defs>
</svg>
