<svg width="16" height="16" viewBox="0 0 16 16" fill="none" xmlns="http://www.w3.org/2000/svg">
<g opacity="0.4" clip-path="url(#clip0_17773_38434)">
<path d="M15.6214 7.01601C13.8581 5.07601 10.9334 3.02534 8.0001 3.06667C5.06676 3.02467 2.1421 5.07667 0.378763 7.01601C0.137049 7.28625 0.00341797 7.6361 0.00341797 7.99867C0.00341797 8.36125 0.137049 8.7111 0.378763 8.98134C2.12143 10.9007 5.00476 12.9333 7.89276 12.9333H8.0981C10.9961 12.9333 13.8788 10.9007 15.6234 8.98067C15.8648 8.71029 15.9981 8.36042 15.9977 7.99796C15.9973 7.6355 15.8634 7.2859 15.6214 7.01601ZM4.93343 8.00001C4.93343 7.39348 5.11329 6.80057 5.45026 6.29626C5.78723 5.79195 6.26617 5.39889 6.82653 5.16678C7.38689 4.93467 8.0035 4.87394 8.59837 4.99227C9.19325 5.11059 9.73968 5.40267 10.1686 5.83155C10.5974 6.26043 10.8895 6.80686 11.0078 7.40173C11.1262 7.99661 11.0654 8.61321 10.8333 9.17357C10.6012 9.73393 10.2082 10.2129 9.70385 10.5498C9.19953 10.8868 8.60663 11.0667 8.0001 11.0667C7.18677 11.0667 6.40675 10.7436 5.83164 10.1685C5.25652 9.59336 4.93343 8.81334 4.93343 8.00001Z" fill="white"/>
<path d="M8.00008 9.33335C8.73646 9.33335 9.33341 8.7364 9.33341 8.00002C9.33341 7.26364 8.73646 6.66669 8.00008 6.66669C7.2637 6.66669 6.66675 7.26364 6.66675 8.00002C6.66675 8.7364 7.2637 9.33335 8.00008 9.33335Z" fill="white"/>
<rect x="0.350098" y="14.18" width="20.15" height="2" rx="1" transform="rotate(-44.7397 0.350098 14.18)" fill="white"/>
</g>
<defs>
<clipPath id="clip0_17773_38434">
<rect width="16" height="16" fill="white"/>
</clipPath>
</defs>
</svg>
