<svg width="26" height="17" viewBox="0 0 26 17" fill="none" xmlns="http://www.w3.org/2000/svg">
<path d="M12.6083 1C8.56311 1 4.4136 3.34127 1.14693 8.02381C1.05369 8.15894 1.00259 8.31867 1.0001 8.48283C0.997602 8.64698 1.04382 8.8082 1.13292 8.9461C3.64287 12.875 7.73684 15.9476 12.6083 15.9476C17.4268 15.9476 21.6049 12.8657 24.1195 8.92793C24.2065 8.79273 24.2528 8.63535 24.2528 8.47457C24.2528 8.31379 24.2065 8.15641 24.1195 8.02121C21.5992 4.12861 17.3905 1 12.6083 1Z" stroke="white" stroke-width="1.66084" stroke-linecap="round" stroke-linejoin="round"/>
<path d="M12.626 12.6259C14.9191 12.6259 16.7781 10.7669 16.7781 8.47376C16.7781 6.18062 14.9191 4.32166 12.626 4.32166C10.3328 4.32166 8.47388 6.18062 8.47388 8.47376C8.47388 10.7669 10.3328 12.6259 12.626 12.6259Z" stroke="white" stroke-width="1.66084" stroke-miterlimit="10"/>
</svg>
