<svg width="31" height="31" viewBox="0 0 31 31" fill="none" xmlns="http://www.w3.org/2000/svg">
<g clip-path="url(#clip0_3426_14414)">
<path d="M30.0583 12.166C28.0549 8.90328 23.4979 3.4292 15.4999 3.4292C7.50188 3.4292 2.94488 8.90328 0.941508 12.166C0.32219 13.1677 -0.00585937 14.3221 -0.00585938 15.4998C-0.00585938 16.6775 0.32219 17.8319 0.941508 18.8336C2.94488 22.0964 7.50188 27.5704 15.4999 27.5704C23.4979 27.5704 28.0549 22.0964 30.0583 18.8336C30.6776 17.8319 31.0056 16.6775 31.0056 15.4998C31.0056 14.3221 30.6776 13.1677 30.0583 12.166ZM27.856 17.4812C26.1355 20.279 22.2411 24.9871 15.4999 24.9871C8.75867 24.9871 4.8643 20.279 3.1438 17.4812C2.77585 16.8858 2.58096 16.1997 2.58096 15.4998C2.58096 14.7999 2.77585 14.1138 3.1438 13.5184C4.8643 10.7207 8.75867 6.01253 15.4999 6.01253C22.2411 6.01253 26.1355 10.7155 27.856 13.5184C28.2239 14.1138 28.4188 14.7999 28.4188 15.4998C28.4188 16.1997 28.2239 16.8858 27.856 17.4812Z" fill="#D8D8D8"/>
<path d="M15.5003 9.0415C14.223 9.0415 12.9743 9.42028 11.9123 10.1299C10.8502 10.8396 10.0224 11.8482 9.53361 13.0283C9.04479 14.2084 8.91689 15.507 9.16609 16.7598C9.41529 18.0126 10.0304 19.1634 10.9336 20.0666C11.8368 20.9698 12.9876 21.5849 14.2404 21.8341C15.4932 22.0833 16.7917 21.9554 17.9718 21.4666C19.1519 20.9777 20.1606 20.15 20.8702 19.0879C21.5799 18.0258 21.9587 16.7772 21.9587 15.4998C21.9566 13.7876 21.2755 12.1461 20.0648 10.9354C18.8541 9.72464 17.2126 9.04355 15.5003 9.0415ZM15.5003 19.3748C14.7339 19.3748 13.9847 19.1476 13.3475 18.7218C12.7103 18.296 12.2136 17.6908 11.9203 16.9827C11.627 16.2747 11.5503 15.4955 11.6998 14.7439C11.8493 13.9922 12.2184 13.3017 12.7603 12.7598C13.3022 12.2179 13.9927 11.8488 14.7444 11.6993C15.496 11.5498 16.2752 11.6265 16.9832 11.9198C17.6913 12.2131 18.2965 12.7098 18.7223 13.347C19.1481 13.9842 19.3753 14.7334 19.3753 15.4998C19.3753 16.5275 18.9671 17.5132 18.2404 18.2399C17.5137 18.9666 16.528 19.3748 15.5003 19.3748Z" fill="#D8D8D8"/>
</g>
<defs>
<clipPath id="clip0_3426_14414">
<rect width="31" height="31" fill="white"/>
</clipPath>
</defs>
</svg>
