<svg width="23" height="23" viewBox="0 0 23 23" fill="none" xmlns="http://www.w3.org/2000/svg">
<g opacity="0.5" clip-path="url(#clip0_3043:89)">
<path d="M11.5 18.6875C3.97594 18.6875 0.245633 12.1282 0.0905625 11.8491C-0.0301875 11.6319 -0.0301875 11.3679 0.0905625 11.1507C0.245633 10.8718 3.97594 4.3125 11.5 4.3125C19.0241 4.3125 22.7544 10.8718 22.9094 11.1509C23.0302 11.3681 23.0302 11.6321 22.9094 11.8493C22.7544 12.1282 19.0241 18.6875 11.5 18.6875ZM1.56454 11.4989C2.41949 12.7946 5.77623 17.25 11.5 17.25C17.2419 17.25 20.5837 12.7982 21.4355 11.5011C20.5805 10.2054 17.2238 5.75 11.5 5.75C5.75809 5.75 2.41626 10.2018 1.56454 11.4989ZM11.5 15.8125C9.12202 15.8125 7.1875 13.878 7.1875 11.5C7.1875 9.12202 9.12202 7.1875 11.5 7.1875C13.878 7.1875 15.8125 9.12202 15.8125 11.5C15.8125 13.878 13.878 15.8125 11.5 15.8125ZM11.5 8.625C9.9148 8.625 8.625 9.9148 8.625 11.5C8.625 13.0852 9.9148 14.375 11.5 14.375C13.0852 14.375 14.375 13.0852 14.375 11.5C14.375 9.9148 13.0852 8.625 11.5 8.625Z" fill="black"/>
</g>
<defs>
<clipPath id="clip0_3043:89">
<rect width="23" height="23" fill="white"/>
</clipPath>
</defs>
</svg>
