<svg width="25" height="25" viewBox="0 0 25 25" fill="none" xmlns="http://www.w3.org/2000/svg">
<g clip-path="url(#clip0_9327_3560)">
<path d="M23.2577 19.1896C24.016 20.2667 25.0004 21.5115 25.0004 22.3958C25.0004 23.0865 24.726 23.7489 24.2377 24.2373C23.7493 24.7256 23.0869 25 22.3962 25C21.7056 25 21.0432 24.7256 20.5548 24.2373C20.0664 23.7489 19.7921 23.0865 19.7921 22.3958C19.7921 21.5886 20.7931 20.3042 21.5546 19.199C21.65 19.062 21.7769 18.9499 21.9247 18.8722C22.0725 18.7945 22.2367 18.7535 22.4037 18.7525C22.5707 18.7516 22.7354 18.7908 22.884 18.8669C23.0326 18.943 23.1608 19.0536 23.2577 19.1896ZM22.3442 14.4417L13.3108 23.475C12.3333 24.4502 11.0088 24.9979 9.628 24.9979C8.24718 24.9979 6.92274 24.4502 5.94518 23.475L1.52643 19.0552C0.549697 18.0785 0.000976563 16.7537 0.000976562 15.3724C0.000976563 13.9911 0.549697 12.6663 1.52643 11.6896L7.47331 5.74168L4.4983 2.73127C4.30937 2.53379 4.20561 2.26997 4.2094 1.9967C4.21319 1.72342 4.32423 1.46258 4.51857 1.27042C4.71292 1.07826 4.975 0.970183 5.2483 0.969483C5.5216 0.968784 5.78423 1.07552 5.97956 1.26668L8.94623 4.27085L10.5587 2.65627L9.6806 1.77814C9.49085 1.58168 9.38586 1.31855 9.38823 1.04543C9.3906 0.772311 9.50016 0.511048 9.69329 0.317914C9.88642 0.124781 10.1477 0.0152301 10.4208 0.0128568C10.6939 0.0104834 10.9571 0.115478 11.1535 0.305226L24.6952 13.8469C24.7947 13.943 24.874 14.0579 24.9286 14.185C24.9832 14.3121 25.012 14.4488 25.0132 14.5871C25.0144 14.7254 24.988 14.8626 24.9356 14.9906C24.8833 15.1186 24.8059 15.2349 24.7081 15.3327C24.6103 15.4305 24.494 15.5079 24.366 15.5602C24.238 15.6126 24.1008 15.639 23.9625 15.6378C23.8242 15.6366 23.6875 15.6078 23.5604 15.5532C23.4333 15.4987 23.3184 15.4193 23.2223 15.3198L22.3442 14.4417ZM20.8712 12.9688L12.0316 4.12918L10.4098 5.7521L15.3244 10.7292C15.431 10.8239 15.5171 10.9396 15.5772 11.0689C15.6374 11.1983 15.6703 11.3386 15.674 11.4813C15.6776 11.6239 15.652 11.7657 15.5985 11.898C15.5451 12.0303 15.4651 12.1502 15.3634 12.2503C15.2618 12.3504 15.1406 12.4285 15.0075 12.4799C14.8744 12.5312 14.7322 12.5547 14.5896 12.5488C14.4471 12.5429 14.3073 12.5078 14.1789 12.4457C14.0504 12.3835 13.9362 12.2956 13.8431 12.1875L8.93789 7.22397L3.00039 13.1615C2.71015 13.4517 2.47991 13.7962 2.32283 14.1754C2.16576 14.5545 2.08491 14.9609 2.08491 15.3714C2.08491 15.7818 2.16576 16.1882 2.32283 16.5674C2.47991 16.9466 2.71015 17.2911 3.00039 17.5813L7.41914 22.0011C8.00588 22.5859 8.80057 22.9144 9.62904 22.9144C10.4575 22.9144 11.2522 22.5859 11.8389 22.0011L20.8712 12.9688Z" fill="white"/>
</g>
<defs>
<clipPath id="clip0_9327_3560">
<rect width="25" height="25" fill="white"/>
</clipPath>
</defs>
</svg>
