<svg width="32" height="32" viewBox="0 0 32 32" fill="none" xmlns="http://www.w3.org/2000/svg">
<path d="M9.34682 24L4.00016 18.6534C2.21349 16.8667 2.21349 15.0933 4.00016 13.3067L12.9068 4.40002L22.7068 14.2001C23.2002 14.6934 23.2002 15.4934 22.7068 15.9867L14.6802 24.0134C12.9202 25.7734 11.1335 25.7734 9.34682 24Z" stroke="#757B8C" stroke-width="2" stroke-miterlimit="10" stroke-linecap="round" stroke-linejoin="round"/>
<path d="M11.1333 2.59998L12.92 4.3866" stroke="#757B8C" stroke-width="2" stroke-miterlimit="10" stroke-linecap="round" stroke-linejoin="round"/>
<path d="M2.75977 15.8933L22.9198 15.0133" stroke="#757B8C" stroke-width="2" stroke-miterlimit="10" stroke-linecap="round" stroke-linejoin="round"/>
<path d="M4 29.3334H21.3333" stroke="#757B8C" stroke-width="2" stroke-miterlimit="10" stroke-linecap="round" stroke-linejoin="round"/>
<path d="M25.1332 20C25.1332 20 22.6665 22.68 22.6665 24.32C22.6665 25.68 23.7732 26.7866 25.1332 26.7866C26.4932 26.7866 27.5998 25.68 27.5998 24.32C27.5998 22.68 25.1332 20 25.1332 20Z" stroke="#757B8C" stroke-width="2" stroke-linecap="round" stroke-linejoin="round"/>
</svg>
