<svg width="532" height="594" viewBox="0 0 532 594" fill="none" xmlns="http://www.w3.org/2000/svg">
<path d="M26 101.259H269.605C276.947 134.678 306.791 159.767 342.383 159.767C377.975 159.767 407.819 134.679 415.161 101.259H506C514.836 101.259 522 94.095 522 85.259C522 76.423 514.836 69.259 506 69.259H415.153C407.797 35.857 377.912 10.752 342.383 10.752C306.835 10.752 276.964 35.853 269.611 69.259H26C17.164 69.259 10 76.423 10 85.259C10 94.095 17.164 101.259 26 101.259ZM299.877 85.301C299.877 85.244 299.878 85.186 299.878 85.129C299.948 61.762 319.015 42.753 342.383 42.753C365.718 42.753 384.786 61.736 384.887 85.092L384.89 85.327C384.853 108.734 365.799 127.768 342.383 127.768C318.977 127.768 299.929 108.753 299.876 85.36L299.877 85.301ZM506 492.74H415.153C407.796 459.339 377.912 434.233 342.383 434.233C306.835 434.233 276.964 459.335 269.611 492.74H26C17.164 492.74 10 499.903 10 508.74C10 517.577 17.164 524.74 26 524.74H269.605C276.947 558.159 306.791 583.248 342.383 583.248C377.975 583.248 407.819 558.159 415.161 524.74H506C514.836 524.74 522 517.577 522 508.74C522 499.903 514.836 492.74 506 492.74ZM342.383 551.248C318.977 551.248 299.929 532.233 299.876 508.84L299.877 508.782C299.877 508.724 299.878 508.667 299.878 508.61C299.948 485.243 319.015 466.233 342.383 466.233C365.718 466.233 384.786 485.216 384.887 508.571L384.89 508.806C384.856 532.216 365.801 551.248 342.383 551.248ZM506 281H262.395C255.053 247.581 225.209 222.493 189.617 222.493C154.025 222.493 124.181 247.581 116.839 281H26C17.164 281 10 288.164 10 297C10 305.837 17.164 313 26 313H116.847C124.204 346.401 154.088 371.507 189.617 371.507C225.165 371.507 255.036 346.405 262.389 313H506C514.836 313 522 305.837 522 297C522 288.164 514.836 281 506 281ZM232.123 296.958C232.123 297.016 232.122 297.073 232.122 297.13C232.052 320.497 212.985 339.506 189.617 339.506C166.282 339.506 147.214 320.523 147.113 297.168L147.11 296.934C147.145 273.524 166.2 254.493 189.617 254.493C213.023 254.493 232.071 273.507 232.124 296.901L232.123 296.958Z" fill="white" stroke="white" stroke-width="20"/>
</svg>
