<svg width="30" height="30" viewBox="0 0 30 30" fill="none" xmlns="http://www.w3.org/2000/svg">
<path d="M14.5419 5C9.27229 5 5.00003 9.27226 5.00003 14.5418C5.00003 19.8114 9.27229 24.0837 14.5419 24.0837C19.8114 24.0837 24.0837 19.8114 24.0837 14.5418C24.0837 9.27226 19.8114 5 14.5419 5Z" stroke="white" stroke-width="1.46797" stroke-miterlimit="10"/>
<path d="M14.5419 5C11.878 5 9.37322 9.27226 9.37322 14.5418C9.37322 19.8114 11.878 24.0837 14.5419 24.0837C17.2058 24.0837 19.7105 19.8114 19.7105 14.5418C19.7105 9.27226 17.2058 5 14.5419 5Z" stroke="white" stroke-width="1.46797" stroke-miterlimit="10"/>
<path d="M20.9032 20.9032C19.149 19.6577 16.9406 18.915 14.5419 18.915C12.1431 18.915 9.93472 19.6577 8.18049 20.9032M8.18049 8.18042C9.93472 9.4259 12.1431 10.1686 14.5419 10.1686C16.9406 10.1686 19.149 9.4259 20.9032 8.18042H8.18049Z" stroke="white" stroke-width="1.46797" stroke-linecap="round" stroke-linejoin="round"/>
<path d="M24.0837 14.5418H5.00003M14.5419 5V24.0837V5Z" stroke="white" stroke-width="1.46797" stroke-miterlimit="10"/>
</svg>
