<svg width="19" height="19" viewBox="0 0 19 19" fill="none" xmlns="http://www.w3.org/2000/svg">
<path fill-rule="evenodd" clip-rule="evenodd" d="M18.62 9.71589C18.62 9.04225 18.5595 8.39452 18.4473 7.77271H9.5V11.4475H14.6127C14.3925 12.635 13.7232 13.6411 12.717 14.3147V16.6984H15.7873C17.5836 15.0445 18.62 12.6091 18.62 9.71589Z" fill="#4285F4"/>
<path fill-rule="evenodd" clip-rule="evenodd" d="M9.50004 18.9999C12.065 18.9999 14.2155 18.1492 15.7873 16.6983L12.7171 14.3147C11.8664 14.8847 10.7782 15.2215 9.50004 15.2215C7.02573 15.2215 4.93141 13.5504 4.18436 11.3049H1.0105V13.7663C2.57368 16.8711 5.78641 18.9999 9.50004 18.9999Z" fill="#34A853"/>
<path fill-rule="evenodd" clip-rule="evenodd" d="M4.18432 11.305C3.99432 10.735 3.88636 10.1261 3.88636 9.50001C3.88636 8.87387 3.99432 8.26501 4.18432 7.69501V5.23364H1.01045C0.367045 6.51614 0 7.96705 0 9.50001C0 11.033 0.367045 12.4839 1.01045 13.7664L4.18432 11.305Z" fill="#FBBC05"/>
<path fill-rule="evenodd" clip-rule="evenodd" d="M9.50004 3.77841C10.8948 3.77841 12.1471 4.25773 13.1316 5.19909L15.8564 2.47432C14.2112 0.941364 12.0607 0 9.50004 0C5.78641 0 2.57368 2.12886 1.0105 5.23364L4.18436 7.695C4.93141 5.44954 7.02572 3.77841 9.50004 3.77841Z" fill="#EA4335"/>
</svg>
