<svg width="16" height="19" viewBox="0 0 16 19" fill="none" xmlns="http://www.w3.org/2000/svg">
<path d="M15 19H1C0.447715 19 0 18.5523 0 18V8.357C0.0154912 8.11194 0.119639 7.88089 0.293 7.707L7.293 0.706998C7.48057 0.519221 7.73509 0.413712 8.0005 0.413712C8.26591 0.413712 8.52043 0.519221 8.708 0.706998L15.708 7.707C15.8957 7.89428 16.0009 8.14882 16 8.414V18C16 18.5523 15.5523 19 15 19ZM7.378 14.475C7.598 14.655 7.811 14.831 8 15C8.2 14.823 8.424 14.64 8.662 14.446L8.719 14.399C9.885 13.448 11.337 12.265 11.337 10.799C11.3368 10.3153 11.142 9.85203 10.7964 9.51359C10.4508 9.17516 9.98359 8.99006 9.5 9C8.9278 8.99846 8.38213 9.2411 8 9.667C7.61795 9.24099 7.07222 8.99833 6.5 9C6.01658 8.9906 5.5497 9.17608 5.20452 9.51467C4.85935 9.85326 4.66491 10.3165 4.665 10.8C4.665 12.261 6.105 13.436 7.265 14.38H7.264H7.269L7.287 14.395H7.292L7.3 14.414L7.352 14.457L7.365 14.467H7.371L7.378 14.475Z" fill="#CDCDD7"/>
</svg>
