<svg width="24" height="24" viewBox="0 0 24 24" fill="none" xmlns="http://www.w3.org/2000/svg">
<path d="M18.1639 7.93V5.084C18.5405 4.90789 18.8595 4.62857 19.0838 4.27845C19.308 3.92833 19.4284 3.52178 19.4309 3.106V3.039C19.4293 2.45777 19.1978 1.90079 18.7869 1.48971C18.376 1.07863 17.8191 0.846848 17.2379 0.845H17.1709C16.5898 0.846846 16.0331 1.07849 15.6222 1.48935C15.2114 1.90022 14.9797 2.45695 14.9779 3.038V3.105C14.9797 3.51837 15.0982 3.92282 15.3197 4.27185C15.5411 4.62088 15.8566 4.90031 16.2299 5.078L16.2429 5.084V7.936C15.1547 8.10226 14.1302 8.55431 13.2739 9.246L13.2859 9.236L5.45787 3.141C5.60691 2.58266 5.55767 1.98991 5.31855 1.46381C5.07942 0.937711 4.66523 0.510841 4.14657 0.255979C3.62791 0.00111702 3.03692 -0.0659573 2.47434 0.0661924C1.91176 0.198342 1.41243 0.521533 1.06149 0.980663C0.710556 1.43979 0.529733 2.00643 0.549855 2.58397C0.569977 3.16151 0.789799 3.7142 1.17184 4.14779C1.55388 4.58138 2.07449 4.86904 2.6449 4.96171C3.21531 5.05439 3.80021 4.94634 4.29987 4.656L4.28787 4.662L11.9849 10.653C11.3044 11.6731 10.9431 12.8728 10.9469 14.099C10.9469 15.442 11.3719 16.687 12.0939 17.706L12.0809 17.686L9.73887 20.029C9.55138 19.9685 9.35587 19.9365 9.15887 19.934H9.15687C8.75478 19.934 8.36172 20.0532 8.0274 20.2766C7.69307 20.5 7.4325 20.8175 7.27863 21.189C7.12475 21.5605 7.08449 21.9693 7.16294 22.3636C7.24138 22.758 7.435 23.1202 7.71932 23.4045C8.00364 23.6889 8.36589 23.8825 8.76025 23.9609C9.15462 24.0394 9.56339 23.9991 9.93487 23.8452C10.3063 23.6914 10.6239 23.4308 10.8472 23.0965C11.0706 22.7621 11.1899 22.3691 11.1899 21.967C11.1872 21.7647 11.1534 21.5641 11.0899 21.372L11.0949 21.386L13.4119 19.069C14.1671 19.6453 15.0438 20.0417 15.9752 20.2281C16.9067 20.4146 17.8684 20.3862 18.7872 20.145C19.7061 19.9039 20.5578 19.4563 21.2776 18.8365C21.9975 18.2166 22.5665 17.4408 22.9414 16.568C23.3162 15.6951 23.4871 14.7483 23.441 13.7994C23.3949 12.8506 23.133 11.9248 22.6753 11.0924C22.2175 10.26 21.576 9.54301 20.7994 8.99588C20.0229 8.44875 19.1318 8.08592 18.1939 7.935L18.1579 7.93H18.1639ZM17.1999 17.308C16.5662 17.3062 15.9473 17.1167 15.4213 16.7634C14.8953 16.4101 14.4857 15.9088 14.2444 15.3229C14.0031 14.737 13.9409 14.0927 14.0655 13.4714C14.1901 12.8501 14.4961 12.2797 14.9447 11.8322C15.3933 11.3847 15.9645 11.0802 16.5861 10.9571C17.2077 10.834 17.8518 10.8979 18.4371 11.1406C19.0224 11.3834 19.5227 11.7942 19.8747 12.3211C20.2267 12.8479 20.4147 13.4673 20.4149 14.101V14.103C20.415 14.5242 20.3321 14.9413 20.171 15.3304C20.0099 15.7196 19.7737 16.0732 19.4759 16.371C19.178 16.6688 18.8244 16.905 18.4353 17.0661C18.0461 17.2273 17.6291 17.3101 17.2079 17.31L17.1999 17.308Z" fill="#6F7897"/>
</svg>
