<svg width="12" height="12" viewBox="0 0 12 12" fill="none" xmlns="http://www.w3.org/2000/svg">
<path d="M5.99155 -0.000125626C4.38835 0.0261205 2.85988 0.682231 1.73655 1.82637C1.17448 2.38596 0.731019 3.05313 0.432655 3.788C0.134292 4.52287 -0.0128424 5.31035 4.67749e-05 6.10337C-0.000875462 6.87827 0.151129 7.64573 0.447348 8.36177C0.743567 9.07781 1.17818 9.72835 1.72627 10.2761C2.27437 10.8239 2.92517 11.2581 3.64139 11.5539C4.35761 11.8497 5.12515 12.0013 5.90005 11.9999H6.00705C7.61073 11.9834 9.14238 11.3314 10.2659 10.1869C11.3895 9.04249 12.0131 7.49909 12 5.89537C12.0019 5.11108 11.8469 4.33434 11.5442 3.61082C11.2415 2.8873 10.7971 2.23162 10.2373 1.68233C9.67748 1.13304 9.01348 0.701228 8.28434 0.412296C7.55521 0.123364 6.77566 -0.0168589 5.99155 -0.000125626ZM5.25005 8.27087C5.24644 8.17284 5.26242 8.07506 5.29705 7.98328C5.33167 7.89149 5.38425 7.80752 5.45171 7.73629C5.51917 7.66506 5.60015 7.608 5.68993 7.56843C5.7797 7.52887 5.87646 7.5076 5.97455 7.50587H5.98805C6.18535 7.50625 6.37485 7.583 6.51681 7.72002C6.65877 7.85705 6.74218 8.04371 6.74955 8.24087C6.75322 8.33893 6.73729 8.43673 6.70269 8.52855C6.66808 8.62037 6.61551 8.70436 6.54804 8.7756C6.48056 8.84685 6.39955 8.90391 6.30975 8.94345C6.21995 8.98299 6.12316 9.00421 6.02505 9.00587H6.01155C5.81432 9.00525 5.62496 8.92842 5.48305 8.79145C5.34114 8.65448 5.25766 8.46796 5.25005 8.27087ZM5.50005 6.24987V3.24987C5.50005 3.11727 5.55272 2.99009 5.64649 2.89632C5.74026 2.80255 5.86744 2.74987 6.00005 2.74987C6.13265 2.74987 6.25983 2.80255 6.3536 2.89632C6.44737 2.99009 6.50005 3.11727 6.50005 3.24987V6.24987C6.50005 6.38248 6.44737 6.50966 6.3536 6.60343C6.25983 6.6972 6.13265 6.74987 6.00005 6.74987C5.86744 6.74987 5.74026 6.6972 5.64649 6.60343C5.55272 6.50966 5.50005 6.38248 5.50005 6.24987Z" fill="#1877F2"/>
</svg>
