<svg width="24" height="24" viewBox="0 0 24 24" fill="none" xmlns="http://www.w3.org/2000/svg">
<g clip-path="url(#clip0_3426_14944)">
<path d="M13.5375 16.3875L10.8195 19.1055C9.16137 20.7193 6.50898 20.6834 4.89519 19.0253C3.31253 17.3992 3.31217 14.8086 4.89437 13.1821L7.61237 10.4616C7.93772 10.136 7.93753 9.6083 7.61194 9.28295C7.28635 8.9576 6.75868 8.95779 6.43333 9.28338L3.71615 12.0039C1.42974 14.2915 1.43068 17.9994 3.71822 20.2858C6.00576 22.5723 9.71372 22.5713 12.0002 20.2838L14.7182 17.5658C15.0379 17.2347 15.0287 16.7073 14.6977 16.3876C14.3748 16.0757 13.8629 16.0757 13.54 16.3876H13.5375V16.3875Z" fill="#DDDEE3"/>
<path d="M20.2854 3.71732C19.1903 2.6146 17.6992 1.99615 16.1451 2.00002C14.5918 1.99588 13.1013 2.61304 12.0056 3.714L9.28338 6.43283C8.95779 6.75818 8.9576 7.28585 9.28295 7.61144C9.6083 7.93703 10.136 7.93722 10.4616 7.61187L13.1821 4.89386C13.9656 4.1056 15.032 3.66366 16.1434 3.66651C18.4572 3.66729 20.3323 5.54359 20.3315 7.85739C20.3311 8.96788 19.8899 10.0328 19.1047 10.8182L16.3867 13.5362C16.0611 13.8618 16.0611 14.3896 16.3867 14.7152C16.7123 15.0408 17.2401 15.0408 17.5657 14.7152L20.2837 11.9989C22.5669 9.71069 22.5677 6.00635 20.2854 3.71732Z" fill="#DDDEE3"/>
<path d="M13.911 8.91015L8.9116 13.9096C8.58058 14.2293 8.57144 14.7568 8.89113 15.0877C9.21082 15.4187 9.73834 15.4279 10.0693 15.1082C10.0763 15.1015 10.0831 15.0947 10.0898 15.0877L15.0892 10.0883C15.4089 9.75731 15.3997 9.22984 15.0687 8.91015C14.7458 8.59831 14.2339 8.59831 13.911 8.91015Z" fill="#DDDEE3"/>
</g>
<defs>
<clipPath id="clip0_3426_14944">
<rect width="20" height="20" fill="white" transform="translate(2 2)"/>
</clipPath>
</defs>
</svg>
