<?xml version="1.0"?>
<svg xmlns="http://www.w3.org/2000/svg" xmlns:xlink="http://www.w3.org/1999/xlink" xmlns:svgjs="http://svgjs.com/svgjs" version="1.1" width="512" height="512" x="0" y="0" viewBox="0 0 64 64" style="enable-background:new 0 0 512 512" xml:space="preserve"><g><g xmlns="http://www.w3.org/2000/svg" id="website_support" data-name="website support"><path d="m59 2h-54a3.009 3.009 0 0 0 -3 3v37a3.009 3.009 0 0 0 3 3h10.41a.518.518 0 0 1 -.04.39l-2.52 4.19a3 3 0 0 0 .46 3.67l3.44 3.44a3 3 0 0 0 3.67.46l4.19-2.52a.586.586 0 0 1 .52-.01.566.566 0 0 1 .34.37l1.18 4.74a3 3 0 0 0 2.91 2.27h4.88a3 3 0 0 0 2.91-2.27l1.18-4.74a.586.586 0 0 1 .36-.38.578.578 0 0 1 .5.02l4.19 2.52a3.013 3.013 0 0 0 3.67-.46l3.44-3.44a3 3 0 0 0 .46-3.67l-2.52-4.19a.57.57 0 0 1 -.04-.39h10.41a3.009 3.009 0 0 0 3-3v-37a3.009 3.009 0 0 0 -3-3zm-5 38.44a1 1 0 0 1 -.76.97l-4.74 1.18a2.594 2.594 0 0 0 -1.74 1.54 2.565 2.565 0 0 0 .16 2.29l2.51 4.19a.985.985 0 0 1 -.15 1.22l-3.45 3.45a.985.985 0 0 1 -1.22.15l-4.19-2.51a2.614 2.614 0 0 0 -3.83 1.58l-1.18 4.74a1 1 0 0 1 -.97.76h-4.88a1 1 0 0 1 -.97-.76l-1.18-4.74a2.594 2.594 0 0 0 -1.54-1.74 2.663 2.663 0 0 0 -1-.2 2.464 2.464 0 0 0 -1.29.36l-4.19 2.51a.985.985 0 0 1 -1.22-.15l-3.45-3.45a.985.985 0 0 1 -.15-1.22l2.51-4.19a2.614 2.614 0 0 0 -1.58-3.83l-4.74-1.18a1 1 0 0 1 -.76-.97v-4.88a1 1 0 0 1 .76-.97l4.74-1.18a2.594 2.594 0 0 0 1.74-1.54 2.565 2.565 0 0 0 -.16-2.29l-2.51-4.19a.985.985 0 0 1 .15-1.22l3.45-3.45a.985.985 0 0 1 1.22-.15l4.19 2.51a2.614 2.614 0 0 0 3.83-1.58l1.18-4.74a1 1 0 0 1 .97-.76h4.88a1 1 0 0 1 .97.76l1.18 4.74a2.594 2.594 0 0 0 1.54 1.74 2.565 2.565 0 0 0 2.29-.16l4.19-2.51a1 1 0 0 1 1.22.15l3.45 3.45a.985.985 0 0 1 .15 1.22l-2.51 4.19a2.614 2.614 0 0 0 1.58 3.83l4.74 1.18a1 1 0 0 1 .76.97zm6 1.56a1 1 0 0 1 -1 1h-4.45a2.99 2.99 0 0 0 1.45-2.56v-4.88a3 3 0 0 0 -2.27-2.91l-4.74-1.18a.585.585 0 0 1 -.34-.25c-.01-.03-.03-.08-.04-.11a.578.578 0 0 1 .02-.5l2.52-4.19a3 3 0 0 0 -.46-3.67l-3.44-3.44a3 3 0 0 0 -3.67-.46l-4.19 2.52a.586.586 0 0 1 -.52.01.566.566 0 0 1 -.34-.37l-1.18-4.74a3 3 0 0 0 -2.91-2.27h-4.88a3 3 0 0 0 -2.91 2.27l-1.18 4.74a.586.586 0 0 1 -.36.38.578.578 0 0 1 -.5-.02l-4.19-2.52a3.013 3.013 0 0 0 -3.67.46l-3.44 3.44a3 3 0 0 0 -.46 3.67l2.52 4.19a.586.586 0 0 1 .01.52.566.566 0 0 1 -.37.34l-4.74 1.18a3 3 0 0 0 -2.27 2.91v4.88a2.99 2.99 0 0 0 1.45 2.56h-4.45a1 1 0 0 1 -1-1v-30h56zm0-32h-56v-5a1 1 0 0 1 1-1h54a1 1 0 0 1 1 1z" fill="#ffffff" data-original="#000000"/><path d="m6 6h2v2h-2z" fill="#ffffff" data-original="#000000"/><path d="m10 6h2v2h-2z" fill="#ffffff" data-original="#000000"/><path d="m14 6h2v2h-2z" fill="#ffffff" data-original="#000000"/><path d="m32 26a12 12 0 1 0 12 12 12.013 12.013 0 0 0 -12-12zm0 22a10 10 0 1 1 10-10 10.011 10.011 0 0 1 -10 10z" fill="#ffffff" data-original="#000000"/><path d="m31 37h2v2h-2z" fill="#ffffff" data-original="#000000"/><path d="m35 37h2v2h-2z" fill="#ffffff" data-original="#000000"/><path d="m27 37h2v2h-2z" fill="#ffffff" data-original="#000000"/></g></g></svg>
