<svg width="25" height="14" viewBox="0 0 25 14" fill="none" xmlns="http://www.w3.org/2000/svg">
<path d="M7.70819 0.784332C7.61207 0.622882 7.47566 0.489175 7.31232 0.396318C7.14898 0.30346 6.96431 0.254639 6.77641 0.254639C6.58852 0.254639 6.40385 0.30346 6.24051 0.396318C6.07717 0.489175 5.94076 0.622882 5.84464 0.784332L0.115478 12.2427C0.0530677 12.3652 0.0155218 12.4988 0.00500538 12.6359C-0.00551102 12.773 0.0112101 12.9108 0.0542047 13.0413C0.0971992 13.1719 0.165617 13.2927 0.255513 13.3967C0.345408 13.5007 0.455004 13.5859 0.577981 13.6474C0.700957 13.7088 0.834882 13.7453 0.972034 13.7548C1.10919 13.7642 1.24685 13.7464 1.37709 13.7024C1.50733 13.6584 1.62758 13.589 1.73088 13.4983C1.83419 13.4076 1.91853 13.2974 1.97902 13.1739L3.76964 9.5833H9.77381L11.5696 13.1739C11.6301 13.2974 11.7145 13.4076 11.8178 13.4983C11.9211 13.589 12.0413 13.6584 12.1716 13.7024C12.3018 13.7464 12.4395 13.7642 12.5766 13.7548C12.7138 13.7453 12.8477 13.7088 12.9707 13.6474C13.0937 13.5859 13.2033 13.5007 13.2931 13.3967C13.383 13.2927 13.4515 13.1719 13.4945 13.0413C13.5375 12.9108 13.5542 12.773 13.5437 12.6359C13.5331 12.4988 13.4956 12.3652 13.4332 12.2427L7.70819 0.784332ZM4.81131 7.49996L6.77069 3.57913L8.73214 7.49996H4.81131Z" fill="#757B8C"/>
<path d="M23.958 3.33325C23.6817 3.33325 23.4168 3.443 23.2214 3.63835C23.0261 3.8337 22.9163 4.09865 22.9163 4.37492V4.402C22.0201 3.71262 20.922 3.33708 19.7913 3.33325C18.41 3.33325 17.0852 3.88199 16.1085 4.85874C15.1317 5.83549 14.583 7.16025 14.583 8.54159C14.583 9.92292 15.1317 11.2477 16.1085 12.2244C17.0852 13.2012 18.41 13.7499 19.7913 13.7499C20.922 13.7461 22.0201 13.3706 22.9163 12.6812V12.7083C22.9163 12.9845 23.0261 13.2495 23.2214 13.4448C23.4168 13.6402 23.6817 13.7499 23.958 13.7499C24.2343 13.7499 24.4992 13.6402 24.6946 13.4448C24.8899 13.2495 24.9997 12.9845 24.9997 12.7083V4.37492C24.9997 4.09865 24.8899 3.8337 24.6946 3.63835C24.4992 3.443 24.2343 3.33325 23.958 3.33325ZM19.7913 11.6666C19.1733 11.6666 18.5691 11.4833 18.0552 11.1399C17.5413 10.7965 17.1407 10.3085 16.9042 9.73747C16.6677 9.16645 16.6058 8.53812 16.7264 7.93193C16.847 7.32574 17.1446 6.76892 17.5816 6.33188C18.0187 5.89484 18.5755 5.59721 19.1817 5.47663C19.7879 5.35605 20.4162 5.41794 20.9872 5.65446C21.5582 5.89099 22.0463 6.29152 22.3897 6.80543C22.7331 7.31933 22.9163 7.92352 22.9163 8.54159C22.9163 9.37039 22.5871 10.1652 22.001 10.7513C21.415 11.3373 20.6201 11.6666 19.7913 11.6666Z" fill="#757B8C"/>
</svg>
