<svg width="25" height="25" viewBox="0 0 25 25" fill="none" xmlns="http://www.w3.org/2000/svg">
<path d="M7.70843 5.78433C7.61232 5.62288 7.47591 5.48917 7.31256 5.39632C7.14922 5.30346 6.96455 5.25464 6.77666 5.25464C6.58877 5.25464 6.4041 5.30346 6.24076 5.39632C6.07741 5.48917 5.941 5.62288 5.84489 5.78433L0.115722 17.2427C0.0533118 17.3652 0.0157659 17.4988 0.00524952 17.6359C-0.00526688 17.773 0.0114542 17.9108 0.0544488 18.0413C0.0974434 18.1719 0.165861 18.2927 0.255757 18.3967C0.345652 18.5007 0.455248 18.5859 0.578225 18.6474C0.701201 18.7088 0.835127 18.7453 0.972278 18.7548C1.10943 18.7642 1.2471 18.7464 1.37734 18.7024C1.50758 18.6584 1.62782 18.589 1.73113 18.4983C1.83444 18.4076 1.91877 18.2974 1.97926 18.1739L3.76989 14.5833H9.77405L11.5699 18.1739C11.6304 18.2974 11.7147 18.4076 11.818 18.4983C11.9213 18.589 12.0416 18.6584 12.1718 18.7024C12.3021 18.7464 12.4397 18.7642 12.5769 18.7548C12.714 18.7453 12.8479 18.7088 12.9709 18.6474C13.0939 18.5859 13.2035 18.5007 13.2934 18.3967C13.3833 18.2927 13.4517 18.1719 13.4947 18.0413C13.5377 17.9108 13.5544 17.773 13.5439 17.6359C13.5334 17.4988 13.4958 17.3652 13.4334 17.2427L7.70843 5.78433ZM4.81156 12.5L6.77093 8.57913L8.73239 12.5H4.81156Z" fill="white"/>
<path d="M23.9585 8.33325C23.6822 8.33325 23.4173 8.443 23.2219 8.63835C23.0266 8.8337 22.9168 9.09865 22.9168 9.37492V9.402C22.0206 8.71262 20.9225 8.33708 19.7918 8.33325C18.4105 8.33325 17.0857 8.88199 16.109 9.85874C15.1322 10.8355 14.5835 12.1602 14.5835 13.5416C14.5835 14.9229 15.1322 16.2477 16.109 17.2244C17.0857 18.2012 18.4105 18.7499 19.7918 18.7499C20.9225 18.7461 22.0206 18.3706 22.9168 17.6812V17.7083C22.9168 17.9845 23.0266 18.2495 23.2219 18.4448C23.4173 18.6402 23.6822 18.7499 23.9585 18.7499C24.2348 18.7499 24.4997 18.6402 24.6951 18.4448C24.8904 18.2495 25.0002 17.9845 25.0002 17.7083V9.37492C25.0002 9.09865 24.8904 8.8337 24.6951 8.63835C24.4997 8.443 24.2348 8.33325 23.9585 8.33325ZM19.7918 16.6666C19.1738 16.6666 18.5696 16.4833 18.0557 16.1399C17.5418 15.7965 17.1412 15.3085 16.9047 14.7375C16.6682 14.1665 16.6063 13.5381 16.7269 12.9319C16.8475 12.3257 17.1451 11.7689 17.5821 11.3319C18.0192 10.8948 18.576 10.5972 19.1822 10.4766C19.7884 10.3561 20.4167 10.4179 20.9877 10.6545C21.5587 10.891 22.0468 11.2915 22.3902 11.8054C22.7336 12.3193 22.9168 12.9235 22.9168 13.5416C22.9168 14.3704 22.5876 15.1652 22.0015 15.7513C21.4155 16.3373 20.6206 16.6666 19.7918 16.6666Z" fill="white"/>
</svg>
