<svg width="16" height="16" viewBox="0 0 16 16" fill="none" xmlns="http://www.w3.org/2000/svg">
<path d="M13.5 7.33195C14.7887 7.33195 15.8334 6.28728 15.8334 4.99862C15.8334 3.70995 14.7887 2.66528 13.5 2.66528C12.2114 2.66528 11.1667 3.70995 11.1667 4.99862C11.1667 6.28728 12.2114 7.33195 13.5 7.33195Z" fill="#6F7897"/>
<path d="M8.83331 4.33203C9.93788 4.33203 10.8333 3.4366 10.8333 2.33203C10.8333 1.22746 9.93788 0.332031 8.83331 0.332031C7.72874 0.332031 6.83331 1.22746 6.83331 2.33203C6.83331 3.4366 7.72874 4.33203 8.83331 4.33203Z" fill="#6F7897"/>
<path d="M4.16669 5.66528C5.27126 5.66528 6.16669 4.76985 6.16669 3.66528C6.16669 2.56071 5.27126 1.66528 4.16669 1.66528C3.06212 1.66528 2.16669 2.56071 2.16669 3.66528C2.16669 4.76985 3.06212 5.66528 4.16669 5.66528Z" fill="#6F7897"/>
<path d="M1.83335 9.33199C2.75383 9.33199 3.50002 8.5858 3.50002 7.66532C3.50002 6.74485 2.75383 5.99866 1.83335 5.99866C0.912879 5.99866 0.166687 6.74485 0.166687 7.66532C0.166687 8.5858 0.912879 9.33199 1.83335 9.33199Z" fill="#6F7897"/>
<path d="M2.83335 13.332C3.75383 13.332 4.50002 12.5858 4.50002 11.6653C4.50002 10.7448 3.75383 9.99866 2.83335 9.99866C1.91288 9.99866 1.16669 10.7448 1.16669 11.6653C1.16669 12.5858 1.91288 13.332 2.83335 13.332Z" fill="#6F7897"/>
<path d="M6.16665 15.6653C6.90303 15.6653 7.49998 15.0684 7.49998 14.332C7.49998 13.5956 6.90303 12.9987 6.16665 12.9987C5.43027 12.9987 4.83331 13.5956 4.83331 14.332C4.83331 15.0684 5.43027 15.6653 6.16665 15.6653Z" fill="#6F7897"/>
<path d="M9.75 15.4293C10.3023 15.4293 10.75 14.9816 10.75 14.4293C10.75 13.877 10.3023 13.4293 9.75 13.4293C9.19772 13.4293 8.75 13.877 8.75 14.4293C8.75 14.9816 9.19772 15.4293 9.75 15.4293Z" fill="#6F7897"/>
</svg>
