<svg width="287" height="65" viewBox="0 0 287 65" fill="none" xmlns="http://www.w3.org/2000/svg">
<g clip-path="url(#clip0_1218_2)">
<path d="M123.16 14.62V9.51001H116.16V16.67H110.6V22.59H116.13V38.29C116.13 42.29 117.13 45.06 119.18 46.77C121.23 48.48 123.99 49.33 127.49 49.33H135V43H129.08C127.52 43.12 125.97 42.77 124.61 42C123.61 41.32 123.17 40 123.17 38V22.59H135V16.67H123.16V14.62Z" fill="white"/>
<path d="M192.41 42.19L180.89 16.67H173.07L188.32 49.33H189.19H195.64H196.51L211.76 16.67H203.94L192.41 42.19Z" fill="white"/>
<path d="M242.58 32.84C242.58 36.39 241.74 39.05 240.05 40.84C238.36 42.63 235.7 43.54 232.05 43.57C228.58 43.57 226.1 42.79 224.59 41.23C223.08 39.67 222.32 37.39 222.32 34.37V16.67H215.32V36.32C215.28 38.71 215.8 41.07 216.83 43.22C217.83 45.27 219.4 46.98 221.36 48.15C225.98 50.51 231.42 50.6 236.12 48.41C238.03 47.41 239.76 46.12 241.26 44.57C241.97 43.77 242.61 42.91 243.17 42V49.3H249.68V16.67H242.58V32.84Z" fill="white"/>
<path d="M282.92 33C279.13 31.3 272.04 30.8 268.29 30.21C265.88 29.86 263.29 29.4 262.39 28.83C260.39 27.61 260.78 23.72 262.85 22.72C264.04 22.02 266.48 21.72 270.13 21.72C275.84 21.72 279.7 21.64 279.49 28.03H286.37C286.54 19.28 281.95 16.03 270.37 16.03C263.37 16.03 255.12 17.17 255.12 25.83C255.12 29.83 256.44 31.83 258.58 33.02C262.37 34.72 269.46 35.23 273.2 35.82C275.61 36.17 278.2 36.63 279.1 37.2C281.1 38.42 280.72 42.3 278.64 43.31C277.46 44.01 275.01 44.36 271.36 44.36C265.64 44.36 261.86 44.54 261.68 38.05H255.13C254.96 46.8 259.55 50.05 271.13 50.05C278.13 50.05 286.38 48.91 286.38 40.26C286.37 36.21 285.05 34.17 282.92 33Z" fill="white"/>
<path d="M165.46 17.76C162.82 16.5 159.92 15.9 157 16C153.94 15.92 150.91 16.5 148.1 17.71C145.81 18.7 143.84 20.31 142.41 22.35C141.55 23.63 140.95 25.08 140.67 26.6L147.6 27.46C147.77 26.01 148.53 24.69 149.71 23.82C151.2 22.82 153.45 22.25 156.48 22.25C159.51 22.25 161.86 22.78 163.15 23.86C164.44 24.94 165.09 26.86 165.09 29.54V31.45L150.18 33C148.27 33.2 146.39 33.67 144.6 34.38C143.17 34.95 141.92 35.91 141 37.14C140.12 38.4 139.67 39.91 139.72 41.45C139.62 43.91 140.74 46.26 142.72 47.72C145.06 49.33 147.87 50.13 150.71 50C153.97 50.12 157.19 49.31 160.01 47.67C162.2 46.44 164.07 44.73 165.5 42.67V49.37H172V29.49C172.06 27.06 171.5 24.65 170.39 22.49C169.27 20.44 167.55 18.79 165.46 17.76ZM163.46 40.92C162.35 42.33 160.83 43.38 159.12 43.92C157.02 44.61 154.83 44.95 152.62 44.92C151.07 45.02 149.53 44.68 148.18 43.92C147.23 43.26 146.69 42.15 146.77 41C146.69 39.91 147.2 38.87 148.11 38.27C149.39 37.61 150.79 37.22 152.22 37.12L165 35.67C165.09 37.54 164.55 39.39 163.46 40.92Z" fill="white"/>
<path d="M50.1301 36.49L63.5701 49.93C63.7701 50.13 63.7701 50.44 63.5701 50.64L50.1301 64.07C49.9301 64.27 49.6201 64.27 49.4201 64.07L35.9901 50.63C35.7901 50.43 35.7901 50.12 35.9901 49.92L49.4301 36.48C49.6201 36.3 49.9301 36.3 50.1301 36.49Z" fill="white"/>
<path d="M32.4599 18.81L45.8999 32.24C46.0999 32.44 46.0999 32.75 45.8999 32.95L32.4599 46.39C32.2599 46.59 31.9499 46.59 31.7499 46.39L18.3199 32.95C18.1199 32.75 18.1199 32.44 18.3199 32.24L31.7599 18.8C31.9499 18.61 32.2599 18.61 32.4599 18.81Z" fill="white"/>
<path fill-rule="evenodd" clip-rule="evenodd" d="M1.13998 49.43L14.07 36.49C14.27 36.3 14.58 36.3 14.78 36.49L27.71 49.43C27.91 49.61 27.92 49.92 27.74 50.12C27.64 50.23 27.5 50.28 27.36 50.28H1.48998C1.21998 50.29 0.98998 50.08 0.97998 49.81C0.97998 49.67 1.02998 49.53 1.13998 49.43Z" fill="white"/>
<path d="M50.1301 1.12997L63.5701 14.57C63.7701 14.77 63.7701 15.08 63.5701 15.28L50.1301 28.71C49.9301 28.91 49.6201 28.91 49.4201 28.71L35.9901 15.27C35.7901 15.07 35.7901 14.76 35.9901 14.56L49.4301 1.11997C49.6201 0.929974 49.9401 0.929972 50.1301 1.12997Z" fill="white"/>
<path d="M67.81 18.81L81.25 32.25C81.45 32.45 81.45 32.76 81.25 32.96L67.81 46.39C67.61 46.59 67.3 46.59 67.1 46.39L53.67 32.95C53.47 32.75 53.47 32.44 53.67 32.24L67.11 18.8C67.3 18.62 67.62 18.62 67.81 18.81Z" fill="white"/>
<path fill-rule="evenodd" clip-rule="evenodd" d="M71.85 49.43L84.78 36.49C84.98 36.3 85.29 36.3 85.49 36.49L98.42 49.43C98.62 49.61 98.63 49.92 98.45 50.12C98.35 50.23 98.21 50.28 98.07 50.28H72.2C71.92 50.28 71.7 50.05 71.71 49.77C71.71 49.64 71.76 49.52 71.85 49.43Z" fill="white"/>
</g>
<defs>
<clipPath id="clip0_1218_2">
<rect width="287" height="65" fill="white"/>
</clipPath>
</defs>
</svg>
