<svg width="60" height="60" viewBox="0 0 60 60" fill="none" xmlns="http://www.w3.org/2000/svg">
<rect width="60" height="60" rx="15" fill="#FC5A5A"/>
<g clip-path="url(#clip0_1_9)">
<path d="M28.9161 29.3968C28.5624 33.8942 28.2062 38.3915 27.8474 42.8889C27.7975 42.9262 27.7359 42.9428 27.6747 42.9355C27.6135 42.9281 27.5571 42.8973 27.5169 42.8492C21.1588 37.6032 17.038 31.0159 16.0847 22.5317C15.8463 20.3651 15.954 20.2619 17.9298 21.0555C19.0987 21.5035 20.2195 22.0753 21.2741 22.7619C21.8969 23.1825 22.0814 22.9841 22.1583 22.3254C22.3972 20.7277 22.7649 19.1535 23.2577 17.619C23.4652 16.9206 23.6882 16.8254 24.3032 17.2222C26.3842 18.6559 28.1668 20.5043 29.5465 22.6587C29.6157 22.7619 29.7003 22.8571 29.8156 23.0159C30.9088 21.5009 32.1706 20.1237 33.5751 18.9127C34.3016 18.3208 35.0728 17.79 35.8815 17.3254C36.3658 17.0555 36.5811 17.1746 36.781 17.7063C37.4409 19.4601 37.825 21.3115 37.9188 23.1905C39.2526 22.3698 40.6427 21.6509 42.0781 21.0397C44.0616 20.2857 44.0924 20.246 43.8771 22.4285C43.0084 31.0555 38.826 37.6984 32.2988 42.9286C32.2316 42.951 32.1618 42.9644 32.0913 42.9682C31.999 41.8254 31.8914 40.6905 31.8145 39.5555C31.6223 36.8968 31.4608 34.2301 31.2533 31.5635C31.2355 31.386 31.2729 31.2074 31.36 31.0533C31.447 30.8993 31.5793 30.7778 31.7376 30.7063C32.3202 30.3357 32.8549 29.8903 33.3291 29.3809H28.9161C28.9161 28.4841 28.87 27.5952 28.9161 26.7063C28.9161 25.9603 28.6086 25.9127 28.0396 26C27.4214 26.1763 26.8618 26.5239 26.4213 27.0052C25.9809 27.4865 25.6764 28.083 25.541 28.7301C25.4488 29.2143 25.541 29.3968 26.0561 29.3889C27.0018 29.3889 27.9628 29.4047 28.9161 29.3968Z" fill="white"/>
</g>
<defs>
<clipPath id="clip0_1_9">
<rect width="28" height="26" fill="white" transform="translate(16 17)"/>
</clipPath>
</defs>
</svg>
