<svg width="182" height="35" viewBox="0 0 182 35" fill="none" xmlns="http://www.w3.org/2000/svg">
<path d="M18.4013 16.9739C18.1358 19.9387 17.8583 22.9035 17.6048 25.8703C17.3493 28.8647 17.1158 31.8612 16.8703 34.8932C8.56251 30.7219 -1.18842 12.8343 0.578127 4.7587C3.32475 5.97508 6.01948 7.16772 8.61042 8.31487C9.28909 5.67642 9.99571 2.92128 10.7462 0C14.6466 2.08465 17.2735 5.06527 19.6508 8.41179C22.2418 5.10878 24.9904 2.1341 28.9686 0.433149C30.274 3.02017 30.785 5.75356 30.9308 8.46519C33.7213 7.21717 36.4719 5.98892 39.2665 4.73892C41.2186 12.6187 31.7472 29.9149 22.8745 34.998C22.7268 33.2634 22.5631 31.5546 22.4414 29.8418C22.2038 26.4794 22.0022 23.1151 21.7527 19.7528C21.7088 19.1653 21.8026 18.7816 22.3835 18.4909C23.1859 18.0874 23.9324 17.5771 24.8886 16.9996C22.5751 16.9996 20.4752 16.9996 18.3733 16.9996C18.3733 15.4351 18.3733 13.8706 18.3733 12.324C16.1297 11.9086 13.1635 14.6598 13.7504 16.9739C15.2854 16.9739 16.8443 16.9739 18.4013 16.9739Z" fill="#F2F2F2"/>
<path d="M180.743 14.8262C179.813 14.8262 178.987 14.8579 178.164 14.8045C177.939 14.7906 177.637 14.5651 177.532 14.3575C176.901 13.1213 175.809 12.609 174.512 12.4014C172.935 12.1502 171.406 12.1957 170.024 13.1411C169.096 13.776 168.799 14.6977 168.974 15.7123C169.136 16.6439 169.625 17.346 170.709 17.6051C172.923 18.1312 175.126 18.7147 177.302 19.3792C179.965 20.1921 181.176 21.6715 181.35 24.0944C181.54 26.7368 180.448 28.5861 178.027 29.8084C175.374 31.1474 169.529 30.9971 167.178 28.6988C166.138 27.6822 165.531 26.5311 165.333 25.0062C166.25 25.0062 167.106 24.9785 167.958 25.0279C168.144 25.0378 168.401 25.289 168.477 25.4848C168.863 26.4738 169.607 27.1225 170.561 27.4528C172.561 28.145 174.579 28.2598 176.548 27.2787C177.745 26.6814 178.276 25.742 178.174 24.4089C178.077 23.1312 177.236 22.4548 176.162 22.1166C174.623 21.63 173.028 21.3056 171.456 20.9239C169.489 20.4453 167.743 19.6996 166.481 17.9769C165.326 16.3986 165.475 12.8405 167.535 11.2898C170.44 9.1043 173.653 9.04299 176.967 10.202C179.123 10.9496 180.292 12.5319 180.743 14.8262Z" fill="#F2F2F2"/>
<path d="M134.741 9.88525C135.753 9.88525 136.711 9.88525 137.817 9.88525C137.817 10.2512 137.817 10.5953 137.817 10.9414C137.817 14.4462 137.795 17.9529 137.827 21.4576C137.843 23.3228 138.157 25.1364 139.678 26.4517C141.504 28.034 143.652 28.1566 145.843 27.4426C147.995 26.7405 149.121 25.1186 149.183 22.9272C149.295 18.9992 149.281 15.0692 149.321 11.1412C149.325 10.7555 149.321 10.3678 149.321 9.91492C150.389 9.91492 151.369 9.91492 152.435 9.91492C152.463 10.1523 152.516 10.3995 152.516 10.6447C152.522 14.5095 152.602 18.3781 152.492 22.2409C152.413 25.0079 151.558 27.5118 149.065 29.1851C147.351 30.3382 145.43 30.7258 143.402 30.7001C140.851 30.6665 138.564 29.9565 136.787 28.0459C135.424 26.5803 134.799 24.7883 134.767 22.858C134.691 18.572 134.741 14.2879 134.741 9.88525Z" fill="#F2F2F2"/>
<path d="M112.313 26.3391C113.407 23.7006 114.419 21.258 115.431 18.8173C116.581 16.0444 117.717 13.2655 118.904 10.5084C119.028 10.2236 119.435 9.90713 119.741 9.87747C120.593 9.79242 121.459 9.8478 122.487 9.8478C121.685 11.7881 120.946 13.6196 120.172 15.4352C118.204 20.0555 116.2 24.6619 114.263 29.296C113.89 30.19 113.467 30.6033 112.409 30.5302C110.766 30.4154 110.758 30.5005 110.11 28.9716C108.565 25.3324 107.036 21.6872 105.477 18.0559C104.449 15.6607 103.375 13.2833 102.327 10.8941C102.199 10.6033 102.115 10.2948 101.959 9.84978C103.073 9.84978 104.057 9.81813 105.037 9.87549C105.239 9.88735 105.503 10.1959 105.6 10.4234C107.089 13.8984 108.567 17.3794 110.024 20.8684C110.664 22.4032 111.247 23.9597 111.866 25.5025C111.96 25.7359 112.104 25.9495 112.313 26.3391Z" fill="#F2F2F2"/>
<path d="M93.5359 30.2847C93.4082 30.3381 93.3782 30.3598 93.3463 30.3618C90.3561 30.518 90.3861 30.5062 89.1964 27.7135C87.5436 23.8389 85.839 19.984 84.1582 16.1193C83.7969 15.2866 83.4516 14.448 83.0105 13.4037C81.5114 16.8175 80.0982 20.0058 78.7089 23.2059C77.7607 25.3915 76.8625 27.6007 75.8924 29.7764C75.7706 30.0473 75.3455 30.3183 75.0381 30.3499C74.2257 30.429 73.4013 30.3776 72.4531 30.3776C73.2715 28.5184 74.03 26.7918 74.7886 25.0671C75.7986 22.7649 76.7926 20.4567 77.8206 18.1624C79.0083 15.5141 80.214 12.8737 81.4475 10.2471C81.5533 10.0216 81.9206 9.80404 82.1841 9.77833C84.3858 9.57065 84.3878 9.5845 85.2621 11.5445C87.9927 17.6561 90.7234 23.7657 93.4501 29.8792C93.498 29.9959 93.504 30.1304 93.5359 30.2847Z" fill="#F2F2F2"/>
<path d="M64.0975 9.90918C64.0975 10.8407 64.0975 11.6833 64.0975 12.6426C61.8599 12.6426 59.6522 12.6426 57.3487 12.6426C57.3487 18.5761 57.3487 24.3949 57.3487 30.2968C56.2788 30.2968 55.3027 30.2968 54.1909 30.2968C54.1909 24.4642 54.1909 18.6196 54.1909 12.6742C51.8475 12.6742 49.6358 12.6742 47.3643 12.6742C47.3643 11.707 47.3643 10.8427 47.3643 9.91116C52.9314 9.90918 58.4665 9.90918 64.0975 9.90918Z" fill="#F2F2F2"/>
</svg>
