<svg width="14" height="8" viewBox="0 0 14 8" fill="none" xmlns="http://www.w3.org/2000/svg">
<path d="M12.9804 3.13375L10.1346 0.224751C9.84047 -0.0752494 9.36715 -0.0752494 9.074 0.226751C8.78182 0.528751 8.7828 1.01575 9.07595 1.31575L10.6352 2.90875H9.14022H0.749917C0.336002 2.90875 0 3.25375 0 3.67875C0 4.10475 0.336002 4.44875 0.749917 4.44875H10.6352L9.07595 6.04175C8.7828 6.34175 8.78182 6.82875 9.074 7.13075C9.22106 7.28175 9.41292 7.35775 9.60576 7.35775C9.79665 7.35775 9.98851 7.28175 10.1346 7.13275L12.9804 4.22475C13.1216 4.07975 13.2015 3.88375 13.2015 3.67875C13.2015 3.47475 13.1216 3.27875 12.9804 3.13375Z" fill="white"/>
</svg>
