<svg width="20" height="20" viewBox="0 0 20 20" fill="none" xmlns="http://www.w3.org/2000/svg">
<path d="M16.25 20C16.0834 20.0001 15.9206 19.9503 15.7826 19.8571C15.6446 19.7638 15.5378 19.6313 15.4758 19.4767L14.7725 17.7158L13.0091 16.9733C12.8579 16.9065 12.7297 16.7965 12.6408 16.6571C12.5518 16.5178 12.506 16.3552 12.5091 16.1899C12.5123 16.0246 12.5641 15.8638 12.6583 15.7279C12.7524 15.592 12.8846 15.4869 13.0383 15.4258L14.7783 14.7667L15.4758 13.0233C15.5399 12.871 15.6476 12.741 15.7853 12.6495C15.923 12.5581 16.0847 12.5093 16.25 12.5093C16.4153 12.5093 16.5769 12.5581 16.7146 12.6495C16.8523 12.741 16.96 12.871 17.0241 13.0233L17.725 14.7733L19.475 15.4742C19.6276 15.538 19.758 15.6456 19.8497 15.7833C19.9414 15.9211 19.9903 16.0829 19.9903 16.2483C19.9903 16.4138 19.9414 16.5756 19.8497 16.7133C19.758 16.8511 19.6276 16.9586 19.475 17.0225L17.725 17.7233L17.0241 19.4733C16.9627 19.6286 16.856 19.7618 16.718 19.8557C16.58 19.9496 16.4169 19.9999 16.25 20ZM8.3333 17.5C7.97328 17.5043 7.62154 17.3919 7.33071 17.1797C7.03989 16.9674 6.82562 16.6667 6.71997 16.3225L5.37497 12.1167L1.1558 10.705C0.815272 10.5912 0.519735 10.3721 0.311876 10.0793C0.104018 9.78653 -0.00540233 9.43527 -0.000579579 9.07625C0.00424317 8.71724 0.123059 8.36905 0.338707 8.08197C0.554354 7.79489 0.855671 7.5838 1.19914 7.47916L5.38497 6.20083L6.79497 1.98916C6.8998 1.64322 7.11666 1.34194 7.41142 1.13271C7.70619 0.923478 8.06214 0.818163 8.4233 0.83333C8.78338 0.833817 9.13362 0.950909 9.4216 1.16708C9.70958 1.38325 9.9198 1.68687 10.0208 2.0325L11.2975 6.21166L15.4891 7.55333C15.8272 7.66673 16.1212 7.88348 16.3294 8.17297C16.5376 8.46246 16.6497 8.81006 16.6497 9.16666C16.6497 9.52327 16.5376 9.87086 16.3294 10.1604C16.1212 10.4498 15.8272 10.6666 15.4891 10.78L11.29 12.1233L9.94663 16.3225C9.84099 16.6667 9.62672 16.9674 9.33589 17.1797C9.04506 17.3919 8.69332 17.5043 8.3333 17.5ZM8.42663 2.51916L6.8333 7.13666C6.79129 7.2627 6.71976 7.37687 6.62466 7.46964C6.52957 7.56242 6.41367 7.63111 6.28664 7.67L1.6858 9.07333L6.3033 10.6708C6.42753 10.7122 6.54026 10.7823 6.63234 10.8754C6.72442 10.9685 6.79327 11.082 6.8333 11.2067L8.3083 15.815L9.8333 11.2067C9.87375 11.0801 9.94387 10.9651 10.0378 10.8712C10.1317 10.7772 10.2468 10.7071 10.3733 10.6667L14.9816 9.1925C14.9875 9.19086 14.9932 9.18833 14.9983 9.185L10.3733 7.66666C10.2449 7.62562 10.1285 7.55406 10.0338 7.45813C9.9392 7.36219 9.86925 7.24473 9.82997 7.11583L8.42663 2.51916ZM17.0833 5.83333C16.8975 5.83332 16.7171 5.77125 16.5706 5.65695C16.4242 5.54266 16.3201 5.3827 16.275 5.2025L15.9775 4.01083L14.7833 3.69C14.6038 3.64177 14.4456 3.53494 14.3338 3.38647C14.222 3.238 14.1631 3.05642 14.1663 2.8706C14.1696 2.68478 14.2349 2.50538 14.3518 2.36092C14.4687 2.21646 14.6306 2.11523 14.8116 2.07333L15.9783 1.8025L16.275 0.63083C16.3201 0.450641 16.4242 0.290706 16.5707 0.176429C16.7171 0.0621516 16.8975 8.39233e-05 17.0833 8.39233e-05C17.2691 8.39233e-05 17.4495 0.0621516 17.596 0.176429C17.7424 0.290706 17.8465 0.450641 17.8916 0.63083L18.1866 1.8125L19.3683 2.10833C19.5485 2.15349 19.7084 2.25756 19.8227 2.40401C19.937 2.55046 19.999 2.7309 19.999 2.91666C19.999 3.10243 19.937 3.28286 19.8227 3.42931C19.7084 3.57577 19.5485 3.67984 19.3683 3.725L18.1866 4.02083L17.8916 5.2025C17.8465 5.3827 17.7424 5.54266 17.596 5.65695C17.4495 5.77125 17.2691 5.83332 17.0833 5.83333Z" fill="white"/>
</svg>
