<svg width="209" height="209" viewBox="0 0 209 209" fill="none" xmlns="http://www.w3.org/2000/svg">
<g clip-path="url(#clip0)">
<path d="M173.858 187.715V205.397C173.858 207.388 172.246 209 170.255 209H38.745C36.7543 209 35.142 207.388 35.142 205.397V187.715C35.142 169.164 50.18 154.135 68.7356 154.131C75.293 154.126 81.0669 150.753 84.3907 145.637C87.7298 140.505 87.3857 136.043 87.3857 132.436L87.4532 132.269C71.2847 125.577 59.9127 109.647 59.9127 91.0599V89.6502C53.4926 89.6502 48.6533 84.5767 48.6533 78.598V59.8803C48.5091 53.3634 48.8064 30.3806 65.4073 14.3788C84.7104 -4.2263 115.3 -2.70402 137.459 7.2493C138.179 7.57357 138.157 8.60494 137.427 8.90669L131.649 11.2847C130.784 11.6405 130.969 12.915 131.896 13.0141L134.702 13.3159C148.137 14.7526 160.617 22.0487 168.354 34.1908C168.562 34.5196 168.503 35.0195 168.237 35.3033C163.463 40.352 160.797 47.0536 160.797 54.0209V78.598C160.797 84.7006 155.847 89.6502 149.745 89.6502H149.087V91.0599C149.087 109.647 137.715 125.577 121.547 132.269L121.614 132.436C121.614 135.939 121.242 140.462 124.609 145.637C127.933 150.753 133.707 154.126 140.264 154.131C158.82 154.135 173.858 169.164 173.858 187.715Z" fill="#FFDFBA"/>
<path d="M173.858 187.715V205.397C173.858 207.387 172.245 209 170.255 209H38.745C36.7552 209 35.142 207.387 35.142 205.397V187.715C35.142 169.164 50.1823 154.138 68.7333 154.131C75.2926 154.129 81.0678 150.751 84.3907 145.637C95.9897 155.546 113.004 155.552 124.609 145.637C127.932 150.751 133.707 154.129 140.267 154.131C158.818 154.138 173.858 169.164 173.858 187.715Z" fill="#FE4F60"/>
<path d="M168.353 34.1933C168.562 34.5216 168.503 35.0189 168.236 35.3017C163.463 40.354 160.797 47.0534 160.797 54.0211V78.5982C160.797 84.1775 156.594 89.6504 149.087 89.6504V61.8307C149.087 49.8912 139.409 40.2126 127.469 40.2126H81.5307C69.5912 40.2126 59.9127 49.8912 59.9127 61.8307V89.6504C53.4925 89.6504 48.6532 84.577 48.6532 78.5982V59.8805C48.5091 53.3636 48.8064 30.3809 65.4072 14.379C84.709 -4.22652 115.302 -2.70334 137.457 7.25088C138.177 7.5747 138.158 8.60651 137.427 8.90737L131.649 11.2863C130.785 11.6421 130.967 12.9153 131.895 13.0148L134.702 13.3161C148.139 14.7515 160.616 22.0476 168.353 34.1933Z" fill="#42434D"/>
<path d="M149.087 91.0599C149.087 115.694 129.114 135.647 104.5 135.647C81.3092 135.647 59.9127 117.618 59.9127 89.6502V61.8305C59.9127 49.891 69.5913 40.2124 81.5308 40.2124H127.469C139.409 40.2124 149.087 49.891 149.087 61.8305V91.0599Z" fill="#FFEBD2"/>
<path d="M140.981 201.344H130.171C128.182 201.344 126.568 199.73 126.568 197.741C126.568 195.751 128.182 194.138 130.171 194.138H140.981C142.97 194.138 144.584 195.751 144.584 197.741C144.584 199.73 142.971 201.344 140.981 201.344Z" fill="white"/>
<path d="M94.4044 119.851C101.735 124.437 95.9546 135.685 87.9298 132.464C71.4307 125.841 59.9127 109.763 59.9127 91.0596V61.8302C59.9127 57.2886 61.3134 53.0739 63.7058 49.5943C66.6395 45.3279 73.424 47.2127 73.424 52.8226V82.0521C73.424 98.4953 82.0677 112.133 94.4044 119.851Z" fill="#FFF3E4"/>
<path d="M122.123 139.831C111.027 144.476 98.8334 144.836 86.8768 139.831C87.4875 137.297 87.3857 135.656 87.3857 132.436L87.4533 132.269C98.2992 136.771 110.68 136.78 121.547 132.269L121.614 132.436C121.614 135.657 121.513 137.298 122.123 139.831Z" fill="#FFD6A6"/>
<path d="M86.8821 165.011C85.2166 165.534 83.4304 165.823 81.5154 165.84C62.9167 166.004 47.7525 180.71 47.7525 199.309V202.695C47.7525 206.177 44.9296 209 41.4472 209H38.745C36.7552 209 35.142 207.387 35.142 205.397V187.715C35.142 169.164 50.1823 154.138 68.7333 154.131C75.2926 154.129 81.0678 150.751 84.3907 145.637C85.7301 146.781 87.1641 147.809 88.6746 148.709C95.319 152.668 94.2602 162.691 86.8821 165.011Z" fill="#FF6D7A"/>
<path d="M122.118 165.011C123.783 165.534 125.57 165.823 127.485 165.84C146.083 166.004 161.247 180.71 161.247 199.309V202.695C161.247 206.177 164.07 209 167.553 209H170.255C172.245 209 173.858 207.387 173.858 205.397V187.715C173.858 169.164 158.818 154.138 140.267 154.131C133.707 154.129 127.932 150.751 124.609 145.637C123.27 146.781 121.836 147.809 120.325 148.709C113.681 152.668 114.74 162.691 122.118 165.011Z" fill="#E84857"/>
<path d="M137.427 8.90669C132.131 11.0861 131.377 11.5666 129.542 11.282C99.9638 6.69714 74.013 18.9352 65.2001 47.6661V47.6706C61.9033 51.4628 59.9127 56.4169 59.9127 61.8305V78.7299C59.9127 86.0206 48.6532 86.5282 48.6532 78.598V59.8803C48.5091 53.3634 48.8064 30.3806 65.4072 14.3788C84.7104 -4.2263 115.3 -2.70402 137.459 7.2493C138.179 7.57357 138.157 8.60494 137.427 8.90669Z" fill="#4D4E59"/>
</g>
<defs>
<clipPath id="clip0">
<rect width="209" height="209" fill="white"/>
</clipPath>
</defs>
</svg>
