<svg width="16" height="16" viewBox="0 0 16 16" fill="none" xmlns="http://www.w3.org/2000/svg">
<path d="M9.49984 3.66602H0.833171C0.464981 3.66602 0.166504 3.96449 0.166504 4.33268V11.666C0.166504 12.0342 0.464981 12.3327 0.833171 12.3327H9.49984C9.86803 12.3327 10.1665 12.0342 10.1665 11.666V4.33268C10.1665 3.96449 9.86803 3.66602 9.49984 3.66602Z" fill="white"/>
<path d="M15.6752 4.04943C15.6268 4.01949 15.5716 4.00242 15.5147 3.99985C15.4579 3.99728 15.4014 4.0093 15.3505 4.03477L11.3505 6.03477C11.2951 6.06253 11.2485 6.10518 11.216 6.15794C11.1835 6.21069 11.1664 6.27147 11.1665 6.33343V9.66677C11.1665 9.72862 11.1837 9.78925 11.2162 9.84188C11.2487 9.89451 11.2952 9.93706 11.3505 9.96477L15.3505 11.9648C15.4013 11.9902 15.4578 12.0023 15.5146 11.9998C15.5714 11.9972 15.6266 11.9802 15.675 11.9504C15.7233 11.9205 15.7632 11.8788 15.7909 11.8291C15.8186 11.7795 15.8332 11.7236 15.8332 11.6668V4.33343C15.8333 4.27655 15.8188 4.22058 15.7911 4.17087C15.7635 4.12116 15.7236 4.07936 15.6752 4.04943Z" fill="white"/>
</svg>
