<svg width="16" height="16" viewBox="0 0 16 16" fill="none" xmlns="http://www.w3.org/2000/svg">
<path d="M9.49984 3.66602H0.833171C0.464981 3.66602 0.166504 3.96449 0.166504 4.33268V11.666C0.166504 12.0342 0.464981 12.3327 0.833171 12.3327H9.49984C9.86803 12.3327 10.1665 12.0342 10.1665 11.666V4.33268C10.1665 3.96449 9.86803 3.66602 9.49984 3.66602Z" fill="white"/>
<path d="M15.6752 4.04894C15.6268 4.019 15.5716 4.00193 15.5147 3.99936C15.4579 3.9968 15.4014 4.00882 15.3505 4.03428L11.3505 6.03428C11.2951 6.06204 11.2485 6.10469 11.216 6.15745C11.1835 6.21021 11.1664 6.27098 11.1665 6.33294V9.66628C11.1665 9.72813 11.1837 9.78876 11.2162 9.84139C11.2487 9.89402 11.2952 9.93657 11.3505 9.96428L15.3505 11.9643C15.4013 11.9897 15.4578 12.0018 15.5146 11.9993C15.5714 11.9968 15.6266 11.9798 15.675 11.9499C15.7233 11.92 15.7632 11.8783 15.7909 11.8287C15.8186 11.779 15.8332 11.7231 15.8332 11.6663V4.33294C15.8333 4.27606 15.8188 4.2201 15.7911 4.17038C15.7635 4.12067 15.7236 4.07887 15.6752 4.04894Z" fill="white"/>
</svg>
