<svg width="25" height="25" viewBox="0 0 25 25" fill="none" xmlns="http://www.w3.org/2000/svg">
<g clip-path="url(#clip0)">
<path d="M20.5 12.9116C20.5 12.4116 20.1176 12.0293 19.6176 12.0293C19.1176 12.0293 18.7353 12.4116 18.7353 12.9116C18.7353 16.3528 15.9412 19.1469 12.5 19.1469C9.05882 19.1469 6.26471 16.3528 6.26471 12.9116C6.26471 12.4116 5.88235 12.0293 5.38235 12.0293C4.88235 12.0293 4.5 12.4116 4.5 12.9116C4.5 16.9999 7.55882 20.4411 11.6176 20.8822V23.2352H8.41176C7.91176 23.2352 7.52941 23.6175 7.52941 24.1175C7.52941 24.6175 7.91176 24.9999 8.41176 24.9999H16.5882C17.0882 24.9999 17.4706 24.6175 17.4706 24.1175C17.4706 23.6175 17.0882 23.2352 16.5882 23.2352H13.3824V20.8822C17.4412 20.4411 20.5 16.9999 20.5 12.9116Z" fill="white"/>
<path d="M12.5 0C9.79411 0 7.58823 2.20588 7.58823 4.91176V12.8824C7.58823 15.6176 9.79411 17.7941 12.5 17.8235C15.2059 17.8235 17.4118 15.6176 17.4118 12.9118V4.91176C17.4118 2.20588 15.2059 0 12.5 0Z" fill="white"/>
</g>
<defs>
<clipPath id="clip0">
<rect width="25" height="25" fill="white"/>
</clipPath>
</defs>
</svg>
