<svg width="16" height="16" viewBox="0 0 16 16" fill="none" xmlns="http://www.w3.org/2000/svg">
<path d="M8 10.6667C8.79538 10.6658 9.55793 10.3494 10.1203 9.78701C10.6828 9.2246 10.9991 8.46205 11 7.66667V3C11 2.20435 10.6839 1.44129 10.1213 0.87868C9.55871 0.316071 8.79565 0 8 0C7.20435 0 6.44129 0.316071 5.87868 0.87868C5.31607 1.44129 5 2.20435 5 3V7.66667C5.00088 8.46205 5.31724 9.2246 5.87965 9.78701C6.44207 10.3494 7.20462 10.6658 8 10.6667Z" fill="white"/>
<path d="M12.6667 5.33301C12.4899 5.33301 12.3204 5.40325 12.1953 5.52827C12.0703 5.65329 12.0001 5.82286 12.0001 5.99967V7.66634C12.0001 8.72721 11.5787 9.74462 10.8285 10.4948C10.0784 11.2449 9.06095 11.6663 8.00008 11.6663C6.93922 11.6663 5.9218 11.2449 5.17165 10.4948C4.42151 9.74462 4.00008 8.72721 4.00008 7.66634V5.99967C4.00008 5.82286 3.92984 5.65329 3.80482 5.52827C3.67979 5.40325 3.51023 5.33301 3.33341 5.33301C3.1566 5.33301 2.98703 5.40325 2.86201 5.52827C2.73699 5.65329 2.66675 5.82286 2.66675 5.99967V7.66634C2.66847 8.94036 3.12545 10.1718 3.95526 11.1385C4.78506 12.1052 5.93304 12.7436 7.19208 12.9383C7.23142 12.9444 7.2673 12.9643 7.29322 12.9945C7.31914 13.0247 7.3334 13.0632 7.33341 13.103V15.333C7.33341 15.5098 7.40365 15.6794 7.52868 15.8044C7.6537 15.9294 7.82327 15.9997 8.00008 15.9997C8.17689 15.9997 8.34646 15.9294 8.47149 15.8044C8.59651 15.6794 8.66675 15.5098 8.66675 15.333V13.103C8.66676 13.0632 8.68102 13.0247 8.70694 12.9945C8.73287 12.9643 8.76874 12.9444 8.80808 12.9383C10.0671 12.7436 11.2151 12.1052 12.0449 11.1385C12.8747 10.1718 13.3317 8.94036 13.3334 7.66634V5.99967C13.3334 5.82286 13.2632 5.65329 13.1382 5.52827C13.0131 5.40325 12.8436 5.33301 12.6667 5.33301Z" fill="white"/>
</svg>
