<svg width="24" height="24" viewBox="0 0 24 24" fill="none" xmlns="http://www.w3.org/2000/svg">
<g clip-path="url(#clip0_6326_56377)">
<path d="M16.0627 3H8.93766C7.78325 3.00126 6.67648 3.4604 5.86019 4.27669C5.0439 5.09299 4.58475 6.19975 4.5835 7.35416V17.6458C4.58475 18.8002 5.0439 19.907 5.86019 20.7233C6.67648 21.5396 7.78325 21.9987 8.93766 22H16.0627C17.2171 21.9987 18.3238 21.5396 19.1401 20.7233C19.9564 19.907 20.4156 18.8002 20.4168 17.6458V7.35416C20.4156 6.19975 19.9564 5.09299 19.1401 4.27669C18.3238 3.4604 17.2171 3.00126 16.0627 3V3ZM18.0418 17.25H13.2918V18.0417C13.2918 18.2516 13.2084 18.453 13.06 18.6015C12.9115 18.7499 12.7101 18.8333 12.5002 18.8333C12.2902 18.8333 12.0888 18.7499 11.9404 18.6015C11.7919 18.453 11.7085 18.2516 11.7085 18.0417V17.25H6.9585V7.35416C6.9585 6.82926 7.16702 6.32585 7.53818 5.95468C7.90935 5.58352 8.41276 5.375 8.93766 5.375H16.0627C16.5876 5.375 17.091 5.58352 17.4621 5.95468C17.8333 6.32585 18.0418 6.82926 18.0418 7.35416V17.25Z" fill="white"/>
</g>
<defs>
<clipPath id="clip0_6326_56377">
<rect width="19" height="19" fill="white" transform="translate(3 3)"/>
</clipPath>
</defs>
</svg>
