<svg width="17" height="20" viewBox="0 0 17 20" fill="none" xmlns="http://www.w3.org/2000/svg">
<g clip-path="url(#clip0_3713_2)">
<path d="M1.85204 0C2.73487 0 3.61807 0 4.5009 0C4.53605 0.0112177 4.57008 0.0272963 4.60598 0.0332791C5.61781 0.207527 6.36528 1.06792 6.3664 2.09359C6.37052 7.06825 6.37126 12.0429 6.36603 17.0176C6.36491 18.1595 5.42748 19.0925 4.2874 19.1056C3.55376 19.1142 2.82012 19.1104 2.08686 19.1059C1.71967 19.1037 1.37305 19.008 1.05895 18.8165C0.323446 18.3682 -0.00111887 17.7004 2.89735e-06 16.8493C0.00374212 14.0696 0.00149859 11.2902 0.00149859 8.51047C0.00149859 6.42099 0.00149859 4.33189 0.00149859 2.24241C0.00149859 1.29452 0.405708 0.593041 1.27246 0.185091C1.45419 0.0998372 1.65797 0.0605754 1.85204 0Z" fill="#1877F2"/>
<path d="M16.9998 2.05246C16.9998 7.0533 16.9998 12.0541 16.9998 17.055C16.9889 17.1088 16.974 17.1619 16.9676 17.2165C16.8338 18.3132 15.9528 19.1014 14.849 19.1071C14.1464 19.1104 13.4438 19.1112 12.7412 19.1052C12.5811 19.1037 12.4174 19.0865 12.2614 19.0495C11.2646 18.8132 10.6192 17.9808 10.6184 16.9286C10.6162 14.0053 10.6177 11.0819 10.6177 8.15898C10.6177 6.16261 10.6177 4.16587 10.6177 2.1695C10.6177 1.41268 10.9142 0.793089 11.5465 0.381027C11.8239 0.199674 12.1702 0.123768 12.485 0C13.3679 0 14.2511 0 15.1339 0C15.1679 0.0119655 15.2008 0.0280442 15.2356 0.0351487C16.0496 0.20117 16.5956 0.680538 16.8726 1.45867C16.9399 1.64788 16.9586 1.85428 16.9998 2.05246Z" fill="#1877F2"/>
</g>
<defs>
<clipPath id="clip0_3713_2">
<rect width="17" height="19.1104" fill="white"/>
</clipPath>
</defs>
</svg>
