<svg width="16" height="16" viewBox="0 0 16 16" fill="none" xmlns="http://www.w3.org/2000/svg">
<path d="M10.7914 2.34067C10.7277 2.28037 10.6434 2.24676 10.5557 2.24676C10.468 2.24676 10.3837 2.28037 10.32 2.34067L2.71136 9.94933C2.64887 10.0118 2.61377 10.0966 2.61377 10.185C2.61377 10.2734 2.64887 10.3582 2.71136 10.4207L5.5647 13.274C5.62721 13.3365 5.71198 13.3716 5.80036 13.3716C5.88875 13.3716 5.97352 13.3365 6.03603 13.274L13.6447 5.66667C13.7072 5.60416 13.7423 5.51939 13.7423 5.431C13.7423 5.34261 13.7072 5.25784 13.6447 5.19533L10.7914 2.34067Z" fill="#6F7897"/>
<path d="M2.00011 11.14C1.95973 11.0999 1.90973 11.0707 1.85489 11.0554C1.80005 11.04 1.7422 11.039 1.68684 11.0524C1.63149 11.0658 1.58049 11.0931 1.5387 11.1318C1.4969 11.1704 1.46572 11.2192 1.44811 11.2733L0.0214434 15.5533C0.00175745 15.612 -0.00118532 15.6751 0.012945 15.7354C0.0270753 15.7957 0.05772 15.8508 0.101443 15.8947C0.145555 15.938 0.200684 15.9684 0.260854 15.9826C0.321024 15.9968 0.383939 15.9943 0.442777 15.9753L4.72278 14.5493C4.77706 14.5318 4.82592 14.5006 4.8647 14.4587C4.90348 14.4169 4.93087 14.3658 4.94425 14.3103C4.95763 14.2549 4.95655 14.1969 4.94112 14.142C4.92568 14.0871 4.89642 14.037 4.85611 13.9967L2.00011 11.14Z" fill="#6F7897"/>
<path d="M15.3119 0.677999C14.8639 0.250565 14.2684 0.0120926 13.6492 0.0120926C13.03 0.0120926 12.4346 0.250565 11.9866 0.677999L11.5119 1.15333C11.4494 1.21584 11.4143 1.30061 11.4143 1.389C11.4143 1.47739 11.4494 1.56216 11.5119 1.62467L14.3646 4.478C14.4271 4.54049 14.5118 4.57559 14.6002 4.57559C14.6886 4.57559 14.7734 4.54049 14.8359 4.478L15.3119 4C15.7514 3.55891 15.9981 2.96164 15.9981 2.339C15.9981 1.71635 15.7514 1.11908 15.3119 0.677999Z" fill="#6F7897"/>
</svg>
