<svg width="13" height="12" viewBox="0 0 13 12" fill="none" xmlns="http://www.w3.org/2000/svg">
<g clip-path="url(#clip0_277_9317)">
<path d="M8.59352 1.75549C8.54579 1.71026 8.48253 1.68506 8.41677 1.68506C8.35102 1.68506 8.28776 1.71026 8.24002 1.75549L2.53352 7.46199C2.48666 7.50887 2.46033 7.57245 2.46033 7.63874C2.46033 7.70503 2.48666 7.76861 2.53352 7.81549L4.67352 9.95549C4.72041 10.0024 4.78398 10.0287 4.85027 10.0287C4.91656 10.0287 4.98014 10.0024 5.02702 9.95549L10.7335 4.24999C10.7804 4.20311 10.8067 4.13953 10.8067 4.07324C10.8067 4.00695 10.7804 3.94337 10.7335 3.89649L8.59352 1.75549Z" fill="white"/>
<path d="M2.00002 8.35499C1.96973 8.32488 1.93224 8.30303 1.89111 8.29153C1.84998 8.28002 1.80659 8.27925 1.76507 8.28928C1.72356 8.2993 1.6853 8.3198 1.65396 8.34881C1.62262 8.37782 1.59923 8.41437 1.58602 8.45499L0.516021 11.665C0.501257 11.709 0.49905 11.7563 0.509648 11.8015C0.520245 11.8467 0.543229 11.8881 0.576021 11.921C0.609105 11.9535 0.650452 11.9763 0.69558 11.987C0.740707 11.9976 0.787893 11.9957 0.832021 11.9815L4.04202 10.912C4.08273 10.8988 4.11938 10.8754 4.14847 10.844C4.17755 10.8127 4.19809 10.7743 4.20812 10.7327C4.21816 10.6912 4.21735 10.6477 4.20578 10.6065C4.1942 10.5653 4.17225 10.5278 4.14202 10.4975L2.00002 8.35499Z" fill="white"/>
<path d="M11.984 0.508493C11.648 0.187918 11.2014 0.00906372 10.737 0.00906372C10.2726 0.00906372 9.82601 0.187918 9.48999 0.508493L9.13399 0.864993C9.08712 0.911875 9.06079 0.975452 9.06079 1.04174C9.06079 1.10803 9.08712 1.17161 9.13399 1.21849L11.2735 3.35849C11.3204 3.40536 11.3839 3.43169 11.4502 3.43169C11.5165 3.43169 11.5801 3.40536 11.627 3.35849L11.984 2.99999C12.3136 2.66918 12.4987 2.22123 12.4987 1.75424C12.4987 1.28726 12.3136 0.839307 11.984 0.508493Z" fill="white"/>
</g>
<defs>
<clipPath id="clip0_277_9317">
<rect width="12" height="12" fill="white" transform="translate(0.5)"/>
</clipPath>
</defs>
</svg>
