<svg width="28" height="28" viewBox="0 0 28 28" fill="none" xmlns="http://www.w3.org/2000/svg">
<path d="M20.5623 7.875C20.3479 10.7663 18.1561 13.125 15.7498 13.125C13.3436 13.125 11.1478 10.7669 10.9373 7.875C10.7186 4.86719 12.8514 2.625 15.7498 2.625C18.6482 2.625 20.7811 4.92188 20.5623 7.875Z" stroke="#F2F2F2" stroke-width="2.5" stroke-linecap="round" stroke-linejoin="round"/>
<path d="M15.7506 16.625C10.9928 16.625 6.16388 19.25 5.27029 24.2047C5.16091 24.8019 5.50052 25.375 6.12615 25.375H25.3756C26.0012 25.375 26.3392 24.8019 26.2315 24.2047C25.3373 19.25 20.5084 16.625 15.7506 16.625Z" stroke="#F2F2F2" stroke-width="2.5" stroke-miterlimit="10"/>
<path d="M7.875 12.6875H1.75M4.8125 9.625V15.75V9.625Z" stroke="#F2F2F2" stroke-width="2.5" stroke-linecap="round" stroke-linejoin="round"/>
</svg>
