<svg width="25" height="25" viewBox="0 0 25 25" fill="none" xmlns="http://www.w3.org/2000/svg">
<path d="M19.7917 0H5.20833C3.82751 0.00165402 2.50371 0.550919 1.52731 1.52731C0.550919 2.50371 0.00165402 3.82751 0 5.20833L0 19.7917C0.00165402 21.1725 0.550919 22.4963 1.52731 23.4727C2.50371 24.4491 3.82751 24.9983 5.20833 25H19.7917C21.1725 24.9983 22.4963 24.4491 23.4727 23.4727C24.4491 22.4963 24.9983 21.1725 25 19.7917V5.20833C24.9983 3.82751 24.4491 2.50371 23.4727 1.52731C22.4963 0.550919 21.1725 0.00165402 19.7917 0V0ZM5.20833 2.08333H19.7917C20.6205 2.08333 21.4153 2.41257 22.0014 2.99862C22.5874 3.58468 22.9167 4.37953 22.9167 5.20833V19.7917C22.9149 20.2557 22.808 20.7133 22.6042 21.1302L13.0594 11.5854C12.5757 11.1016 12.0015 10.7179 11.3695 10.456C10.7375 10.1942 10.0601 10.0594 9.37604 10.0594C8.69196 10.0594 8.01458 10.1942 7.38258 10.456C6.75059 10.7179 6.17636 11.1016 5.69271 11.5854L2.08333 15.1937V5.20833C2.08333 4.37953 2.41257 3.58468 2.99862 2.99862C3.58468 2.41257 4.37953 2.08333 5.20833 2.08333ZM5.20833 22.9167C4.37953 22.9167 3.58468 22.5874 2.99862 22.0014C2.41257 21.4153 2.08333 20.6205 2.08333 19.7917V18.1396L7.16458 13.0583C7.45479 12.7679 7.79938 12.5376 8.17865 12.3804C8.55792 12.2232 8.96445 12.1423 9.375 12.1423C9.78555 12.1423 10.1921 12.2232 10.5713 12.3804C10.9506 12.5376 11.2952 12.7679 11.5854 13.0583L21.1302 22.6042C20.7133 22.808 20.2557 22.9149 19.7917 22.9167H5.20833Z" fill="white"/>
<path d="M16.6668 10.9375C17.3879 10.9375 18.0928 10.7237 18.6923 10.3231C19.2919 9.92247 19.7592 9.35307 20.0351 8.68688C20.3111 8.02069 20.3833 7.28763 20.2426 6.58041C20.1019 5.87319 19.7547 5.22356 19.2448 4.71369C18.7349 4.20381 18.0853 3.85657 17.3781 3.7159C16.6709 3.57522 15.9378 3.64742 15.2716 3.92337C14.6054 4.19931 14.036 4.66661 13.6354 5.26616C13.2348 5.86572 13.021 6.5706 13.021 7.29168C13.021 8.25861 13.4051 9.18595 14.0888 9.86967C14.7726 10.5534 15.6999 10.9375 16.6668 10.9375ZM16.6668 5.72918C16.9759 5.72918 17.278 5.82082 17.5349 5.99251C17.7919 6.1642 17.9921 6.40823 18.1104 6.69374C18.2287 6.97925 18.2596 7.29341 18.1993 7.59651C18.139 7.8996 17.9902 8.17801 17.7717 8.39653C17.5532 8.61505 17.2748 8.76387 16.9717 8.82416C16.6686 8.88445 16.3544 8.8535 16.0689 8.73524C15.7834 8.61698 15.5393 8.41671 15.3677 8.15976C15.196 7.90281 15.1043 7.60071 15.1043 7.29168C15.1043 6.87728 15.2689 6.47985 15.562 6.18682C15.855 5.8938 16.2524 5.72918 16.6668 5.72918Z" fill="white"/>
</svg>
