<?xml version="1.0"?>
<svg xmlns="http://www.w3.org/2000/svg" xmlns:xlink="http://www.w3.org/1999/xlink" xmlns:svgjs="http://svgjs.com/svgjs" version="1.1" width="512" height="512" x="0" y="0" viewBox="0 0 64 64" style="enable-background:new 0 0 512 512" xml:space="preserve" class=""><g><path xmlns="http://www.w3.org/2000/svg" d="M32.2,19.208a1,1,0,0,0,0-2H15.416a1,1,0,1,0,0,2Z" fill="#6f7897" data-original="#000000"/><path xmlns="http://www.w3.org/2000/svg" d="M15.416,13.208H32.2a1,1,0,0,0,0-2H15.416a1,1,0,0,0,0,2Z" fill="#6f7897" data-original="#000000"/><path xmlns="http://www.w3.org/2000/svg" d="M55.114,17.5,41.906,4.293A1,1,0,0,0,41.2,4H13.593a5.006,5.006,0,0,0-5,5V55a5.006,5.006,0,0,0,5,5H50.407a5.006,5.006,0,0,0,5-5V18.208A1,1,0,0,0,55.114,17.5ZM42.2,7.414l9.794,9.794H42.2ZM50.407,58H13.593a3,3,0,0,1-3-3V9a3,3,0,0,1,3-3H40.2V18.208a1,1,0,0,0,1,1H53.407V55A3,3,0,0,1,50.407,58Z" fill="#6f7897" data-original="#000000"/><path xmlns="http://www.w3.org/2000/svg" d="M32,28.356A19.561,19.561,0,0,0,15.135,38.1a1,1,0,0,0,0,1,19.463,19.463,0,0,0,33.73,0,1,1,0,0,0,0-1A19.561,19.561,0,0,0,32,28.356Zm0,18.5A17.552,17.552,0,0,1,17.167,38.6a17.462,17.462,0,0,1,29.666,0A17.552,17.552,0,0,1,32,46.852Z" fill="#6f7897" data-original="#000000"/><path xmlns="http://www.w3.org/2000/svg" d="M32,32.366A6.238,6.238,0,1,0,38.237,38.6,6.244,6.244,0,0,0,32,32.366Zm0,10.476A4.238,4.238,0,1,1,36.237,38.6,4.242,4.242,0,0,1,32,42.842Z" fill="#6f7897" data-original="#000000"/></g></svg>
