<svg width="16" height="16" viewBox="0 0 16 16" fill="none" xmlns="http://www.w3.org/2000/svg">
<path d="M7.10936 13.382C6.89303 13.3372 6.66776 13.3801 6.4831 13.5014C6.29844 13.6227 6.16952 13.8123 6.1247 14.0287C6.07987 14.245 6.12282 14.4703 6.2441 14.6549C6.36537 14.8396 6.55503 14.9685 6.77136 15.0133C8.33629 15.3361 9.96423 15.1262 11.396 14.4168C12.8278 13.7074 13.9811 12.5395 14.6724 11.0989C15.3637 9.65828 15.5532 8.02783 15.2107 6.46709C14.8682 4.90635 14.0134 3.50505 12.7825 2.48626C11.5515 1.46746 10.0151 0.88975 8.41784 0.845084C6.82059 0.800419 5.25431 1.29137 3.96834 2.23978C2.68237 3.18819 1.75063 4.53954 1.32146 6.07869C0.892285 7.61785 0.990346 9.25635 1.60003 10.7333C1.61471 10.7681 1.61716 10.8068 1.60699 10.8431C1.59682 10.8795 1.57462 10.9113 1.54403 10.9333L0.877363 11.4173C0.773135 11.493 0.693043 11.5972 0.646766 11.7173C0.60049 11.8375 0.59001 11.9685 0.616592 12.0945C0.643175 12.2205 0.705683 12.3361 0.796562 12.4274C0.88744 12.5186 1.0028 12.5816 1.1287 12.6087L3.75936 13.1747C3.80543 13.1842 3.85232 13.1891 3.89936 13.1893C4.05189 13.1894 4.19982 13.1371 4.31848 13.0413C4.43713 12.9454 4.51933 12.8118 4.55136 12.6627L5.18136 9.72933C5.20981 9.59739 5.19753 9.45993 5.14617 9.33512C5.0948 9.2103 5.00676 9.10402 4.89368 9.03032C4.78061 8.95662 4.64783 8.91898 4.5129 8.92238C4.37797 8.92577 4.24725 8.97004 4.13803 9.04933L3.2307 9.70867C3.20927 9.72428 3.18443 9.73455 3.15824 9.73864C3.13204 9.74272 3.10525 9.7405 3.08009 9.73216C3.05493 9.72381 3.03212 9.70959 3.01356 9.69066C2.995 9.67173 2.98122 9.64865 2.97336 9.62333C2.61672 8.47012 2.64914 7.23163 3.06561 6.09864C3.48207 4.96566 4.2595 4.00103 5.27812 3.35334C6.29675 2.70565 7.50007 2.41083 8.70273 2.5143C9.90539 2.61776 11.0407 3.11377 11.9337 3.92592C12.8267 4.73807 13.428 5.82131 13.6448 7.00878C13.8617 8.19625 13.6821 9.42207 13.1337 10.4974C12.5853 11.5728 11.6986 12.438 10.6102 12.9599C9.52168 13.4817 8.29183 13.6312 7.11003 13.3853L7.10936 13.382Z" fill="#1877F2"/>
</svg>
