<svg width="24" height="18" viewBox="0 0 24 18" fill="none" xmlns="http://www.w3.org/2000/svg">
<path d="M5.5 0H18.5C19.9582 0.00158817 21.3562 0.581561 22.3873 1.61267C23.4184 2.64377 23.9984 4.0418 24 5.5V12.5C23.9984 13.9582 23.4184 15.3562 22.3873 16.3873C21.3562 17.4184 19.9582 17.9984 18.5 18H5.5C4.0418 17.9984 2.64377 17.4184 1.61267 16.3873C0.581562 15.3562 0.00158882 13.9582 0 12.5V5.5C0.00158882 4.0418 0.581562 2.64377 1.61267 1.61267C2.64377 0.581561 4.0418 0.00158817 5.5 0ZM3 12.5C3 13.163 3.26339 13.7989 3.73223 14.2678C4.20107 14.7366 4.83696 15 5.5 15H18.5C19.163 15 19.7989 14.7366 20.2678 14.2678C20.7366 13.7989 21 13.163 21 12.5V5.5C21 4.83696 20.7366 4.20107 20.2678 3.73223C19.7989 3.26339 19.163 3 18.5 3H5.5C4.83696 3 4.20107 3.26339 3.73223 3.73223C3.26339 4.20107 3 4.83696 3 5.5V12.5Z" fill="white"/>
</svg>
