<svg width="524" height="458" viewBox="0 0 524 458" fill="none" xmlns="http://www.w3.org/2000/svg">
<rect width="524" height="458" fill="white"/>
<path d="M91.806 318.2C91.806 328.21 86.346 334.216 74.698 334.216H55.406V302.548H74.698C86.346 302.548 91.806 308.736 91.806 318.2ZM24.284 276.704V404.468H55.406V356.238H62.868L89.44 404.468H124.566L95.082 353.872C114.738 348.048 123.474 332.942 123.474 316.926C123.474 294.722 107.822 276.704 76.518 276.704H24.284ZM187.783 326.39C198.157 326.39 206.893 332.76 206.893 343.862H167.945C169.765 332.578 177.591 326.39 187.783 326.39ZM236.377 370.798H203.253C200.705 376.258 195.791 380.626 187.055 380.626C177.045 380.626 168.855 374.438 167.763 361.152H238.197C238.561 358.058 238.743 354.964 238.743 352.052C238.743 321.112 217.813 301.456 188.147 301.456C157.935 301.456 136.823 321.476 136.823 353.69C136.823 385.904 158.299 405.924 188.147 405.924C213.445 405.924 231.463 390.636 236.377 370.798ZM260.075 369.16C260.075 395.55 274.817 404.468 295.929 404.468H311.763V378.078H300.661C293.745 378.078 291.197 375.53 291.197 369.524V328.756H311.581V302.912H291.197V278.16H260.075V302.912H247.699V328.756H260.075V369.16ZM360.22 357.33C360.22 339.858 368.774 334.762 383.516 334.762H392.07V301.82C378.42 301.82 367.318 309.1 360.22 319.838V302.912H329.098V404.468H360.22V357.33ZM453.72 366.43L430.242 302.912H395.48L436.794 401.01L413.498 452.698H446.986L510.686 302.912H477.016L453.72 366.43Z" fill="#F46B6B"/>
<path d="M270.168 181.418C305.969 177.623 334.66 150.542 338.743 116.664C344.103 72.3684 307.719 34.6617 262.111 34.1787V14.3077C262.111 13.2037 260.653 12.6173 259.669 13.3072L216.431 43.3553C215.702 43.8728 215.702 44.8732 216.431 45.3907L259.669 75.4387C260.653 76.1287 262.111 75.5077 262.111 74.4383V54.6017C294.157 55.0847 319.822 80.8894 317.635 111.731C315.776 138.26 292.917 159.787 264.882 161.478C235.17 163.271 209.905 143.193 205.385 116.63C204.546 111.696 199.989 108.109 194.739 108.109C188.214 108.109 183.11 113.594 184.13 119.7C190.474 157.545 227.405 185.937 270.168 181.418Z" fill="#F46B6B"/>
</svg>
