<svg width="13" height="12" viewBox="0 0 13 12" fill="none" xmlns="http://www.w3.org/2000/svg">
<g clip-path="url(#clip0_277_9323)">
<path d="M8.125 5.12449C8.09185 5.12449 8.06005 5.13766 8.03661 5.1611C8.01317 5.18455 8 5.21634 8 5.24949V10.8745H1.5V4.37449H3.1265C3.1593 4.3741 3.19064 4.36082 3.21374 4.33753C3.23685 4.31424 3.24987 4.2828 3.25 4.24999C3.25332 4.00646 3.28232 3.76395 3.3365 3.52649C3.34053 3.5082 3.34041 3.48925 3.33616 3.47101C3.33191 3.45277 3.32364 3.43572 3.31194 3.42109C3.30024 3.40647 3.28542 3.39465 3.26856 3.3865C3.2517 3.37835 3.23323 3.37408 3.2145 3.37399H1.5C1.23478 3.37399 0.98043 3.47935 0.792893 3.66689C0.605357 3.85442 0.5 4.10878 0.5 4.37399L0.5 10.874C0.5 11.1392 0.605357 11.3936 0.792893 11.5811C0.98043 11.7686 1.23478 11.874 1.5 11.874H8C8.26522 11.874 8.51957 11.7686 8.70711 11.5811C8.89464 11.3936 9 11.1392 9 10.874V5.24999C9 5.21684 8.98683 5.18505 8.96339 5.1616C8.93995 5.13816 8.90815 5.12499 8.875 5.12499L8.125 5.12449Z" fill="white"/>
<path d="M10.186 0.207497C10.1522 0.169863 10.1078 0.143367 10.0586 0.131509C10.0095 0.119651 9.95784 0.122989 9.9106 0.141082C9.86337 0.159175 9.82273 0.191172 9.79406 0.232847C9.76539 0.274522 9.75003 0.323913 9.75003 0.374497V1.25C9.75009 1.26643 9.7469 1.28272 9.74065 1.29791C9.73439 1.31311 9.72518 1.32691 9.71356 1.33853C9.70194 1.35015 9.68813 1.35936 9.67294 1.36562C9.65774 1.37188 9.64146 1.37506 9.62503 1.375H6.94003C6.16124 1.37526 5.41435 1.68441 4.86319 2.23463C4.31203 2.78485 4.00161 3.53121 4.00003 4.31C3.99766 4.86728 4.15768 5.41318 4.46053 5.881C4.48625 5.9213 4.52298 5.95338 4.56638 5.97344C4.60978 5.9935 4.65803 6.00069 4.70539 5.99417C4.75275 5.98764 4.79725 5.96767 4.83361 5.93662C4.86997 5.90558 4.89666 5.86475 4.91053 5.819C5.04414 5.40105 5.30669 5.03616 5.66051 4.77666C6.01433 4.51715 6.44125 4.37637 6.88003 4.3745H9.62503C9.64148 4.3745 9.65778 4.37775 9.67298 4.38406C9.68817 4.39037 9.70198 4.39963 9.71359 4.41129C9.72521 4.42295 9.7344 4.43679 9.74065 4.45201C9.74691 4.46723 9.75009 4.48354 9.75003 4.5V5.375C9.74993 5.42562 9.76521 5.47509 9.79385 5.51684C9.82248 5.55859 9.86311 5.59067 9.91037 5.60882C9.95763 5.62698 10.0093 5.63036 10.0585 5.61852C10.1077 5.60667 10.1522 5.58016 10.186 5.5425L12.436 3.0425C12.4773 2.99659 12.5002 2.93701 12.5002 2.87525C12.5002 2.81348 12.4773 2.7539 12.436 2.708L10.186 0.207497Z" fill="white"/>
</g>
<defs>
<clipPath id="clip0_277_9323">
<rect width="12" height="12" fill="white" transform="translate(0.5)"/>
</clipPath>
</defs>
</svg>
