<svg width="15" height="15" viewBox="0 0 15 15" fill="none" xmlns="http://www.w3.org/2000/svg">
<path d="M3.05445 9.12502C4.02122 9.12502 4.80494 8.39749 4.80494 7.50002C4.80494 6.60256 4.02122 5.87502 3.05445 5.87502C2.08768 5.87502 1.30396 6.60256 1.30396 7.50002C1.30396 8.39749 2.08768 9.12502 3.05445 9.12502Z" stroke="#CDCDD7" stroke-width="1.08333" stroke-linecap="round" stroke-linejoin="round"/>
<path d="M12.3909 4.25C13.3576 4.25 14.1414 3.52246 14.1414 2.625C14.1414 1.72754 13.3576 1 12.3909 1C11.4241 1 10.6404 1.72754 10.6404 2.625C10.6404 3.52246 11.4241 4.25 12.3909 4.25Z" stroke="#CDCDD7" stroke-width="1.08333" stroke-linecap="round" stroke-linejoin="round"/>
<path d="M12.3909 14C13.3576 14 14.1414 13.2725 14.1414 12.375C14.1414 11.4775 13.3576 10.75 12.3909 10.75C11.4241 10.75 10.6404 11.4775 10.6404 12.375C10.6404 13.2725 11.4241 14 12.3909 14Z" stroke="#CDCDD7" stroke-width="1.08333" stroke-linecap="round" stroke-linejoin="round"/>
<path d="M10.8651 3.42157L4.58008 6.70339M4.58008 8.29657L10.8651 11.5784L4.58008 8.29657Z" stroke="#CDCDD7" stroke-width="1.08333" stroke-linecap="round" stroke-linejoin="round"/>
</svg>
