<svg width="16" height="16" viewBox="0 0 16 16" fill="none" xmlns="http://www.w3.org/2000/svg">
<g clip-path="url(#clip0_277_8783)">
<path d="M10.1667 6.83267C10.1225 6.83267 10.0801 6.85023 10.0488 6.88148C10.0176 6.91274 10 6.95513 10 6.99933V14.4993H1.33333V5.83267H3.502C3.54574 5.83214 3.58752 5.81444 3.61833 5.78339C3.64913 5.75233 3.66649 5.71041 3.66667 5.66667C3.6711 5.34195 3.70975 5.01861 3.782 4.702C3.78737 4.67762 3.78722 4.65234 3.78155 4.62802C3.77589 4.6037 3.76485 4.58096 3.74925 4.56147C3.73365 4.54197 3.71389 4.52621 3.69141 4.51534C3.66893 4.50448 3.6443 4.49878 3.61933 4.49867H1.33333C0.979711 4.49867 0.640573 4.63914 0.390524 4.88919C0.140476 5.13924 0 5.47838 0 5.832L0 14.4987C0 14.8523 0.140476 15.1914 0.390524 15.4415C0.640573 15.6915 0.979711 15.832 1.33333 15.832H10C10.3536 15.832 10.6928 15.6915 10.9428 15.4415C11.1929 15.1914 11.3333 14.8523 11.3333 14.4987V7C11.3333 6.9558 11.3158 6.9134 11.2845 6.88215C11.2533 6.85089 11.2109 6.83333 11.1667 6.83333L10.1667 6.83267Z" fill="#6F7897"/>
<path d="M12.9147 0.276668C12.8696 0.226489 12.8104 0.19116 12.7448 0.17535C12.6792 0.159539 12.6104 0.16399 12.5474 0.188114C12.4844 0.212239 12.4303 0.254902 12.392 0.310468C12.3538 0.366034 12.3333 0.431889 12.3333 0.499335V1.66667C12.3334 1.68858 12.3292 1.71029 12.3208 1.73055C12.3125 1.75081 12.3002 1.76922 12.2847 1.78472C12.2692 1.80021 12.2508 1.81248 12.2305 1.82083C12.2103 1.82917 12.1886 1.83342 12.1667 1.83333H8.58666C7.54827 1.83369 6.55242 2.24588 5.81755 2.97951C5.08267 3.71313 4.66878 4.70828 4.66666 5.74667C4.66351 6.48971 4.87687 7.21758 5.28066 7.84133C5.31495 7.89507 5.36394 7.93785 5.42181 7.96459C5.47967 7.99134 5.54399 8.00093 5.60714 7.99223C5.6703 7.98352 5.72963 7.9569 5.77811 7.9155C5.82658 7.87411 5.86218 7.81968 5.88066 7.75867C6.05882 7.20141 6.40888 6.71489 6.88064 6.36888C7.3524 6.02287 7.92162 5.83516 8.50666 5.83267H12.1667C12.1886 5.83267 12.2103 5.837 12.2306 5.84542C12.2509 5.85384 12.2693 5.86617 12.2847 5.88172C12.3002 5.89727 12.3125 5.91572 12.3208 5.93602C12.3292 5.95631 12.3334 5.97806 12.3333 6V7.16667C12.3332 7.23417 12.3536 7.30012 12.3918 7.35579C12.4299 7.41146 12.4841 7.45423 12.5471 7.47844C12.6101 7.50264 12.679 7.50715 12.7446 7.49136C12.8103 7.47557 12.8696 7.44022 12.9147 7.39L15.9147 4.05667C15.9698 3.99546 16.0002 3.91602 16.0002 3.83367C16.0002 3.75132 15.9698 3.67188 15.9147 3.61067L12.9147 0.276668Z" fill="#6F7897"/>
</g>
<defs>
<clipPath id="clip0_277_8783">
<rect width="16" height="16" fill="white"/>
</clipPath>
</defs>
</svg>
