<svg width="16" height="16" viewBox="0 0 16 16" fill="none" xmlns="http://www.w3.org/2000/svg">
<g clip-path="url(#clip0_2424_2)">
<path d="M10.1667 6.83205C10.1225 6.83205 10.0801 6.84961 10.0488 6.88086C10.0176 6.91212 10 6.95451 10 6.99871V14.4987H1.33333V5.83205H3.502C3.54574 5.83152 3.58752 5.81382 3.61833 5.78277C3.64913 5.75171 3.66649 5.70979 3.66667 5.66605C3.6711 5.34133 3.70975 5.01799 3.782 4.70138C3.78737 4.677 3.78722 4.65172 3.78155 4.6274C3.77589 4.60308 3.76485 4.58034 3.74925 4.56085C3.73365 4.54135 3.71389 4.52559 3.69141 4.51472C3.66893 4.50386 3.6443 4.49816 3.61933 4.49805H1.33333C0.979711 4.49805 0.640573 4.63852 0.390524 4.88857C0.140476 5.13862 0 5.47776 0 5.83138V14.4981C0 14.8517 0.140476 15.1908 0.390524 15.4409C0.640573 15.6909 0.979711 15.8314 1.33333 15.8314H10C10.3536 15.8314 10.6928 15.6909 10.9428 15.4409C11.1929 15.1908 11.3333 14.8517 11.3333 14.4981V6.99938C11.3333 6.95518 11.3158 6.91278 11.2845 6.88153C11.2533 6.85027 11.2109 6.83271 11.1667 6.83271L10.1667 6.83205Z" fill="#1877F2"/>
<path d="M12.9151 0.276622C12.87 0.226443 12.8108 0.191114 12.7452 0.175304C12.6796 0.159493 12.6108 0.163944 12.5478 0.188068C12.4848 0.212193 12.4307 0.254856 12.3924 0.310422C12.3542 0.365988 12.3337 0.431843 12.3337 0.499289V1.66662C12.3338 1.68853 12.3296 1.71024 12.3212 1.7305C12.3129 1.75076 12.3006 1.76917 12.2851 1.78467C12.2696 1.80016 12.2512 1.81243 12.2309 1.82078C12.2107 1.82912 12.189 1.83337 12.1671 1.83328H8.58703C7.54864 1.83364 6.55279 2.24583 5.81792 2.97946C5.08304 3.71308 4.66915 4.70823 4.66703 5.74662C4.66388 6.48966 4.87724 7.21753 5.28103 7.84128C5.31532 7.89502 5.36431 7.9378 5.42218 7.96454C5.48004 7.99129 5.54436 8.00088 5.60751 7.99218C5.67067 7.98347 5.73 7.95685 5.77848 7.91545C5.82695 7.87406 5.86255 7.81963 5.88103 7.75862C6.05919 7.20136 6.40925 6.71484 6.88101 6.36883C7.35277 6.02282 7.92199 5.83511 8.50703 5.83262H12.1671C12.189 5.83262 12.2107 5.83695 12.231 5.84537C12.2513 5.85379 12.2697 5.86612 12.2851 5.88167C12.3006 5.89722 12.3129 5.91567 12.3212 5.93597C12.3296 5.95626 12.3338 5.97801 12.3337 5.99995V7.16662C12.3336 7.23412 12.354 7.30007 12.3922 7.35574C12.4303 7.41141 12.4845 7.45418 12.5475 7.47839C12.6105 7.50259 12.6794 7.5071 12.745 7.49131C12.8107 7.47552 12.87 7.44017 12.9151 7.38995L15.9151 4.05662C15.9702 3.99541 16.0006 3.91597 16.0006 3.83362C16.0006 3.75127 15.9702 3.67183 15.9151 3.61062L12.9151 0.276622Z" fill="#1877F2"/>
</g>
<defs>
<clipPath id="clip0_2424_2">
<rect width="16" height="16" fill="white"/>
</clipPath>
</defs>
</svg>
