<svg width="20" height="20" viewBox="0 0 20 20" fill="none" xmlns="http://www.w3.org/2000/svg">
<path d="M10 0.0322266C4.47961 0.0382031 0.00597656 4.51184 0 10.0322C0.5 23.2822 19.5 23.2772 20 10.0322C19.994 4.51184 15.5204 0.0382031 10 0.0322266ZM4.16668 9.39141C4.37336 4.98723 8.96086 4.98973 9.16668 9.39141C9.16668 9.85164 8.79359 10.2247 8.33336 10.2247C7.87313 10.2247 7.50004 9.85164 7.50004 9.39141C7.50004 8.51309 6.93336 7.72473 6.66672 7.72473C6.40004 7.72473 5.8334 8.51305 5.8334 9.39141C5.8334 9.85164 5.46031 10.2247 5.00008 10.2247C4.53984 10.2247 4.16668 9.85164 4.16668 9.39141ZM14.7217 13.3464C12.0516 15.7989 7.94844 15.7989 5.27836 13.3464C4.93504 13.0399 4.90516 12.5131 5.21168 12.1697C5.5182 11.8264 6.045 11.7965 6.38836 12.103C8.42344 13.9993 11.5783 13.9993 13.6134 12.103C13.9639 11.8048 14.4898 11.8471 14.7881 12.1976C15.0768 12.537 15.0476 13.0434 14.7217 13.3472V13.3464H14.7217ZM15 10.2247C14.5398 10.2247 14.1667 9.85164 14.1667 9.39141C14.1667 8.51309 13.6 7.72473 13.3334 7.72473C13.0667 7.72473 12.5 8.51305 12.5 9.39141C12.5 9.85164 12.1269 10.2247 11.6667 10.2247C11.2064 10.2247 10.8334 9.85164 10.8334 9.39141C10.8334 7.81473 11.86 6.05808 13.3334 6.05808C14.8067 6.05808 15.8334 7.81476 15.8334 9.39141C15.8333 9.85164 15.4602 10.2247 15 10.2247Z" fill="#DDDEE3"/>
</svg>
