<svg width="21" height="21" viewBox="0 0 21 21" fill="none" xmlns="http://www.w3.org/2000/svg">
<circle cx="10.5" cy="10.5" r="10.5" fill="#1877F2"/>
<g clip-path="url(#clip0_14468_38064)">
<path d="M10.7679 7.055C10.0927 7.08987 9.43699 7.29301 8.86035 7.64595C8.2837 7.9989 7.80447 8.49043 7.46625 9.07583C7.45742 9.0926 7.44418 9.10663 7.42794 9.11639C7.41171 9.12616 7.39311 9.1313 7.37417 9.13125H7.25C6.91848 9.13125 6.60054 9.26295 6.36612 9.49737C6.1317 9.73179 6 10.0497 6 10.3813V11.2146C6 11.5461 6.1317 11.864 6.36612 12.0985C6.60054 12.3329 6.91848 12.4646 7.25 12.4646H7.375C7.39395 12.4645 7.41254 12.4697 7.42878 12.4794C7.44501 12.4892 7.45826 12.5032 7.46708 12.52C7.80521 13.1055 8.28443 13.5971 8.86109 13.95C9.43775 14.303 10.0935 14.5061 10.7688 14.5408H10.7938C10.9043 14.5408 11.0102 14.4969 11.0884 14.4188C11.1665 14.3407 11.2104 14.2347 11.2104 14.1242V7.47083C11.2104 7.41394 11.1988 7.35766 11.1762 7.30544C11.1536 7.25323 11.1205 7.20619 11.0791 7.16723C11.0376 7.12827 10.9886 7.09822 10.9351 7.07891C10.8816 7.05961 10.8247 7.05147 10.7679 7.055Z" fill="white"/>
<path d="M13.3292 8.07C13.2506 7.9941 13.1453 7.9521 13.0361 7.95305C12.9268 7.954 12.8223 7.99782 12.7451 8.07507C12.6678 8.15233 12.624 8.25683 12.6231 8.36608C12.6221 8.47533 12.6641 8.58058 12.74 8.65916C13.0477 8.96656 13.2917 9.33157 13.4582 9.73333C13.6247 10.1351 13.7104 10.5657 13.7104 11.0006C13.7104 11.4355 13.6247 11.8662 13.4582 12.2679C13.2917 12.6697 13.0477 13.0347 12.74 13.3421C12.6641 13.4207 12.6221 13.5259 12.6231 13.6352C12.624 13.7444 12.6678 13.8489 12.7451 13.9262C12.8223 14.0034 12.9268 14.0472 13.0361 14.0482C13.1453 14.0491 13.2506 14.0071 13.3292 13.9312C13.7142 13.5465 14.0197 13.0896 14.2281 12.5868C14.4365 12.0839 14.5438 11.5449 14.5438 11.0006C14.5438 10.4563 14.4365 9.9173 14.2281 9.41445C14.0197 8.9116 13.7142 8.45474 13.3292 8.07Z" fill="white"/>
<path d="M14.3502 7.01499C14.3117 6.97519 14.2657 6.94345 14.2149 6.92161C14.1641 6.89978 14.1094 6.88828 14.0541 6.8878C13.9988 6.88732 13.9439 6.89786 13.8927 6.91881C13.8415 6.93976 13.795 6.9707 13.7558 7.00983C13.7167 7.04895 13.6858 7.09547 13.6648 7.14668C13.6439 7.19788 13.6333 7.25275 13.6338 7.30807C13.6343 7.3634 13.6458 7.41807 13.6676 7.46891C13.6895 7.51974 13.7212 7.56572 13.761 7.60416C14.6601 8.50561 15.165 9.72682 15.165 11C15.165 12.2732 14.6601 13.4944 13.761 14.3958C13.6851 14.4744 13.6431 14.5797 13.644 14.6889C13.645 14.7982 13.6888 14.9027 13.7661 14.9799C13.8433 15.0572 13.9478 15.101 14.0571 15.1019C14.1663 15.1029 14.2716 15.0609 14.3502 14.985C15.4054 13.9272 15.998 12.4941 15.998 11C15.998 9.50588 15.4054 8.07277 14.3502 7.01499Z" fill="white"/>
<path d="M12.3092 9.125C12.2705 9.08626 12.2246 9.05551 12.1741 9.03452C12.1235 9.01352 12.0693 9.00268 12.0146 9.00262C11.9599 9.00257 11.9057 9.01329 11.8551 9.03418C11.8045 9.05507 11.7585 9.08572 11.7198 9.12438C11.681 9.16303 11.6503 9.20894 11.6293 9.25948C11.6083 9.31002 11.5975 9.36421 11.5974 9.41893C11.5974 9.47366 11.6081 9.52787 11.629 9.57845C11.6499 9.62904 11.6805 9.67501 11.7192 9.71375C12.0596 10.0557 12.2507 10.5185 12.2507 11.001C12.2507 11.4835 12.0596 11.9464 11.7192 12.2883C11.6766 12.3261 11.6423 12.3722 11.6182 12.4237C11.5941 12.4753 11.5809 12.5312 11.5793 12.5881C11.5777 12.6449 11.5877 12.7015 11.6088 12.7544C11.6299 12.8072 11.6615 12.8552 11.7019 12.8953C11.7422 12.9354 11.7903 12.9669 11.8433 12.9877C11.8962 13.0085 11.9528 13.0183 12.0097 13.0164C12.0666 13.0145 12.1224 13.0009 12.1738 12.9766C12.2253 12.9523 12.2712 12.9177 12.3087 12.875C12.8042 12.3768 13.0824 11.7027 13.0825 11.0001C13.0826 10.2974 12.8046 9.62331 12.3092 9.125Z" fill="white"/>
</g>
<defs>
<clipPath id="clip0_14468_38064">
<rect width="10" height="10" fill="white" transform="translate(6 6)"/>
</clipPath>
</defs>
</svg>
