<svg width="20" height="20" viewBox="0 0 20 20" fill="none" xmlns="http://www.w3.org/2000/svg">
<g clip-path="url(#clip0_9327_3829)">
<path d="M16.2502 20C16.0836 20.0001 15.9209 19.9503 15.7829 19.8571C15.6449 19.7638 15.538 19.6313 15.476 19.4767L14.7727 17.7158L13.0094 16.9733C12.8581 16.9065 12.73 16.7965 12.641 16.6571C12.5521 16.5178 12.5063 16.3552 12.5094 16.1899C12.5125 16.0246 12.5644 15.8638 12.6585 15.7279C12.7527 15.592 12.8849 15.4869 13.0385 15.4258L14.7785 14.7667L15.476 13.0233C15.5402 12.871 15.6479 12.741 15.7856 12.6495C15.9233 12.5581 16.0849 12.5093 16.2502 12.5093C16.4155 12.5093 16.5771 12.5581 16.7148 12.6495C16.8526 12.741 16.9602 12.871 17.0244 13.0233L17.7252 14.7733L19.4752 15.4742C19.6279 15.538 19.7582 15.6456 19.8499 15.7833C19.9416 15.9211 19.9905 16.0829 19.9905 16.2483C19.9905 16.4138 19.9416 16.5756 19.8499 16.7133C19.7582 16.8511 19.6279 16.9586 19.4752 17.0225L17.7252 17.7233L17.0244 19.4733C16.9629 19.6286 16.8563 19.7618 16.7183 19.8557C16.5802 19.9496 16.4172 19.9999 16.2502 20ZM8.33355 17.5C7.97352 17.5043 7.62178 17.392 7.33096 17.1797C7.04013 16.9674 6.82586 16.6667 6.72021 16.3225L5.37521 12.1167L1.15605 10.705C0.815516 10.5912 0.519979 10.3721 0.31212 10.0793C0.104262 9.78653 -0.00515819 9.43528 -0.000335438 9.07626C0.00448731 8.71724 0.123303 8.36905 0.338951 8.08197C0.554599 7.7949 0.855915 7.5838 1.19938 7.47917L5.38521 6.20083L6.79521 1.98917C6.90005 1.64323 7.1169 1.34195 7.41167 1.13271C7.70643 0.923482 8.06239 0.818167 8.42354 0.833334C8.78363 0.833821 9.13387 0.950913 9.42184 1.16708C9.70982 1.38325 9.92004 1.68687 10.021 2.0325L11.2977 6.21167L15.4894 7.55333C15.8275 7.66674 16.1214 7.88349 16.3296 8.17298C16.5379 8.46247 16.6499 8.81006 16.6499 9.16667C16.6499 9.52327 16.5379 9.87087 16.3296 10.1604C16.1214 10.4498 15.8275 10.6666 15.4894 10.78L11.2902 12.1233L9.94688 16.3225C9.84123 16.6667 9.62696 16.9674 9.33613 17.1797C9.04531 17.392 8.69357 17.5043 8.33355 17.5ZM8.42688 2.51917L6.83355 7.13667C6.79154 7.2627 6.72 7.37687 6.62491 7.46965C6.52981 7.56242 6.41392 7.63112 6.28688 7.67L1.68605 9.07333L6.30355 10.6708C6.42777 10.7122 6.5405 10.7823 6.63258 10.8754C6.72467 10.9685 6.79351 11.082 6.83355 11.2067L8.30855 15.815L9.83355 11.2067C9.874 11.0801 9.94411 10.9651 10.038 10.8712C10.132 10.7772 10.247 10.7071 10.3735 10.6667L14.9819 9.1925C14.9878 9.19087 14.9934 9.18834 14.9985 9.185L10.3735 7.66667C10.2452 7.62562 10.1287 7.55407 10.0341 7.45813C9.93944 7.36219 9.86949 7.24474 9.83021 7.11583L8.42688 2.51917ZM17.0835 5.83333C16.8978 5.83333 16.7173 5.77125 16.5709 5.65695C16.4244 5.54266 16.3204 5.38271 16.2752 5.2025L15.9777 4.01083L14.7835 3.69C14.6041 3.64178 14.4458 3.53494 14.3341 3.38647C14.2223 3.238 14.1633 3.05643 14.1666 2.87061C14.1698 2.68478 14.2351 2.50538 14.352 2.36092C14.469 2.21647 14.6308 2.11524 14.8119 2.07333L15.9785 1.8025L16.2752 0.630834C16.3204 0.450644 16.4244 0.29071 16.5709 0.176433C16.7173 0.0621554 16.8978 8.7738e-05 17.0835 8.7738e-05C17.2693 8.7738e-05 17.4497 0.0621554 17.5962 0.176433C17.7426 0.29071 17.8467 0.450644 17.8919 0.630834L18.1869 1.8125L19.3685 2.10833C19.5487 2.15349 19.7087 2.25756 19.8229 2.40402C19.9372 2.55047 19.9993 2.7309 19.9993 2.91667C19.9993 3.10243 19.9372 3.28287 19.8229 3.42932C19.7087 3.57577 19.5487 3.67984 19.3685 3.725L18.1869 4.02083L17.8919 5.2025C17.8467 5.38271 17.7427 5.54266 17.5962 5.65695C17.4498 5.77125 17.2693 5.83333 17.0835 5.83333Z" fill="white"/>
</g>
<defs>
<clipPath id="clip0_9327_3829">
<rect width="20" height="20" fill="white"/>
</clipPath>
</defs>
</svg>
