<svg width="24" height="24" viewBox="0 0 24 24" fill="none" xmlns="http://www.w3.org/2000/svg">
<g clip-path="url(#clip0_13634_37133)">
<path d="M24 2.013C24 1.48257 23.7893 0.97386 23.4142 0.598787C23.0391 0.223714 22.5304 0.0130005 22 0.0130005H2C1.46957 0.0130005 0.960859 0.223714 0.585786 0.598787C0.210714 0.97386 0 1.48257 0 2.013L0 21.987C0 22.5174 0.210714 23.0261 0.585786 23.4012C0.960859 23.7763 1.46957 23.987 2 23.987H17.025C18.8739 23.9821 20.6462 23.2479 21.957 21.944C22.6066 21.2979 23.1216 20.5295 23.4723 19.6831C23.8229 18.8367 24.0023 17.9292 24 17.013V2.013ZM2 2.513C2 2.38039 2.05268 2.25322 2.14645 2.15945C2.24021 2.06568 2.36739 2.013 2.5 2.013H21.5C21.6326 2.013 21.7598 2.06568 21.8536 2.15945C21.9473 2.25322 22 2.38039 22 2.513V16.487C22 16.5533 21.9737 16.6169 21.9268 16.6638C21.8799 16.7107 21.8163 16.737 21.75 16.737H18.5C18.036 16.7375 17.5912 16.9221 17.2631 17.2501C16.9351 17.5782 16.7505 18.023 16.75 18.487V21.737C16.75 21.8033 16.7237 21.8669 16.6768 21.9138C16.6299 21.9607 16.5663 21.987 16.5 21.987H2.5C2.36739 21.987 2.24021 21.9343 2.14645 21.8406C2.05268 21.7468 2 21.6196 2 21.487V2.513ZM18.578 21.736C18.5405 21.7483 18.5006 21.7516 18.4616 21.7455C18.4226 21.7395 18.3856 21.7242 18.3536 21.7011C18.3216 21.678 18.2955 21.6476 18.2775 21.6125C18.2595 21.5774 18.2501 21.5385 18.25 21.499V18.487C18.2508 18.4209 18.2774 18.3578 18.3241 18.3111C18.3708 18.2644 18.4339 18.2378 18.5 18.237H21.516C21.5548 18.2372 21.593 18.2463 21.6277 18.2636C21.6624 18.2809 21.6926 18.3061 21.716 18.337C21.7392 18.3689 21.7545 18.4058 21.7606 18.4448C21.7667 18.4837 21.7634 18.5236 21.751 18.561C21.5071 19.3015 21.0927 19.9743 20.541 20.5251C19.9893 21.0759 19.3159 21.4893 18.575 21.732L18.578 21.736Z" fill="#6F7897"/>
<path d="M14.25 15.513H7.75C7.6837 15.513 7.62011 15.4867 7.57322 15.4398C7.52634 15.3929 7.5 15.3293 7.5 15.263V13.013C7.5 12.9467 7.52634 12.8831 7.57322 12.8362C7.62011 12.7893 7.6837 12.763 7.75 12.763H19.75C19.9489 12.763 20.1397 12.684 20.2803 12.5433C20.421 12.4027 20.5 12.2119 20.5 12.013C20.5 11.8141 20.421 11.6233 20.2803 11.4827C20.1397 11.342 19.9489 11.263 19.75 11.263H7.75C7.6837 11.263 7.62011 11.2367 7.57322 11.1898C7.52634 11.1429 7.5 11.0793 7.5 11.013V8.763C7.5 8.6967 7.52634 8.63311 7.57322 8.58622C7.62011 8.53934 7.6837 8.513 7.75 8.513H19.75C19.9489 8.513 20.1397 8.43398 20.2803 8.29333C20.421 8.15268 20.5 7.96191 20.5 7.763C20.5 7.56409 20.421 7.37332 20.2803 7.23267C20.1397 7.09202 19.9489 7.013 19.75 7.013H7.75C7.6837 7.013 7.62011 6.98666 7.57322 6.93978C7.52634 6.89289 7.5 6.8293 7.5 6.763V4.263C7.5 4.06409 7.42098 3.87332 7.28033 3.73267C7.13968 3.59202 6.94891 3.513 6.75 3.513C6.55109 3.513 6.36032 3.59202 6.21967 3.73267C6.07902 3.87332 6 4.06409 6 4.263V6.763C6 6.8293 5.97366 6.89289 5.92678 6.93978C5.87989 6.98666 5.8163 7.013 5.75 7.013H4.25C4.05109 7.013 3.86032 7.09202 3.71967 7.23267C3.57902 7.37332 3.5 7.56409 3.5 7.763C3.5 7.96191 3.57902 8.15268 3.71967 8.29333C3.86032 8.43398 4.05109 8.513 4.25 8.513H5.75C5.8163 8.513 5.87989 8.53934 5.92678 8.58622C5.97366 8.63311 6 8.6967 6 8.763V11.013C6 11.0793 5.97366 11.1429 5.92678 11.1898C5.87989 11.2367 5.8163 11.263 5.75 11.263H4.25C4.05109 11.263 3.86032 11.342 3.71967 11.4827C3.57902 11.6233 3.5 11.8141 3.5 12.013C3.5 12.2119 3.57902 12.4027 3.71967 12.5433C3.86032 12.684 4.05109 12.763 4.25 12.763H5.75C5.8163 12.763 5.87989 12.7893 5.92678 12.8362C5.97366 12.8831 6 12.9467 6 13.013V15.263C6 15.3293 5.97366 15.3929 5.92678 15.4398C5.87989 15.4867 5.8163 15.513 5.75 15.513H4.25C4.05109 15.513 3.86032 15.592 3.71967 15.7327C3.57902 15.8733 3.5 16.0641 3.5 16.263C3.5 16.4619 3.57902 16.6527 3.71967 16.7933C3.86032 16.934 4.05109 17.013 4.25 17.013H5.75C5.8163 17.013 5.87989 17.0393 5.92678 17.0862C5.97366 17.1331 6 17.1967 6 17.263V19.763C6 19.9619 6.07902 20.1527 6.21967 20.2933C6.36032 20.434 6.55109 20.513 6.75 20.513C6.94891 20.513 7.13968 20.434 7.28033 20.2933C7.42098 20.1527 7.5 19.9619 7.5 19.763V17.263C7.5 17.1967 7.52634 17.1331 7.57322 17.0862C7.62011 17.0393 7.6837 17.013 7.75 17.013H14.25C14.4489 17.013 14.6397 16.934 14.7803 16.7933C14.921 16.6527 15 16.4619 15 16.263C15 16.0641 14.921 15.8733 14.7803 15.7327C14.6397 15.592 14.4489 15.513 14.25 15.513Z" fill="#6F7897"/>
</g>
<defs>
<clipPath id="clip0_13634_37133">
<rect width="24" height="24" fill="white"/>
</clipPath>
</defs>
</svg>
