<svg width="19" height="19" viewBox="0 0 19 19" fill="none" xmlns="http://www.w3.org/2000/svg">
<path d="M12.2832 13.9531H14.5098V16.1797H12.2832V13.9531Z" fill="white"/>
<path d="M4.49023 13.9531H8.94336V16.1797H4.49023V13.9531Z" fill="white"/>
<path d="M0 17.293C0 18.2138 0.74909 19 1.66992 19H17.3301C18.2509 19 19 18.2138 19 17.293V5.56641H0V17.293ZM15.623 16.7363C15.623 17.044 15.3741 17.293 15.0664 17.293H11.7266C11.4189 17.293 11.1699 17.044 11.1699 16.7363V13.3965C11.1699 13.0888 11.4189 12.8398 11.7266 12.8398H15.0664C15.3741 12.8398 15.623 13.0888 15.623 13.3965V16.7363ZM3.37695 7.83008C3.37695 7.5224 3.62592 7.27344 3.93359 7.27344H15.0664C15.3741 7.27344 15.623 7.5224 15.623 7.83008V11.1699C15.623 11.4776 15.3741 11.7266 15.0664 11.7266H3.93359C3.62592 11.7266 3.37695 11.4776 3.37695 11.1699V7.83008ZM3.37695 13.3965C3.37695 13.0888 3.62592 12.8398 3.93359 12.8398H9.5C9.80767 12.8398 10.0566 13.0888 10.0566 13.3965V16.7363C10.0566 17.044 9.80767 17.293 9.5 17.293H3.93359C3.62592 17.293 3.37695 17.044 3.37695 16.7363V13.3965Z" fill="white"/>
<path d="M4.49023 8.38672H14.5098V10.6133H4.49023V8.38672Z" fill="white"/>
<path d="M17.3301 0H1.66992C0.74909 0 0 0.74909 0 1.66992V4.45312H19V1.66992C19 0.74909 18.2509 0 17.3301 0ZM3.93359 2.7832C3.62618 2.7832 3.37695 2.53398 3.37695 2.22656C3.37695 1.91907 3.62618 1.66992 3.93359 1.66992C4.24101 1.66992 4.49023 1.91907 4.49023 2.22656C4.49023 2.53398 4.24101 2.7832 3.93359 2.7832ZM6.16016 2.7832C5.85274 2.7832 5.60352 2.53398 5.60352 2.22656C5.60352 1.91907 5.85274 1.66992 6.16016 1.66992C6.46757 1.66992 6.7168 1.91907 6.7168 2.22656C6.7168 2.53398 6.46757 2.7832 6.16016 2.7832ZM8.38672 2.7832C8.0793 2.7832 7.83008 2.53398 7.83008 2.22656C7.83008 1.91907 8.0793 1.66992 8.38672 1.66992C8.69413 1.66992 8.94336 1.91907 8.94336 2.22656C8.94336 2.53398 8.69413 2.7832 8.38672 2.7832Z" fill="white"/>
</svg>
