<svg width="253" height="198" viewBox="0 0 253 198" fill="none" xmlns="http://www.w3.org/2000/svg">
<g clip-path="url(#clip0_3518_14793)">
<path d="M252.591 85.5505C250.889 77.038 240.793 72.6285 236.639 79.8131C242.223 76.2208 250.259 84.5801 248.42 95.1355C246.139 108.126 237.201 104.431 230.459 93.0926C226.901 87.1168 218.372 65.3759 211.358 65.5121C220.415 63.5202 227.65 53.3393 228.944 48.2148C229.23 47.2689 229.227 46.2589 228.935 45.3149C228.642 44.3708 228.075 43.5358 227.304 42.9171C226.533 42.2983 225.595 41.9242 224.61 41.8429C223.625 41.7615 222.639 41.9766 221.777 42.4604C217.81 44.3161 212.362 55.825 208.26 61.6645C209.23 54.9567 210.507 46.8698 212.124 39.0724C219.593 36.089 226.221 31.3258 231.43 25.1971C237.133 17.9615 236.299 8.54673 231.277 7.21878C214.814 2.84337 207.102 22.5412 202.693 40.5706C186.162 43.1754 168.252 35.0035 175.351 18.7617C178.756 10.777 192.154 12.3603 195.474 18.1147C183.2 -5.48183 150.479 28.3297 183.012 40.6557C189.2 42.8994 195.889 43.3827 202.335 42.0518C202.012 43.4649 201.688 44.8609 201.399 46.2399C200.19 51.8071 199.22 57.0507 198.505 61.7837C194.368 74.978 188.001 84.4949 185.174 86.572C181.872 83.2691 185.447 60.0812 186.877 53.6968C188.307 47.3125 186.621 44.5885 184.357 43.0222C182.093 41.4559 179.42 41.3197 178.28 42.7838C172.795 49.9624 168.337 57.8699 165.035 66.2783C165.307 63.7245 165.545 61.341 165.647 59.4683C166.073 51.2793 168.661 39.9407 156.897 43.1073C157.376 46.6451 157.609 50.2119 157.595 53.782C157.237 55.0929 150.411 79.6769 144.112 83.7288C140.707 85.874 146.87 54.7865 143.992 50.7005C142.426 48.5043 136.944 49.3385 136.944 49.3385C137.097 54.2927 134.646 65.0695 127.938 77.5488C124.67 83.6607 122.831 82.9627 122.065 79.2513C124.676 75.5384 127.052 71.6662 129.181 67.6573C134.646 57.3232 140.707 44.0097 132.348 40.9622C122.865 37.5572 115.545 52.0114 113.11 65.5121C111.578 74.0246 112.753 79.9834 115.374 83.6267C111.288 88.0021 107.918 90.6069 106.964 90.4367C104.513 90.1472 104.785 69.5641 104.649 57.221C104.513 44.8779 101.482 45.7973 97.039 45.3036C92.5956 44.8098 87.1307 60.2344 84.543 67.7084C83.9982 69.2576 83.5727 70.6537 83.2322 71.8795C82.5342 59.3151 82.1597 42.188 84.0834 29.3172C111.51 33.5904 117.519 26.3548 118.285 14.199C119.137 0.408816 100.342 -6.23092 84.543 7.59333C81.6212 10.5441 79.4951 14.1874 78.3633 18.1828C74.72 17.4508 70.8724 16.4803 66.9057 15.4929C22.6422 3.66054 9.32916 12.0879 3.1493 26.8996C-0.0683199 34.697 -0.340721 42.1369 0.425378 45.627C7.60969 78.1787 48.5194 69.8535 37.6068 46.8869C38.3218 66.125 5.02195 62.8222 2.58746 41.2857C-0.119422 17.4508 24.7192 17.6891 55.6526 23.5457C49.0642 31.0707 50.6814 34.7311 54.1204 54.1906C58.4616 78.8427 60.2151 107.7 44.5697 107.887C34.2359 108.006 28.771 94.063 30.9502 85.1589C33.2485 75.9484 43.5823 71.9135 51.6178 78.9959C51.6178 64.6439 27.5112 63.35 27.5112 89.3301C27.5112 117.472 66.8377 117.047 66.8377 84.4439C66.8377 54.531 59.6023 35.3951 59.5512 24.2608C63.586 25.0609 67.706 25.9632 71.8599 26.8826C73.2219 27.189 74.5497 27.4784 75.8265 27.7338C72.0641 47.3806 73.1197 73.9565 74.4476 82.2136C75.8776 91.1176 84.492 88.8193 84.492 88.8193C84.492 88.8193 84.1686 85.857 83.7941 81.073C84.7304 71.7773 89.8887 59.4342 94.979 50.7856C97.8391 64.1331 92.5786 94.7099 102.044 95.2888C106.794 95.5782 112.259 91.2028 117.128 85.4824C118.332 86.5118 119.78 87.2152 121.333 87.5254C127.598 88.8193 135.906 61.5453 135.906 61.5453C135.906 61.5453 135.174 66.4315 134.305 74.1778C133.437 81.9242 134.305 88.3256 140.758 89.0917C145.865 89.7046 153.152 73.2415 157.067 63.1457C157.067 63.7586 156.931 64.3715 156.846 65.0014C155.263 76.9189 152.539 86.5379 164.881 86.2485C163.315 85.6015 163.621 79.728 164.251 73.2415C167.758 63.8948 178.382 47.4827 178.382 47.4827C178.382 47.4827 175.93 69.7343 175.351 74.8929C174.773 80.0514 175.215 91.6965 182.672 92.1221C187.115 92.3775 193.142 81.3964 197.296 72.4583C196.802 78.5362 197.023 82.8265 198.045 84.512C200.19 88.1042 206.557 88.7512 206.557 88.7512C206.557 88.7512 204.684 87.5254 206.557 74.6034C206.813 72.901 207.136 70.3472 207.562 67.2827C218.406 70.9261 217.776 101.333 232.213 106.304C248.454 112.024 254.736 96.1911 252.591 85.5505ZM227.599 9.29582C237.252 12.156 229.302 24.3458 218.696 33.5904C216.8 35.2049 214.699 36.5616 212.448 37.6253C215.886 21.6219 220.824 7.30391 227.599 9.29582ZM87.999 15.5099C103.644 -11.6278 123.58 9.36392 112.395 17.8083C108.411 20.8047 98.8776 21.3835 86.1945 19.5108C86.6899 18.1206 87.317 16.7809 88.0671 15.5099H87.999ZM123.274 61.9369C125.64 52.5051 139.106 34.1693 133.216 53.8331C130.638 61.8195 126.711 69.3052 121.605 75.9655C121.576 71.2339 122.159 66.5184 123.342 61.9369H123.274ZM207.868 64.048C212.975 58.6171 220.313 43.1414 223.599 45.6441C226.271 47.67 222.832 56.6762 213.844 62.1412C211.93 63.3011 209.883 64.2271 207.749 64.8993C207.868 64.6098 207.902 64.3545 207.936 64.048H207.868Z" fill="white"/>
<path d="M162.566 152.884C152.595 150.901 142.373 150.51 132.28 151.726C125.947 152.68 124.534 153.735 124.959 159.047C124.959 159.047 131.888 155.778 143.873 157.157C164.15 159.489 165.443 164.12 165.443 164.12L167.878 158.196C168.865 155.795 169.308 154.45 162.566 152.884Z" fill="#0062FF"/>
<path d="M209.4 126.291C215.427 132.896 199.186 154.45 190.009 149.938C179.897 144.984 192.274 117.71 192.495 112.347C192.699 107.751 187.388 105.708 184.102 105.657C184.817 109.606 183.234 114.169 181.94 119.719C180.646 125.269 171.317 137.238 165.477 139.383C162.481 135.791 173.989 110.253 170.176 103.631C167.912 99.8 160.761 99.5786 160.761 100.43C160.761 100.43 165.579 103.324 160.114 121.966C158.805 122.523 157.379 122.751 155.961 122.63C154.91 122.559 153.899 122.206 153.032 121.609C153.628 117.812 153.662 114.441 152.42 113.437C149.253 110.849 148.368 111.394 146.938 114.986C146.103 117.08 146.938 120.809 149.423 123.294C148.146 129.798 145.61 138.498 141.32 138.753C135.736 139.111 135.565 123.839 139.021 115.786C146.257 98.9998 150.513 107.444 150.513 107.444C150.802 108.04 151.653 108.772 152.573 107.001C153.492 105.231 147.619 97.8421 142.511 97.8421C135.531 97.8421 129.351 108.755 127.513 119.872C125.008 125.559 121.824 130.921 118.03 135.842C118.916 127.359 119.336 118.833 119.29 110.304C119.154 103.494 110.931 103.154 110.454 103.852C109.722 104.924 109.858 108.517 109.961 114.067C104.649 129.968 96.341 149.7 96.1027 136.199C95.8133 121.268 101.21 109.64 96.5283 103.767C85.5816 89.7212 53.0308 98.8806 53.0479 127.091C53.0479 151.573 75.5712 150.705 77.8695 137.629C71.0597 147.027 49.8813 134.905 59.1426 114.424C67.9953 94.7776 85.8029 97.3143 88.0842 102.847C90.2122 107.955 89.0716 117.114 87.931 126.155C86.7904 135.195 88.0672 146.584 93.6682 146.584C99.2693 146.584 107.152 128.725 110.012 117.472C110.195 127.489 109.512 137.503 107.969 147.402C103.185 152.509 97.6008 158.008 90.9442 164.954C65.0501 191.922 86.569 212.233 104.394 184.976C112.174 173.058 115.936 154.331 117.741 138.583C121.452 133.918 124.55 129.56 126.951 125.899C126.951 132.301 128.534 138.089 132.654 141.051C139.174 145.75 147.976 142.635 151.943 126.785C152.079 126.24 152.215 125.695 152.334 125.167C153.856 125.739 155.507 125.874 157.101 125.559C157.787 125.44 158.464 125.275 159.127 125.065C153.73 141.698 157.118 145.495 162.532 145.733C166.124 145.818 175.454 134.667 180.476 127.5C177.309 136.676 176.747 153.394 188.767 153.394C208.753 153.394 221.113 131.807 216.789 127.04C215.955 126.206 214.082 125.457 209.4 126.291ZM99.4054 179.153C95.4558 189.368 87.4883 194.595 85.0368 191.871C77.8695 183.92 95.5919 163.456 107.458 150.5C105.679 160.283 102.983 169.876 99.4054 179.153Z" fill="#0062FF"/>
<path d="M193.721 145.274C195.866 145.563 198.352 143.793 199.084 140.524C199.543 138.447 194.913 137.374 193.976 138.038C191.559 139.707 191.559 144.984 193.721 145.274Z" fill="#0062FF"/>
<path d="M215.427 93.8757C210.32 93.0244 194.368 122.137 195.713 134.225C195.873 134.764 196.196 135.239 196.639 135.586C197.081 135.933 197.621 136.133 198.182 136.159C198.743 136.185 199.299 136.036 199.772 135.732C200.245 135.428 200.611 134.985 200.82 134.463C201.484 133.169 211.375 101.196 220.552 99.1875C220.552 94.8802 215.427 93.8757 215.427 93.8757Z" fill="#0062FF"/>
</g>
<defs>
<clipPath id="clip0_3518_14793">
<rect width="253" height="198" fill="white"/>
</clipPath>
</defs>
</svg>
