<svg width="16" height="16" viewBox="0 0 16 16" fill="none" xmlns="http://www.w3.org/2000/svg">
<g clip-path="url(#clip0_14468_36788)">
<path d="M-2.33907e-06 13.06C0.000703641 13.7733 0.28434 14.4571 0.78866 14.9614C1.29298 15.4657 1.97678 15.7493 2.69 15.75H13.31C14.0232 15.7493 14.707 15.4657 15.2113 14.9614C15.7157 14.4571 15.9993 13.7733 16 13.06V11.8107C16.0031 11.7015 15.9843 11.5929 15.9447 11.4911C15.9051 11.3893 15.8454 11.2965 15.7693 11.2182C15.6932 11.1399 15.6022 11.0776 15.5016 11.0351C15.401 10.9926 15.2929 10.9707 15.1837 10.9707C15.0745 10.9707 14.9664 10.9926 14.8658 11.0351C14.7652 11.0776 14.6741 11.1399 14.598 11.2182C14.5219 11.2965 14.4623 11.3893 14.4226 11.4911C14.383 11.5929 14.3642 11.7015 14.3673 11.8107V13.06C14.367 13.3403 14.2555 13.6091 14.0573 13.8073C13.859 14.0055 13.5903 14.117 13.31 14.1174H2.69C2.40968 14.117 2.14095 14.0055 1.94274 13.8073C1.74453 13.6091 1.63302 13.3403 1.63266 13.06V11.8107C1.63578 11.7015 1.61698 11.5929 1.57736 11.4911C1.53773 11.3893 1.4781 11.2965 1.40199 11.2182C1.32588 11.1399 1.23483 11.0776 1.13424 11.0351C1.03364 10.9926 0.925541 10.9707 0.816331 10.9707C0.707121 10.9707 0.59902 10.9926 0.498425 11.0351C0.397829 11.0776 0.306782 11.1399 0.23067 11.2182C0.154558 11.2965 0.0949272 11.3893 0.0553059 11.4911C0.0156847 11.5929 -0.0031223 11.7015 -2.33907e-06 11.8107V13.06Z" fill="#6F7897"/>
<path d="M7.99999 12.8813C8.34637 12.8813 8.67855 12.7437 8.92348 12.4988C9.1684 12.2538 9.30599 11.9217 9.30599 11.5753V5.46661C9.30599 5.42241 9.32355 5.38002 9.35481 5.34876C9.38607 5.3175 9.42846 5.29994 9.47266 5.29994H11.2667C11.392 5.30004 11.5146 5.26407 11.6201 5.19632C11.7255 5.12857 11.8091 5.03191 11.8611 4.91788C11.9131 4.80385 11.9311 4.67728 11.913 4.55328C11.895 4.42928 11.8416 4.3131 11.7593 4.21861L8.49266 0.466612C8.4296 0.399067 8.35332 0.34521 8.26857 0.308387C8.18382 0.271565 8.0924 0.252563 7.99999 0.252563C7.90759 0.252563 7.81617 0.271565 7.73142 0.308387C7.64666 0.34521 7.57039 0.399067 7.50733 0.466612L4.24066 4.22195C4.1592 4.3165 4.10655 4.43243 4.08897 4.556C4.07138 4.67956 4.0896 4.80557 4.14145 4.9191C4.1933 5.03263 4.27662 5.12891 4.38152 5.19653C4.48643 5.26415 4.60852 5.30027 4.73333 5.30061H6.52733C6.57153 5.30061 6.61392 5.31817 6.64518 5.34943C6.67643 5.38068 6.69399 5.42308 6.69399 5.46728V11.5753C6.69399 11.9217 6.83159 12.2538 7.07651 12.4988C7.32143 12.7437 7.65362 12.8813 7.99999 12.8813Z" fill="#6F7897"/>
</g>
<defs>
<clipPath id="clip0_14468_36788">
<rect width="16" height="16" fill="white"/>
</clipPath>
</defs>
</svg>
