<svg width="75" height="75" viewBox="0 0 75 75" fill="none" xmlns="http://www.w3.org/2000/svg">
<path d="M60.9963 20.944C60.1943 16.1784 57.8347 11.8293 54.2258 8.52882C50.2159 4.85825 45.0031 2.83789 39.5743 2.83789C35.3794 2.83789 31.2924 4.04085 27.7915 6.30797C24.8766 8.18953 22.4553 10.7343 20.7434 13.7262C20.0031 13.5874 19.232 13.5103 18.4608 13.5103C11.9062 13.5103 6.57002 18.8465 6.57002 25.4011C6.57002 26.2494 6.66255 27.0668 6.81678 27.8687C2.57557 30.9533 0 35.9193 0 41.2093C0 45.4813 1.58853 49.63 4.48797 52.915C7.46453 56.2771 11.3973 58.2666 15.5922 58.498C15.6385 58.498 15.6693 58.498 15.7156 58.498H28.979C30.1357 58.498 31.0611 57.5726 31.0611 56.4159C31.0611 55.2592 30.1357 54.3339 28.979 54.3339H15.7773C9.46946 53.9483 4.1641 47.9489 4.1641 41.1938C4.1641 36.8293 6.50833 32.7577 10.2869 30.5523C11.1659 30.0433 11.5361 28.9792 11.1968 28.023C10.8883 27.1901 10.7341 26.3111 10.7341 25.3703C10.7341 21.1136 14.2042 17.6436 18.4608 17.6436C19.3708 17.6436 20.2653 17.7978 21.0981 18.1062C22.116 18.4764 23.2418 18.0137 23.7045 17.0421C26.5885 10.9193 32.8193 6.97114 39.5898 6.97114C48.6891 6.97114 56.1999 13.7879 57.0635 22.8256C57.1561 23.7663 57.8655 24.522 58.7909 24.6763C65.6539 25.8484 70.8359 32.1871 70.8359 39.4202C70.8359 47.0853 64.8057 53.7478 57.372 54.3185H46.0056C44.8489 54.3185 43.9235 55.2438 43.9235 56.4005C43.9235 57.5572 44.8489 58.4826 46.0056 58.4826H57.4491C57.4954 58.4826 57.5416 58.4826 57.6033 58.4826C62.3072 58.1433 66.7027 55.9841 69.9722 52.3752C73.2264 48.7972 75 44.2013 75 39.4202C74.9846 30.7682 69.0777 23.0723 60.9963 20.944Z" fill="#EE5555"/>
<path d="M50 43.1833C50.8174 42.3659 50.8174 41.055 50 40.2376L38.9728 29.2104C38.5873 28.8248 38.0475 28.5935 37.5077 28.5935C36.9679 28.5935 36.4281 28.8094 36.0425 29.2104L25.0154 40.2376C24.198 41.055 24.198 42.3659 25.0154 43.1833C25.4164 43.5843 25.9562 43.8002 26.4805 43.8002C27.0049 43.8002 27.5447 43.5997 27.9457 43.1833L35.4256 35.7033V70.0803C35.4256 71.2369 36.351 72.1623 37.5077 72.1623C38.6644 72.1623 39.5897 71.2369 39.5897 70.0803V35.7033L47.0697 43.1833C47.8716 44.0007 49.1826 44.0007 50 43.1833Z" fill="#EE5555"/>
</svg>
