<svg width="20" height="20" viewBox="0 0 20 20" fill="none" xmlns="http://www.w3.org/2000/svg">
<g clip-path="url(#clip0_3426_15032)">
<path d="M11.6842 5.08826L8.16083 1.56576C7.9294 1.33271 7.65398 1.14795 7.35056 1.0222C7.04715 0.896459 6.72177 0.832236 6.39333 0.833264H0.833333C0.612319 0.833264 0.400358 0.921061 0.244078 1.07734C0.0877974 1.23362 0 1.44558 0 1.6666C0 1.88761 0.0877974 2.09957 0.244078 2.25585C0.400358 2.41213 0.612319 2.49993 0.833333 2.49993H6.39333C6.61422 2.50052 6.82595 2.58827 6.9825 2.7441L9.23833 4.99993H4.16667C3.062 5.00125 2.00296 5.44067 1.22185 6.22178C0.440735 7.0029 0.00132321 8.06194 0 9.1666L0 15.8333C0.00132321 16.9379 0.440735 17.997 1.22185 18.7781C2.00296 19.5592 3.062 19.9986 4.16667 19.9999H10.8333C11.938 19.9986 12.997 19.5592 13.7781 18.7781C14.5593 17.997 14.9987 16.9379 15 15.8333V9.1666C14.9986 8.20969 14.6685 7.28231 14.0648 6.53983C13.4611 5.79736 12.6207 5.28488 11.6842 5.08826Z" fill="#DDDEE3"/>
<path d="M19.0828 7.46253C18.8069 7.3227 18.4974 7.26296 18.1893 7.29006C17.8811 7.31716 17.5868 7.43002 17.3395 7.61586L16.6729 8.11586V16.8842L17.3395 17.3842C17.5871 17.5699 17.8816 17.683 18.1898 17.7108C18.4981 17.7386 18.808 17.68 19.0849 17.5416C19.3617 17.4031 19.5945 17.1904 19.7573 16.9271C19.92 16.6638 20.0062 16.3604 20.0062 16.0509V8.95252C20.007 8.64267 19.9209 8.33879 19.7577 8.0754C19.5945 7.81202 19.3607 7.59968 19.0828 7.46253Z" fill="#DDDEE3"/>
</g>
<defs>
<clipPath id="clip0_3426_15032">
<rect width="20" height="20" fill="white"/>
</clipPath>
</defs>
</svg>
