<svg width="23" height="14" viewBox="0 0 23 14" fill="none" xmlns="http://www.w3.org/2000/svg">
<g clip-path="url(#clip0_3191_947)">
<path d="M0 11.3891C0 8.31014 0 5.23118 0 2.15222C0.0157457 2.11308 0.03689 2.07529 0.0463374 2.03435C0.267227 1.1049 0.827775 0.471922 1.72753 0.154308C1.96327 0.0706308 2.2215 0.0494866 2.46938 0C6.00137 0 9.53381 0 13.0658 0C13.2048 0.022044 13.3452 0.0386895 13.4828 0.0674817C14.7236 0.328861 15.5266 1.32624 15.528 2.62099C15.5311 5.38459 15.5307 8.14819 15.5257 10.9118C15.5253 11.1264 15.5046 11.3459 15.4547 11.5542C15.1658 12.7536 14.1995 13.5188 12.9277 13.522C9.47982 13.5314 6.03196 13.5278 2.5841 13.5233C1.68704 13.522 0.946993 13.1697 0.448978 12.4189C0.245633 12.1116 0.14666 11.7346 0 11.3891Z" fill="white"/>
<path d="M22.9889 6.77143C22.9889 8.02614 22.9547 9.2822 22.9992 10.5356C23.0384 11.6319 21.8462 12.605 20.6563 11.9023C19.6022 11.2797 18.5333 10.6831 17.4707 10.0753C17.2826 9.96781 17.0874 9.87153 16.9111 9.74737C16.8409 9.69788 16.7729 9.58766 16.7729 9.50488C16.7653 7.67478 16.7648 5.84468 16.7734 4.01503C16.7738 3.9282 16.8494 3.80538 16.9259 3.7604C18.1694 3.03339 19.416 2.31089 20.668 1.59873C21.7675 0.973402 22.9871 1.69411 22.9884 2.96186C22.9898 4.23187 22.9889 5.50187 22.9889 6.77143Z" fill="white"/>
</g>
<defs>
<clipPath id="clip0_3191_947">
<rect width="23" height="13.5278" fill="white"/>
</clipPath>
</defs>
</svg>
