<svg width="218" height="218" viewBox="0 0 218 218" fill="none" xmlns="http://www.w3.org/2000/svg">
<g clip-path="url(#clip0)">
<path d="M181.354 195.796V214.241C181.354 216.318 179.672 218 177.595 218H40.4056C38.329 218 36.647 216.318 36.647 214.241V195.796C36.647 181.612 45.0804 169.392 57.2067 163.881C52.2589 159.944 44.7177 154.653 39.2311 143.269C31.5893 127.437 32.8973 108.759 42.6326 94.1394C47.9229 86.1993 50.7419 76.8779 50.7419 67.3404V46.9828C50.7419 21.0342 71.776 0 97.7246 0H120.276C146.225 0 167.259 21.0342 167.259 46.9828C167.259 68.5417 166.732 72.7636 169.331 81.3365C172.998 93.4586 177.842 94.9583 181.575 107.295C187.443 126.686 180.952 147.835 164.957 160.568L160.794 163.881C172.921 169.392 181.354 181.612 181.354 195.796Z" fill="#FFDFBA"/>
<path d="M181.354 195.796V214.241C181.354 216.317 179.671 218 177.595 218H40.4057C38.33 218 36.647 216.317 36.647 214.241V195.796C36.647 176.457 52.3247 160.761 71.6821 160.761C74.5621 160.761 77.2965 160.136 79.7537 159.018L79.8712 159.271L106.7 180.041C108.054 181.09 109.947 181.09 111.302 180.041L138.13 159.271L138.247 159.018C140.704 160.136 143.439 160.761 146.319 160.761C165.601 160.761 181.354 176.382 181.354 195.796Z" fill="#FFAA64"/>
<path d="M151.956 68.7159C153.951 68.8296 155.513 70.4693 155.513 72.4679V94.9661C155.513 114.356 143.65 130.974 126.783 137.955C96.2837 150.616 62.4875 128.125 62.4875 94.9661V72.7949C62.4875 70.5919 64.3744 68.8512 66.5685 69.0499C89.1141 71.0942 111.316 65.4008 129.959 52.8414C132.079 51.4131 134.999 52.4711 135.668 54.9387C137.987 63.4867 144.313 68.2804 151.956 68.7159Z" fill="#FFEBD2"/>
<path d="M164.957 160.568L160.794 163.881C156.383 161.879 151.482 160.761 146.319 160.761C135.593 160.761 126.854 152.1 126.854 141.338V138.129L126.783 137.955C143.65 130.974 155.513 114.356 155.513 94.9662V72.4681C155.513 70.4694 153.951 68.8297 151.956 68.716C144.36 68.2833 138.002 63.5418 135.668 54.9393C134.999 52.4718 132.079 51.4137 129.959 52.842C111.328 65.393 89.1277 71.0957 66.5685 69.0506C64.3744 68.8518 62.4876 70.5925 62.4876 72.7955V94.9667C62.4876 114.356 74.3507 130.974 91.2175 137.956L91.147 138.13V141.339C91.147 152.098 82.4101 160.761 71.6821 160.761C66.5187 160.761 61.6184 161.88 57.2067 163.881L53.044 160.569C32.8363 144.467 28.3367 115.609 42.6327 94.1398C47.9229 86.1997 50.7419 76.8783 50.7419 67.3409V46.9828C50.7419 21.0351 71.777 0 97.7246 0H120.276C146.224 0 167.259 21.0351 167.259 46.9828V67.3404C167.259 76.8666 170.078 86.1993 175.368 94.1393C189.716 115.687 185.088 144.542 164.957 160.568Z" fill="#42434D"/>
<path d="M127.385 145.844C115.81 150.689 103.089 151.065 90.6161 145.844C91.2532 143.201 91.147 141.489 91.147 138.129L91.2175 137.956C102.532 142.652 115.447 142.661 126.783 137.956L126.854 138.129C126.854 141.49 126.748 143.202 127.385 145.844Z" fill="#FFD6A6"/>
<path d="M141.501 5.05628C146.299 7.48999 144.214 14.8132 138.858 14.3063C137.381 14.1662 135.884 14.0948 134.371 14.0948H111.819C85.8713 14.0948 64.8362 35.1299 64.8362 61.0776V66.7944C64.8362 70.1697 62.487 70.0607 62.487 72.7951C62.487 97.6123 62.5876 96.0412 62.2235 97.112C58.5377 107.955 54.1114 109.524 50.5205 121.389C48.5646 127.852 47.9867 134.508 48.6642 140.967C49.2172 146.238 41.8771 148.76 39.2306 143.269C31.6433 127.55 32.8315 108.858 42.6321 94.1394C47.9224 86.1993 50.7413 76.8779 50.7413 67.3404V46.9828C50.7413 21.0351 71.7765 0 97.7241 0H120.276C127.914 0 135.126 1.82246 141.501 5.05628Z" fill="#4D4E59"/>
<path d="M100.084 126.125C107.102 130.823 101.753 141.69 93.7832 138.893C76.2652 132.746 62.4875 116.396 62.4875 94.9656V72.7945C62.4875 70.591 64.3762 68.8526 66.5703 69.05C68.3707 69.2135 70.3478 69.3422 72.4812 69.4075C76.3428 69.525 79.4013 72.7137 79.4013 76.5771V87.4489C79.4013 103.811 87.7436 117.865 100.084 126.125Z" fill="#FFF3E4"/>
<path d="M87.62 165.271C89.8498 166.997 88.6715 170.616 85.8516 170.627C65.9624 170.701 50.7419 186.671 50.7419 205.662V218H40.4057C38.33 218 36.647 216.317 36.647 214.241V195.796C36.647 176.456 52.3252 160.761 71.6821 160.761C74.5621 160.761 77.2965 160.136 79.7537 159.018L79.8712 159.271L87.62 165.271Z" fill="#FFBD7B"/>
<path d="M130.38 165.271C128.151 166.997 129.329 170.616 132.149 170.627C152.038 170.701 167.259 186.671 167.259 205.662V218H177.595C179.671 218 181.353 216.317 181.353 214.241V195.796C181.353 176.456 165.675 160.761 146.318 160.761C143.438 160.761 140.704 160.136 138.247 159.018L138.129 159.271L130.38 165.271Z" fill="#FAA157"/>
</g>
<defs>
<clipPath id="clip0">
<rect width="218" height="218" fill="white"/>
</clipPath>
</defs>
</svg>
