<svg width="60" height="52" viewBox="0 0 60 52" fill="none" xmlns="http://www.w3.org/2000/svg">
<path d="M54.1406 0.6875H35.2891C34.642 0.6875 34.1173 1.21215 34.1173 1.85938C34.1173 2.5066 34.642 3.03125 35.2891 3.03125H54.1406C56.0791 3.03125 57.6562 4.60836 57.6562 6.54688V34.9062H2.34375V6.54688C2.34375 4.60836 3.92086 3.03125 5.85938 3.03125H24.7423C25.3894 3.03125 25.9141 2.5066 25.9141 1.85938C25.9141 1.21215 25.3894 0.6875 24.7423 0.6875H5.85938C2.62852 0.6875 0 3.31602 0 6.54688V45.4531C0 48.684 2.62852 51.3125 5.85938 51.3125H54.1406C57.3715 51.3125 60 48.684 60 45.4531V6.54688C60 3.31602 57.3715 0.6875 54.1406 0.6875ZM54.1406 48.9688H5.85938C3.92086 48.9688 2.34375 47.3916 2.34375 45.4531V37.25H57.6562V45.4531C57.6562 47.3916 56.0791 48.9688 54.1406 48.9688Z" fill="#F67272"/>
<path d="M11.71 39.5938C9.77145 39.5938 8.19434 41.1709 8.19434 43.1094C8.19434 45.0479 9.77145 46.625 11.71 46.625C13.6485 46.625 15.2256 45.0479 15.2256 43.1094C15.2256 41.1709 13.6485 39.5938 11.71 39.5938ZM11.71 44.2812C11.0638 44.2812 10.5381 43.7555 10.5381 43.1094C10.5381 42.4632 11.0638 41.9375 11.71 41.9375C12.3561 41.9375 12.8818 42.4632 12.8818 43.1094C12.8818 43.7555 12.356 44.2812 11.71 44.2812Z" fill="#F67272"/>
<path d="M50.6339 41.9375H21.4441C20.7969 41.9375 20.2722 42.4621 20.2722 43.1094C20.2722 43.7566 20.7969 44.2812 21.4441 44.2812H50.6339C51.281 44.2812 51.8057 43.7566 51.8057 43.1094C51.8057 42.4621 51.2811 41.9375 50.6339 41.9375Z" fill="#F67272"/>
<path d="M24.01 15.4153V22.5222C24.01 23.7305 24.6347 24.8125 25.6811 25.4166C26.2043 25.7187 26.7783 25.8698 27.3523 25.8698C27.9262 25.8698 28.5002 25.7187 29.0234 25.4166L35.1781 21.8632C36.2245 21.2591 36.8492 20.1769 36.8492 18.9687C36.8492 17.7605 36.2245 16.6784 35.1781 16.0743L29.0234 12.5209C27.9772 11.9168 26.7278 11.9168 25.6812 12.5209C24.6347 13.125 24.01 14.2071 24.01 15.4153ZM26.3538 15.4153C26.3538 14.895 26.703 14.6373 26.853 14.5505C26.9443 14.4979 27.1268 14.4132 27.3574 14.4132C27.5061 14.4132 27.6748 14.4486 27.8515 14.5505L34.0062 18.104C34.4568 18.3642 34.5054 18.7954 34.5054 18.9687C34.5054 19.1421 34.4568 19.5733 34.0062 19.8335L27.8515 23.3869C27.4008 23.6469 27.0032 23.4735 26.8531 23.3869C26.7031 23.3002 26.3539 23.0425 26.3539 22.5222V15.4153H26.3538Z" fill="#F67272"/>
<path d="M30.0154 3.03125C30.3236 3.03125 30.6259 2.90586 30.8439 2.68789C31.0618 2.46992 31.1873 2.16758 31.1873 1.85938C31.1873 1.55117 31.0619 1.24883 30.8439 1.03086C30.6259 0.812891 30.3236 0.6875 30.0154 0.6875C29.7072 0.6875 29.4048 0.812891 29.1857 1.03086C28.9677 1.24883 28.8435 1.55117 28.8435 1.85938C28.8435 2.16758 28.9677 2.46992 29.1857 2.68789C29.4048 2.90586 29.7072 3.03125 30.0154 3.03125Z" fill="#F67272"/>
</svg>
