<svg width="40" height="35" viewBox="0 0 40 35" fill="none" xmlns="http://www.w3.org/2000/svg">
<path d="M18.0326 16.9739C17.7671 19.9387 17.4897 22.9035 17.2362 25.8703C16.9807 28.8647 16.7471 31.8612 16.5016 34.8932C8.19386 30.7219 -1.55707 12.8343 0.209474 4.7587C2.9561 5.97508 5.65083 7.16772 8.24176 8.31487C8.92044 5.67642 9.62706 2.92128 10.3776 0C14.278 2.08465 16.9048 5.06527 19.2822 8.41179C21.8731 5.10878 24.6217 2.1341 28.5999 0.433149C29.9054 3.02017 30.4164 5.75356 30.5621 8.46519C33.3526 7.21717 36.1033 5.98892 38.8978 4.73892C40.85 12.6187 31.3785 29.9149 22.5059 34.998C22.3582 33.2634 22.1945 31.5546 22.0727 29.8418C21.8352 26.4794 21.6336 23.1151 21.3841 19.7528C21.3401 19.1653 21.434 18.7816 22.0148 18.4909C22.8173 18.0874 23.5638 17.5771 24.5199 16.9996C22.2065 16.9996 20.1066 16.9996 18.0047 16.9996C18.0047 15.4351 18.0047 13.8706 18.0047 12.324C15.7611 11.9086 12.7949 14.6598 13.3817 16.9739C14.9167 16.9739 16.4757 16.9739 18.0326 16.9739Z" fill="#F67272"/>
</svg>
